<svg xmlns="http://www.w3.org/2000/svg" xmlns:xlink="http://www.w3.org/1999/xlink" width="29" height="38" viewBox="0 0 29 38">
  <defs>
    <clipPath id="clip-Atrakcie">
      <rect width="29" height="38"/>
    </clipPath>
  </defs>
  <g id="Atrakcie" clip-path="url(#clip-Atrakcie)">
    <g id="Group_278" data-name="Group 278" transform="translate(1.022 2.848)">
      <g id="Group_257" data-name="Group 257" transform="translate(0)">
        <g id="Path_332" data-name="Path 332" transform="translate(0 0)" fill="#ee2f4e">
          <path d="M 10.24591827392578 26.35813140869141 C 9.118277549743652 26.35813140869141 7.971827983856201 25.83675193786621 6.838438034057617 24.80846214294434 C 5.766858100891113 23.83626174926758 4.717778205871582 22.40604209899902 3.804627895355225 20.67243194580078 C 2.127088069915771 17.4876708984375 0.9999979734420776 13.44469165802002 0.9999979734420776 10.61198139190674 C 0.9999979734420776 5.3119215965271 5.312047958374023 1.000001549720764 10.61227798461914 1.000001549720764 C 15.91250801086426 1.000001549720764 20.22455787658691 5.3119215965271 20.22455787658691 10.61198139190674 C 20.22455787658691 13.46603202819824 19.08339881896973 17.35160064697266 17.31731796264648 20.51093101501465 C 16.37471771240234 22.19715118408203 15.28400802612305 23.61326217651367 14.16311836242676 24.60616111755371 C 12.96552753448486 25.66701126098633 11.74473762512207 26.25268173217773 10.53465843200684 26.34689140319824 C 10.43881797790527 26.35435104370117 10.34166812896729 26.35813140869141 10.24591827392578 26.35813140869141 Z" stroke="none"/>
          <path d="M 10.61227798461914 2.000001907348633 C 5.863448143005371 2.000001907348633 1.999998092651367 5.863321304321289 1.999998092651367 10.61198234558105 C 1.999998092651367 13.29679203033447 3.080778121948242 17.15249252319336 4.689388275146484 20.20639228820801 C 5.548768043518066 21.83791160583496 6.524248123168945 23.17318153381348 7.510368347167969 24.06785202026367 C 8.454057693481445 24.92402076721191 9.374427795410156 25.35813140869141 10.24591827392578 25.35813140869141 C 10.31590843200684 25.35813140869141 10.38692760467529 25.35536193847656 10.45703792572021 25.34990119934082 C 12.45673751831055 25.19421195983887 14.63906860351562 23.25263214111328 16.44444847106934 20.02299118041992 C 18.10731887817383 17.04828262329102 19.22455787658691 13.26629161834717 19.22455787658691 10.61198234558105 C 19.22455787658691 5.863321304321289 15.36110782623291 2.000001907348633 10.61227798461914 2.000001907348633 M 10.61227798461914 1.9073486328125e-06 C 16.4732780456543 1.9073486328125e-06 21.22455787658691 4.751152038574219 21.22455787658691 10.61198234558105 C 21.22455787658691 16.47282028198242 16.67035865783691 26.87221145629883 10.61227798461914 27.3438720703125 C 10.48988914489746 27.3533992767334 10.36705684661865 27.35813331604004 10.24592018127441 27.35813331604004 C 4.370986938476562 27.35813331604004 -1.9073486328125e-06 16.35441589355469 -1.9073486328125e-06 10.61198234558105 C -1.9073486328125e-06 4.751152038574219 4.751277923583984 1.9073486328125e-06 10.61227798461914 1.9073486328125e-06 Z" stroke="none" fill="#fff"/>
        </g>
      </g>
      <g id="Group_258" data-name="Group 258" transform="translate(3.942 3.896)">
        <path id="Path_94" data-name="Path 94" d="M0,0V7.62H2.461V8.963h7.693V7.62h2.765V0Z" transform="translate(0 3.118)" fill="none" stroke="#fff" stroke-width="1"/>
        <g id="Rectangle_48" data-name="Rectangle 48" transform="translate(2.865 12.07)" fill="none" stroke="#fff" stroke-width="1">
          <rect width="6.89" height="1.442" stroke="none"/>
          <rect x="0.5" y="0.5" width="5.89" height="0.442" fill="none"/>
        </g>
        <g id="Rectangle_49" data-name="Rectangle 49" transform="translate(0.021 10.748) rotate(-90)" fill="none" stroke="#fff" stroke-width="0.5">
          <rect width="7.611" height="2.484" stroke="none"/>
          <rect x="0.25" y="0.25" width="7.111" height="1.984" fill="none"/>
        </g>
        <g id="Rectangle_50" data-name="Rectangle 50" transform="translate(10.196 10.748) rotate(-90)" fill="none" stroke="#fff" stroke-width="0.5">
          <rect width="7.611" height="2.724" stroke="none"/>
          <rect x="0.25" y="0.25" width="7.111" height="2.224" fill="none"/>
        </g>
        <path id="Path_95" data-name="Path 95" d="M2.275,0,0,1.4,2.275,3.068,0,3.894l2.275,2.16" transform="translate(0.09 4.693)" fill="none" stroke="#fff" stroke-width="0.5"/>
        <path id="Path_96" data-name="Path 96" d="M2.133,7.586,0,5.425,2.133,4.6,0,2.934l2.133-1.4L0,0" transform="translate(10.505 3.082)" fill="none" stroke="#fff" stroke-width="0.5"/>
        <g id="Rectangle_51" data-name="Rectangle 51" transform="translate(2.465 1.655)" fill="none" stroke="#fff" stroke-width="0.5">
          <rect width="7.932" height="1.442" stroke="none"/>
          <rect x="0.25" y="0.25" width="7.432" height="0.942" fill="none"/>
        </g>
        <path id="Path_97" data-name="Path 97" d="M0,0" transform="translate(10.196 10.748)" fill="none" stroke="#fff" stroke-width="1"/>
        <path id="Path_98" data-name="Path 98" d="M0,0" transform="translate(16.103 12.806)" fill="none" stroke="#fff" stroke-width="1"/>
        <g id="Rectangle_52" data-name="Rectangle 52" transform="translate(1.263 10.708)" fill="#fff" stroke="#fff" stroke-width="0.5">
          <rect width="10.415" height="1.442" stroke="none"/>
          <rect x="0.25" y="0.25" width="9.915" height="0.942" fill="none"/>
        </g>
        <line id="Line_23" data-name="Line 23" y1="6.773" x2="3.629" transform="translate(6.506 3.112)" fill="none" stroke="#fff" stroke-width="0.5"/>
        <path id="Path_106" data-name="Path 106" d="M3.53,6.3,0,0" transform="translate(2.505 3.137)" fill="none" stroke="#fff" stroke-width="0.5"/>
        <line id="Line_25" data-name="Line 25" x1="1.824" y1="6.19" transform="translate(4.507 3.137)" fill="none" stroke="#fff" stroke-width="0.5"/>
        <line id="Line_26" data-name="Line 26" y1="6.089" x2="1.682" transform="translate(6.51 3.137)" fill="none" stroke="#fff" stroke-width="0.5"/>
        <line id="Line_27" data-name="Line 27" y1="6.089" x2="0.08" transform="translate(6.43 3.137)" fill="none" stroke="#fff" stroke-width="0.5"/>
        <line id="Line_28" data-name="Line 28" y1="2.982" x2="3.93" transform="translate(6.506 6.903)" fill="none" stroke="#fff" stroke-width="0.5"/>
        <line id="Line_29" data-name="Line 29" x1="3.205" y1="2.403" transform="translate(2.264 6.983)" fill="none" stroke="#fff" stroke-width="0.5"/>
        <line id="Line_30" data-name="Line 30" y1="1.282" x2="3.125" transform="translate(7.312 8.905)" fill="none" stroke="#fff" stroke-width="0.5"/>
        <line id="Line_31" data-name="Line 31" x1="2.484" y1="1.282" transform="translate(2.264 8.905)" fill="none" stroke="#fff" stroke-width="0.5"/>
        <path id="Path_99" data-name="Path 99" d="M1.478,0c.814,0,1.743,1.152,1.474,1.474s-2.878.3-2.947,0S.664,0,1.478,0Z" transform="translate(4.59 9.127)" fill="#fff"/>
        <path id="Path_102" data-name="Path 102" d="M1.012,0C-.46,1.646.107.87.107.87" transform="translate(6.534 0)" fill="none" stroke="#fff" stroke-linecap="round" stroke-width="0.5"/>
        <path id="Path_103" data-name="Path 103" d="M0,0C1.147,1.283.7.678.7.678" transform="translate(5.185 0.116)" fill="none" stroke="#fff" stroke-linecap="round" stroke-width="0.5"/>
        <path id="Path_104" data-name="Path 104" d="M.616,0C-.28.948.066.5.066.5" transform="translate(7.575 0.526)" fill="none" stroke="#fff" stroke-linecap="round" stroke-width="0.5"/>
        <path id="Path_105" data-name="Path 105" d="M0,0C.806.669.5.353.5.353" transform="translate(4.457 0.83)" fill="none" stroke="#fff" stroke-linecap="round" stroke-width="0.5"/>
      </g>
    </g>
    <g id="Group_281" data-name="Group 281" transform="translate(-1 1.182) rotate(-3)">
      <g id="Path_332-2" data-name="Path 332" transform="translate(0 0)" fill="#ee2f4e">
        <path d="M 13.940354347229 36.72298431396484 C 12.1856746673584 36.72298431396484 10.43131446838379 35.93849182128906 8.725984573364258 34.39131546020508 C 7.194484710693359 33.00182342529297 5.703794479370117 30.97418403625488 4.415094375610352 28.5275936126709 C 2.073374509811401 24.08185386657715 0.5000145435333252 18.41986274719238 0.5000145435333252 14.43846321105957 C 0.5000145435333252 10.71562385559082 1.949974536895752 7.215433597564697 4.582804679870605 4.5826735496521 C 7.215614795684814 1.949933648109436 10.71585464477539 0.5000136494636536 14.43872451782227 0.5000136494636536 L 14.43874454498291 0.5000136494636536 C 18.16192436218262 0.5000236630439758 21.66225433349609 1.949883699417114 24.29493522644043 4.582523822784424 C 26.9276237487793 7.215153694152832 28.37751388549805 10.71541404724121 28.37751388549805 14.43850326538086 C 28.37752532958984 18.4578742980957 26.7819652557373 23.90932273864746 24.31264495849609 28.32673454284668 C 22.98355484008789 30.7043628692627 21.4371452331543 32.70864486694336 19.84059524536133 34.12290191650391 C 18.06781387329102 35.69327545166016 16.23732376098633 36.56204223632812 14.39998435974121 36.70509338378906 C 14.24745464324951 36.71696472167969 14.09281444549561 36.72298431396484 13.940354347229 36.72298431396484 Z" stroke="none"/>
        <path d="M 14.43872451782227 1.000015258789062 C 10.84940528869629 1.000015258789062 7.474723815917969 2.397922515869141 4.93635368347168 4.936233520507812 C 2.397964477539062 7.474554061889648 1.000015258789062 10.84917449951172 1.000015258789062 14.43846321105957 C 1.000024795532227 18.34591293334961 2.550214767456055 23.91426467895508 4.857484817504883 28.29457473754883 C 6.119295120239258 30.69011306762695 7.573175430297852 32.67027282714844 9.061954498291016 34.02100372314453 C 10.67242431640625 35.48213195800781 12.31375503540039 36.22298431396484 13.940354347229 36.22298431396484 C 14.07991504669189 36.22298431396484 14.22150421142578 36.21747207641602 14.36117458343506 36.20660400390625 C 16.08757400512695 36.07219314575195 17.81956481933594 35.24521255493164 19.5090446472168 33.74863433837891 C 21.06405448913574 32.37117385864258 22.57419395446777 30.41194343566895 23.87619400024414 28.082763671875 C 26.30690383911133 23.73443412780762 27.87751388549805 18.37873458862305 27.87751388549805 14.43850326538086 C 27.87751388549805 10.84896278381348 26.47963523864746 7.474273681640625 23.94138526916504 4.936073303222656 C 21.40313339233398 2.397872924804688 18.02835464477539 1.000015258789062 14.43872451782227 1.000015258789062 M 14.4387264251709 1.52587890625e-05 C 14.43921279907227 1.52587890625e-05 14.43825817108154 1.52587890625e-05 14.43874454498291 1.52587890625e-05 C 22.41304397583008 2.288818359375e-05 28.87750434875488 6.464363098144531 28.87751388549805 14.43850326538086 C 28.87752532958984 22.41265487670898 22.68124389648438 36.56186294555664 14.43879413604736 37.20358276367188 C 14.27227592468262 37.21654891967773 14.10516738891602 37.22298812866211 13.94035339355469 37.22298812866211 C 5.94709587097168 37.22298812866211 2.47955322265625e-05 22.25150489807129 1.52587890625e-05 14.43846321105957 C 3.814697265625e-06 6.464799880981445 6.465097427368164 1.52587890625e-05 14.4387264251709 1.52587890625e-05 Z" stroke="none" fill="#fff"/>
      </g>
    </g>
    <g id="slide" transform="translate(4.438 6.345)">
      <path id="Path_266" data-name="Path 266" d="M18.082,10.415H16.158L6.112,0H0V2.932H4.94L14.986,13.347h4.4V11.765Zm.734,2.344H15.221L5.176,2.344H4.953V1.158H4.385V2.344H.568V.589h.757V1.668h.568V.589H5.877l9.879,10.242v1.238h.568V11h1.522l.969,1.005Zm0,0" transform="translate(0 3.794)" fill="#fff"/>
      <path id="Path_267" data-name="Path 267" d="M3.761,1.93V1.881A1.881,1.881,0,1,0,0,1.881V1.93H.589V1.881a1.292,1.292,0,1,1,2.584,0V1.93Zm0,0" transform="translate(1.374 1.374)" fill="#fff"/>
      <path id="Path_268" data-name="Path 268" d="M.589,3.255a2.666,2.666,0,1,1,5.331,0V3.3h.589V3.255A3.254,3.254,0,1,0,0,3.255V3.3H.589Zm0,0" transform="translate(0 0)" fill="#fff"/>
      <path id="Path_269" data-name="Path 269" d="M0,0V.974H3.761V0H3.173V.385H.589V0ZM0,0" transform="translate(1.374 7.217)" fill="#fff"/>
      <path id="Path_270" data-name="Path 270" d="M5.92,9.425H5.135V7.084H1.374V9.335H.589V0H0V9.924H1.963V7.672H4.546v2.341H6.509V1.3H5.92Zm0,0" transform="translate(0 7.217)" fill="#fff"/>
      <path id="Path_271" data-name="Path 271" d="M0,2.407H3.761V0H0ZM.589.589H3.173v1.23H.589Zm0,0" transform="translate(1.374 8.623)" fill="#fff"/>
      <path id="Path_272" data-name="Path 272" d="M0,2.407H3.761V0H0ZM.589.589H3.173v1.23H.589Zm0,0" transform="translate(1.374 11.462)" fill="#fff"/>
      <path id="Path_273" data-name="Path 273" d="M1.121,5.965H.589V0H0V6.553H1.71V1.121H1.121Zm0,0" transform="translate(7.685 10.588)" fill="#fff"/>
      <path id="Path_274" data-name="Path 274" d="M1.121,2.675H.589V0H0V3.264H1.71V1.121H1.121Zm0,0" transform="translate(10.847 13.877)" fill="#fff"/>
      <path id="Path_275" data-name="Path 275" d="M6.035,6.451,1.388,1.8,1.8,1.388,6.451,6.035ZM1.11,1.526.694,1.11,1.11.694l.416.416ZM.416.833,0,.416.416,0,.833.416Zm0,0" transform="translate(7.125 6.726)" fill="#fff"/>
    </g>
  </g>
</svg>
