<svg xmlns="http://www.w3.org/2000/svg" xmlns:xlink="http://www.w3.org/1999/xlink" width="40" height="50" viewBox="0 0 40 50">
  <defs>
    <clipPath id="clip-atrakcie-icon-velka_3">
      <rect width="40" height="50"/>
    </clipPath>
  </defs>
  <g id="atrakcie-icon-velka_3" data-name="atrakcie-icon-velka – 3" clip-path="url(#clip-atrakcie-icon-velka_3)">
    <g id="Group_286" data-name="Group 286" transform="translate(2.559 4.137)">
      <g id="Group_257" data-name="Group 257" transform="translate(0 0)">
        <g id="Path_332" data-name="Path 332" transform="translate(0 0)" fill="#ee2f4e">
          <path d="M 13.33659362792969 34.61176681518555 C 11.79153347015381 34.61176681518555 10.2310733795166 33.90675735473633 8.698573112487793 32.51632690429688 C 7.277973175048828 31.22743797302246 5.890243053436279 29.33709716796875 4.685403347015381 27.04966735839844 C 2.481053113937378 22.86462783813477 1.000003218650818 17.54541778564453 1.000003218650818 13.81348705291748 C 1.000003218650818 10.39088726043701 2.332833290100098 7.173137187957764 4.752983093261719 4.752986907958984 C 7.173123359680176 2.332837104797363 10.3908634185791 0.9999971389770508 13.81346321105957 0.9999971389770508 C 17.23606300354004 0.9999971389770508 20.45380401611328 2.332837104797363 22.87395286560059 4.752986907958984 C 25.29409408569336 7.173137187957764 26.62692260742188 10.39088726043701 26.62692260742188 13.81348705291748 C 26.62692260742188 17.57631683349609 25.12648391723633 22.69190788269043 22.80437278747559 26.84604644775391 C 21.56109237670898 29.07021713256836 20.11949348449707 30.94073677062988 18.63542366027832 32.25538635253906 C 17.02632331848145 33.6807975769043 15.37786293029785 34.46836853027344 13.73584365844727 34.59621810913086 C 13.60333347320557 34.60652542114258 13.46900367736816 34.61176681518555 13.33659362792969 34.61176681518555 Z" stroke="none"/>
          <path d="M 13.81346321105957 1.999996185302734 C 10.65797233581543 1.999996185302734 7.691352844238281 3.228816986083984 5.460092544555664 5.460086822509766 C 3.228822708129883 7.691366195678711 2.000003814697266 10.65799713134766 2.000003814697266 13.8134880065918 C 2.000003814697266 17.39752769470215 3.434743881225586 22.52945709228516 5.570173263549805 26.58364677429199 C 7.922752380371094 31.05011749267578 10.75351333618164 33.61176681518555 13.33659362792969 33.61176681518555 C 13.44314289093018 33.61176681518555 13.55136299133301 33.60754776000977 13.65821361541748 33.59922790527344 C 15.07834339141846 33.4886589050293 16.52982330322266 32.78467559814453 17.97233200073242 31.5068473815918 C 19.37331390380859 30.26579666137695 20.74237251281738 28.48539733886719 21.93149375915527 26.35811614990234 C 23.05346298217773 24.35095596313477 23.99557304382324 22.08109664916992 24.65596389770508 19.79390716552734 C 25.29117393493652 17.59392738342285 25.62692260742188 15.52593803405762 25.62692260742188 13.8134880065918 C 25.62692260742188 10.65798759460449 24.39811325073242 7.691366195678711 22.16684341430664 5.460086822509766 C 19.93557357788086 3.228816986083984 16.96895217895508 1.999996185302734 13.81346321105957 1.999996185302734 M 13.81346321105957 -3.814697265625e-06 C 21.44243240356445 -3.814697265625e-06 27.62692260742188 6.184516906738281 27.62692260742188 13.8134880065918 C 27.62692260742188 21.44247817993164 21.6989631652832 34.9792366027832 13.81346321105957 35.59319686889648 C 13.65415573120117 35.60559844970703 13.49427127838135 35.61176300048828 13.336594581604 35.61176300048828 C 5.689487457275391 35.61176300048828 3.814697265625e-06 21.28835105895996 3.814697265625e-06 13.8134880065918 C 3.814697265625e-06 6.184516906738281 6.184503555297852 -3.814697265625e-06 13.81346321105957 -3.814697265625e-06 Z" stroke="none" fill="#fff"/>
        </g>
      </g>
      <g id="Group_258" data-name="Group 258" transform="translate(5.132 5.071)">
        <path id="Path_94" data-name="Path 94" d="M0,0V9.919H3.2v1.749H13.217V9.919h3.6V0Z" transform="translate(0 4.058)" fill="none" stroke="#fff" stroke-width="1"/>
        <g id="Rectangle_48" data-name="Rectangle 48" transform="translate(3.729 15.711)" fill="none" stroke="#fff" stroke-width="1">
          <rect width="8.968" height="1.877" stroke="none"/>
          <rect x="0.5" y="0.5" width="7.968" height="0.877" fill="none"/>
        </g>
        <g id="Rectangle_49" data-name="Rectangle 49" transform="translate(0.027 13.99) rotate(-90)" fill="none" stroke="#fff" stroke-width="0.5">
          <rect width="9.907" height="3.233" stroke="none"/>
          <rect x="0.25" y="0.25" width="9.407" height="2.733" fill="none"/>
        </g>
        <g id="Rectangle_50" data-name="Rectangle 50" transform="translate(13.271 13.99) rotate(-90)" fill="none" stroke="#fff" stroke-width="0.5">
          <rect width="9.907" height="3.546" stroke="none"/>
          <rect x="0.25" y="0.25" width="9.407" height="3.046" fill="none"/>
        </g>
        <path id="Path_95" data-name="Path 95" d="M2.961,0,0,1.826,2.961,3.993,0,5.069,2.961,7.881" transform="translate(0.118 6.109)" fill="none" stroke="#fff" stroke-width="0.5"/>
        <path id="Path_96" data-name="Path 96" d="M2.777,9.874,0,7.062,2.777,5.986,0,3.819,2.777,1.993,0,0" transform="translate(13.674 4.012)" fill="none" stroke="#fff" stroke-width="0.5"/>
        <g id="Rectangle_51" data-name="Rectangle 51" transform="translate(3.208 2.154)" fill="none" stroke="#fff" stroke-width="0.5">
          <rect width="10.324" height="1.877" stroke="none"/>
          <rect x="0.25" y="0.25" width="9.824" height="1.377" fill="none"/>
        </g>
        <path id="Path_97" data-name="Path 97" d="M0,0" transform="translate(13.271 13.99)" fill="none" stroke="#fff" stroke-width="1"/>
        <path id="Path_98" data-name="Path 98" d="M0,0" transform="translate(20.96 16.669)" fill="none" stroke="#fff" stroke-width="1"/>
        <g id="Rectangle_52" data-name="Rectangle 52" transform="translate(1.644 13.938)" fill="#fff" stroke="#fff" stroke-width="0.5">
          <rect width="13.557" height="1.877" stroke="none"/>
          <rect x="0.25" y="0.25" width="13.057" height="1.377" fill="none"/>
        </g>
        <line id="Line_23" data-name="Line 23" y1="8.816" x2="4.723" transform="translate(8.469 4.051)" fill="none" stroke="#fff" stroke-width="0.5"/>
        <path id="Path_106" data-name="Path 106" d="M4.595,8.2,0,0" transform="translate(3.26 4.084)" fill="none" stroke="#fff" stroke-width="0.5"/>
        <line id="Line_25" data-name="Line 25" x1="2.374" y1="8.058" transform="translate(5.867 4.084)" fill="none" stroke="#fff" stroke-width="0.5"/>
        <line id="Line_26" data-name="Line 26" y1="7.926" x2="2.19" transform="translate(8.474 4.084)" fill="none" stroke="#fff" stroke-width="0.5"/>
        <line id="Line_27" data-name="Line 27" y1="7.926" x2="0.104" transform="translate(8.37 4.084)" fill="none" stroke="#fff" stroke-width="0.5"/>
        <line id="Line_28" data-name="Line 28" y1="3.882" x2="5.115" transform="translate(8.469 8.985)" fill="none" stroke="#fff" stroke-width="0.5"/>
        <line id="Line_29" data-name="Line 29" x1="4.171" y1="3.129" transform="translate(2.947 9.089)" fill="none" stroke="#fff" stroke-width="0.5"/>
        <line id="Line_30" data-name="Line 30" y1="1.669" x2="4.067" transform="translate(9.517 11.592)" fill="none" stroke="#fff" stroke-width="0.5"/>
        <line id="Line_31" data-name="Line 31" x1="3.233" y1="1.669" transform="translate(2.947 11.592)" fill="none" stroke="#fff" stroke-width="0.5"/>
        <path id="Path_99" data-name="Path 99" d="M1.924,0C2.983,0,4.193,1.5,3.842,1.918S.1,2.306.006,1.918.865,0,1.924,0Z" transform="translate(5.975 11.88)" fill="#fff"/>
        <path id="Path_102" data-name="Path 102" d="M1.317,0C-.6,2.143.14,1.132.14,1.132" transform="translate(8.505 0)" fill="none" stroke="#fff" stroke-linecap="round" stroke-width="0.5"/>
        <path id="Path_103" data-name="Path 103" d="M0,0C1.493,1.671.917.883.917.883" transform="translate(6.748 0.151)" fill="none" stroke="#fff" stroke-linecap="round" stroke-width="0.5"/>
        <path id="Path_104" data-name="Path 104" d="M.8,0C-.365,1.235.086.652.086.652" transform="translate(9.86 0.685)" fill="none" stroke="#fff" stroke-linecap="round" stroke-width="0.5"/>
        <path id="Path_105" data-name="Path 105" d="M0,0C1.05.87.646.46.646.46" transform="translate(5.802 1.08)" fill="none" stroke="#fff" stroke-linecap="round" stroke-width="0.5"/>
      </g>
    </g>
    <g id="Group_287" data-name="Group 287" transform="translate(-0.073 1.967) rotate(-3)">
      <g id="Path_332-2" data-name="Path 332" transform="translate(0 0)" fill="#ee2f4e">
        <path d="M 18.14537811279297 47.45269012451172 C 15.95084762573242 47.45269012451172 13.7462272644043 46.46200180053711 11.59273719787598 44.50815200805664 C 9.629097938537598 42.7265510559082 7.714447498321533 40.1203498840332 6.055797576904297 36.97130966186523 C 3.031767606735229 31.23003959655762 0.9999975562095642 23.92529106140137 0.9999975562095642 18.79437065124512 C 0.9999975562095642 14.04132080078125 2.85091757774353 9.572760581970215 6.211797714233398 6.211850643157959 C 9.572677612304688 2.850940465927124 14.04118728637695 1.000000596046448 18.7941780090332 1.000000596046448 C 23.54717826843262 1.000000596046448 28.01569747924805 2.850940465927124 31.37657737731934 6.211850643157959 C 34.73745727539062 9.572760581970215 36.58837890625 14.04132080078125 36.58837890625 18.79437065124512 C 36.58837890625 23.9710807800293 34.52892684936523 31.00031089782715 31.34168815612793 36.70217132568359 C 29.63058662414551 39.76327133178711 27.64303779602051 42.34075927734375 25.59388732910156 44.15599060058594 C 23.34452819824219 46.14859008789062 21.0306568145752 47.25027084350586 18.71656799316406 47.43045043945312 C 18.52700805664062 47.44520950317383 18.3348274230957 47.45269012451172 18.14537811279297 47.45269012451172 Z" stroke="none"/>
        <path d="M 18.7941780090332 2 C 14.30829811096191 2 10.09090805053711 3.746921539306641 6.918907165527344 6.918949127197266 C 3.746898651123047 10.09099197387695 1.999996185302734 14.30842971801758 1.999996185302734 18.79437065124512 C 1.999996185302734 23.77740097045898 3.985458374023438 30.89487075805664 6.940567016601562 36.50529098510742 C 8.545448303222656 39.55223083496094 10.38649749755859 42.06348037719727 12.26468849182129 43.76755142211914 C 14.22845840454102 45.54928207397461 16.20700836181641 46.45269012451172 18.14537811279297 46.45269012451172 C 18.30907821655273 46.45269012451172 18.47511672973633 46.44622039794922 18.63893699645996 46.4334602355957 C 20.73113822937012 46.27056884765625 22.84802627563477 45.25247192382812 24.9307975769043 43.40745162963867 C 26.89685821533203 41.66582107543945 28.81186676025391 39.17845153808594 30.46879768371582 36.21424102783203 C 32.02175903320312 33.43606185913086 33.32546615600586 30.29522132873535 34.23900604248047 27.13127136230469 C 35.12176895141602 24.07390022277832 35.58837890625 21.1910400390625 35.58837890625 18.79437065124512 C 35.58837890625 14.30842971801758 33.84147644042969 10.09099197387695 30.66946792602539 6.918949127197266 C 27.49746704101562 3.746921539306641 23.28006744384766 2 18.7941780090332 2 M 18.7941780090332 0 C 29.1739387512207 0 37.58837890625 8.414531707763672 37.58837890625 18.79437065124512 C 37.5883674621582 29.17423057556152 29.52296829223633 47.59209060668945 18.79418754577637 48.42742919921875 C 18.57743835449219 48.44430541992188 18.35990905761719 48.45269012451172 18.14537811279297 48.45269012451172 C 7.740947723388672 48.45269012451172 -3.814697265625e-06 28.96453094482422 -3.814697265625e-06 18.79437065124512 C -3.814697265625e-06 8.414531707763672 8.414447784423828 0 18.7941780090332 0 Z" stroke="none" fill="#fff"/>
      </g>
    </g>
    <g id="slide" transform="translate(7.005 8.689)">
      <path id="Path_266" data-name="Path 266" d="M23.536,13.557h-2.5L7.956,0H0V3.817H6.431L19.506,17.374h5.724v-2.06Zm.956,3.051H19.813L6.737,3.051h-.29V1.507H5.708V3.051H.739V.766h.986v1.4h.739V.766H7.649L20.509,14.1V15.71h.739V14.323H23.23l1.262,1.308Zm0,0" transform="translate(0 4.939)" fill="#fff"/>
      <path id="Path_267" data-name="Path 267" d="M4.9,2.512V2.448a2.448,2.448,0,1,0-4.9,0v.064H.766V2.448a1.682,1.682,0,1,1,3.363,0v.064Zm0,0" transform="translate(1.788 1.788)" fill="#fff"/>
      <path id="Path_268" data-name="Path 268" d="M.766,4.236a3.47,3.47,0,1,1,6.94,0V4.3h.766V4.236A4.236,4.236,0,1,0,0,4.236V4.3H.766Zm0,0" transform="translate(0 0)" fill="#fff"/>
      <path id="Path_269" data-name="Path 269" d="M0,0V1.268H4.9V0H4.13V.5H.766V0ZM0,0" transform="translate(1.788 9.395)" fill="#fff"/>
      <path id="Path_270" data-name="Path 270" d="M7.706,12.268H6.684V9.221h-4.9v2.931H.766V0H0V12.918H2.555V9.987H5.918v3.047H8.472V1.687H7.706Zm0,0" transform="translate(0 9.395)" fill="#fff"/>
      <path id="Path_271" data-name="Path 271" d="M0,3.134H4.9V0H0ZM.766.766H4.13v1.6H.766Zm0,0" transform="translate(1.788 11.224)" fill="#fff"/>
      <path id="Path_272" data-name="Path 272" d="M0,3.133H4.9V0H0ZM.766.766H4.13v1.6H.766Zm0,0" transform="translate(1.788 14.92)" fill="#fff"/>
      <path id="Path_273" data-name="Path 273" d="M1.46,7.764H.766V0H0V8.53H2.226V1.46H1.46Zm0,0" transform="translate(10.004 13.782)" fill="#fff"/>
      <path id="Path_274" data-name="Path 274" d="M1.46,3.482H.766V0H0V4.249H2.226V1.46H1.46Zm0,0" transform="translate(14.119 18.064)" fill="#fff"/>
      <path id="Path_275" data-name="Path 275" d="M7.855,8.4,1.806,2.348l.542-.542L8.4,7.855Zm-6.41-6.41L.9,1.445,1.445.9l.542.542Zm-.9-.9L0,.542.542,0l.542.542Zm0,0" transform="translate(9.274 8.755)" fill="#fff"/>
    </g>
  </g>
</svg>
