<svg xmlns="http://www.w3.org/2000/svg" xmlns:xlink="http://www.w3.org/1999/xlink" width="21" height="28" viewBox="0 0 21 28">
  <defs>
    <clipPath id="clip-jedlo">
      <rect width="21" height="28"/>
    </clipPath>
  </defs>
  <g id="jedlo" clip-path="url(#clip-jedlo)">
    <g id="Group_279" data-name="Group 279" transform="translate(-0.109 0.22)">
      <g id="Path_332" data-name="Path 332" transform="translate(0 0)" fill="#ee2f4e">
        <path d="M 9.839577674865723 25.77359199523926 C 8.638737678527832 25.77359199523926 7.43369722366333 25.23270225524902 6.257917404174805 24.16594123840332 C 5.189496994018555 23.19659233093262 4.148147106170654 21.77936172485352 3.246447086334229 20.06747055053711 C 1.603707194328308 16.94873237609863 0.4999971985816956 12.97980117797852 0.4999971985816956 10.1913013458252 C 0.4999971985816956 4.847501277923584 4.847547054290771 0.5000014901161194 10.19140720367432 0.5000014901161194 C 15.5352668762207 0.5000014901161194 19.88281631469727 4.847501277923584 19.88281631469727 10.1913013458252 C 19.88281631469727 13.00506114959717 18.76394653320312 16.82477188110352 17.03235626220703 19.92246055603027 C 16.10220718383789 21.58644104003906 15.02135753631592 22.98789215087891 13.90666675567627 23.97532081604004 C 12.67987728118896 25.06204223632812 11.41682720184326 25.66297149658203 10.15259742736816 25.76140213012695 C 10.0487174987793 25.76949119567871 9.94340705871582 25.77359199523926 9.839577674865723 25.77359199523926 Z" stroke="none"/>
        <path d="M 10.19140720367432 1.000001907348633 C 5.123247146606445 1.000001907348633 0.9999980926513672 5.123201370239258 0.9999980926513672 10.1913013458252 C 0.9999980926513672 12.90585136413574 2.080556869506836 16.78114128112793 3.688827514648438 19.8344612121582 C 4.563636779785156 21.49530029296875 5.568197250366211 22.86505126953125 6.593887329101562 23.79564094543457 C 7.674807548522949 24.77634048461914 8.766817092895508 25.27359199523926 9.839577674865723 25.27359199523926 C 9.93046760559082 25.27359199523926 10.02272701263428 25.27000045776367 10.11378765106201 25.26291084289551 C 11.26706695556641 25.17312240600586 12.43163681030273 24.61398124694824 13.57512664794922 23.60104179382324 C 14.64826774597168 22.65042114257812 15.69284725189209 21.29402160644531 16.59591674804688 19.67849159240723 C 18.28889656066895 16.64988136291504 19.38281631469727 12.92593193054199 19.38281631469727 10.1913013458252 C 19.38281631469727 5.123201370239258 15.25956726074219 1.000001907348633 10.19140720367432 1.000001907348633 M 10.19140720367432 1.9073486328125e-06 C 15.81996726989746 1.9073486328125e-06 20.38281631469727 4.562801361083984 20.38281631469727 10.1913013458252 C 20.38281631469727 15.81980133056641 16.00923728942871 25.80693054199219 10.19140720367432 26.25989151000977 C 10.07387161254883 26.26904296875 9.955912590026855 26.27358818054199 9.839579582214355 26.27358818054199 C 4.197633743286133 26.27358818054199 -1.9073486328125e-06 15.70609092712402 -1.9073486328125e-06 10.1913013458252 C -1.9073486328125e-06 4.562801361083984 4.562847137451172 1.9073486328125e-06 10.19140720367432 1.9073486328125e-06 Z" stroke="none" fill="#fff"/>
      </g>
    </g>
    <g id="restaurant-cutlery" transform="translate(4.432 5.886)">
      <path id="Path_303" data-name="Path 303" d="M1.349,0C.769,0,0,1.561,0,2.753A1.417,1.417,0,0,0,.656,4.165a.865.865,0,0,1,.468.855L.559,10.794a.794.794,0,1,0,1.58,0L1.573,5.02a.865.865,0,0,1,.468-.855A1.417,1.417,0,0,0,2.7,2.753C2.7,1.561,1.959,0,1.349,0Z" transform="translate(0 0)" fill="#fff"/>
      <path id="Path_304" data-name="Path 304" d="M2.514,0a.193.193,0,0,0-.193.194V2.576a.194.194,0,1,1-.389,0V.194A.193.193,0,0,0,1.739,0h0a.193.193,0,0,0-.193.194V2.576a.194.194,0,0,1-.389,0V.194A.193.193,0,0,0,.961,0h0A.193.193,0,0,0,.766.194V2.576a.194.194,0,0,1-.389,0V.194A.193.193,0,0,0,.183,0,.183.183,0,0,0,0,.183v2.57A1.417,1.417,0,0,0,.656,4.165a.865.865,0,0,1,.468.855L.559,10.794a.794.794,0,1,0,1.58,0L1.573,5.02a.865.865,0,0,1,.468-.855A1.417,1.417,0,0,0,2.7,2.753V.183A.183.183,0,0,0,2.514,0Z" transform="translate(4.01 0)" fill="#fff"/>
      <path id="Path_305" data-name="Path 305" d="M1.256,5.509a.132.132,0,0,0,.133-.133V.232A.232.232,0,0,0,1.156,0a.25.25,0,0,0-.24.181L.111,2.989A2.863,2.863,0,0,0,.5,5.4a.252.252,0,0,0,.208.109L.194,10.794a.794.794,0,1,0,1.58,0Z" transform="translate(8.425 0)" fill="#fff"/>
    </g>
  </g>
</svg>
