<svg xmlns="http://www.w3.org/2000/svg" xmlns:xlink="http://www.w3.org/1999/xlink" width="40" height="50" viewBox="0 0 40 50">
  <defs>
    <clipPath id="clip-Jedlo-icon-velka">
      <rect width="40" height="50"/>
    </clipPath>
  </defs>
  <g id="Jedlo-icon-velka" clip-path="url(#clip-Jedlo-icon-velka)">
    <g id="Group_282" data-name="Group 282" transform="translate(-0.109)">
      <g id="Path_332" data-name="Path 332" transform="translate(0 0)" fill="#ee2f4e">
        <path d="M 18.90999221801758 49.49380111694336 C 16.61219215393066 49.49380111694336 14.30514144897461 48.45771026611328 12.05292129516602 46.41430282592773 C 10.00293159484863 44.55437088012695 8.004511833190918 41.83439254760742 6.273691654205322 38.54838943481445 C 3.119341611862183 32.55976104736328 1.000001549720764 24.93940162658691 1.000001549720764 19.58611106872559 C 1.000001549720764 17.07656097412109 1.491281628608704 14.64261150360107 2.460181474685669 12.35186100006104 C 3.396251678466797 10.13876152038574 4.736511707305908 8.150991439819336 6.443761348724365 6.443750858306885 C 8.151001930236816 4.73651123046875 10.13878154754639 3.396241188049316 12.351881980896 2.460180997848511 C 14.64263153076172 1.491271138191223 17.07659149169922 1.000001072883606 19.58614158630371 1.000001072883606 C 22.0956916809082 1.000001072883606 24.5296516418457 1.491271138191223 26.82040214538574 2.460180997848511 C 29.03350067138672 3.396241188049316 31.02129173278809 4.73651123046875 32.72853088378906 6.443750858306885 C 34.43577194213867 8.150980949401855 35.77604293823242 10.13876152038574 36.71210098266602 12.35186100006104 C 37.68099975585938 14.64261150360107 38.17228317260742 17.07656097412109 38.17228317260742 19.58611106872559 C 38.17228317260742 24.98755073547363 36.02395248413086 32.32096099853516 32.69915008544922 38.26884078979492 C 30.91367149353027 41.46297073364258 28.83931159973145 44.15283203125 26.70032119750977 46.04763031005859 C 24.34914207458496 48.13039016723633 21.92947196960449 49.28201293945312 19.50852203369141 49.47050094604492 C 19.30988121032715 49.4859619140625 19.10851097106934 49.49380111694336 18.90999221801758 49.49380111694336 Z" stroke="none"/>
        <path d="M 19.58614158630371 2 C 14.88871192932129 2 10.47244071960449 3.829280853271484 7.150859832763672 7.150852203369141 C 3.829280853271484 10.47243118286133 2 14.88869094848633 2 19.58611106872559 C 2 24.79151153564453 4.073032379150391 32.22457885742188 7.158462524414062 38.08235931396484 C 8.835500717163086 41.26626205444336 10.76033210754395 43.89130020141602 12.72486114501953 45.67369079589844 C 14.7873706817627 47.54498291015625 16.86835098266602 48.49380111694336 18.90999221801758 48.49380111694336 C 19.0827808380127 48.49380111694336 19.25803184509277 48.48698043823242 19.4308910369873 48.4735107421875 C 21.62996101379395 48.30229949951172 23.85265159606934 47.23427200317383 26.0372314453125 45.29909133911133 C 28.09313201904297 43.47789001464844 30.09495162963867 40.87815093994141 31.82627105712891 37.78089904785156 C 33.44775009155273 34.88016128540039 34.8089599609375 31.60088157653809 35.76275253295898 28.29757118225098 C 36.68487167358398 25.10391044616699 37.17228317260742 22.0915412902832 37.17228317260742 19.58611106872559 C 37.17228317260742 14.88869094848633 35.34300231933594 10.47243118286133 32.02142333984375 7.150852203369141 C 28.6998405456543 3.829280853271484 24.28357124328613 2 19.58614158630371 2 M 19.58614158630371 0 C 30.40327072143555 0 39.17228317260742 8.769001007080078 39.17228317260742 19.58611106872559 C 39.17228317260742 30.40322113037109 30.76701164245605 49.59696197509766 19.58614158630371 50.46747970581055 C 19.36025810241699 50.48506927490234 19.1335620880127 50.49380493164062 18.90999031066895 50.49380493164062 C 8.067138671875 50.49380493164062 0 30.1846866607666 0 19.58611106872559 C 0 8.769001007080078 8.769012451171875 0 19.58614158630371 0 Z" stroke="none" fill="#fff"/>
      </g>
    </g>
    <g id="restaurant-cutlery" transform="translate(8.618 10.889)">
      <path id="Path_303" data-name="Path 303" d="M2.592,0C1.478,0,0,3,0,5.292,0,6.8.506,7.621,1.261,8a1.662,1.662,0,0,1,.9,1.643l-1.087,11.1a1.525,1.525,0,1,0,3.036,0L3.023,9.648A1.663,1.663,0,0,1,3.923,8c.755-.384,1.261-1.2,1.261-2.713C5.184,3,3.766,0,2.592,0Z" transform="translate(0 0)" fill="#fff"/>
      <path id="Path_304" data-name="Path 304" d="M4.832,0a.372.372,0,0,0-.372.372V4.951a.374.374,0,1,1-.747,0V.372A.372.372,0,0,0,3.342,0h0a.372.372,0,0,0-.371.372V4.951a.374.374,0,0,1-.747,0V.372A.372.372,0,0,0,1.847,0h0a.372.372,0,0,0-.371.372V4.951a.374.374,0,0,1-.747,0V.372A.372.372,0,0,0,.353,0,.352.352,0,0,0,0,.352v4.94C0,6.8.506,7.621,1.261,8a1.662,1.662,0,0,1,.9,1.643l-1.087,11.1a1.525,1.525,0,1,0,3.036,0L3.024,9.648A1.663,1.663,0,0,1,3.923,8c.755-.384,1.261-1.2,1.261-2.713V.352A.352.352,0,0,0,4.832,0Z" transform="translate(7.706 0)" fill="#fff"/>
      <path id="Path_305" data-name="Path 305" d="M2.414,10.587a.254.254,0,0,0,.255-.255V.447A.447.447,0,0,0,2.222,0a.48.48,0,0,0-.461.347L.213,5.745a5.5,5.5,0,0,0,.756,4.632.485.485,0,0,0,.4.21L.373,20.745a1.525,1.525,0,1,0,3.036,0Z" transform="translate(16.192 0)" fill="#fff"/>
    </g>
  </g>
</svg>
