<svg xmlns="http://www.w3.org/2000/svg" xmlns:xlink="http://www.w3.org/1999/xlink" width="67" height="101" viewBox="0 0 67 101">
  <defs>
    <clipPath id="clip-asdads_1">
      <rect width="67" height="101"/>
    </clipPath>
  </defs>
  <g id="asdads_1" data-name="asdads – 1" clip-path="url(#clip-asdads_1)">
    <g id="Group_267" data-name="Group 267" transform="translate(-539 -171.767)">
      <path id="Path_48" data-name="Path 48" d="M-1332.2,364.84a3.993,3.993,0,0,0,3.386-1.9c.835-1.692.516-4.015.715-4.509s.748-.222,1.136,0a7.646,7.646,0,0,1,1.22,1.4s2.054,2.005,2.474-.282-.24-4.726-.793-8.867-.95-3.33-1.267-7.491a77.977,77.977,0,0,1,0-9.151l.251-8.438a19.152,19.152,0,0,1,.7-5.8A47.393,47.393,0,0,1-1320.39,313l.5-2.176h-2.57s-3.341,5.159-3.484,3.968.977-20.41.977-20.41l-3.278-1.335s-.468,20.59-.66,21.558-3.885-3.506-3.885-3.506h-1.524l.206,2.23a31.125,31.125,0,0,1,2.6,2.175c.688.729,1.281,1.968,1.851,4.3s-.37,14.237-.37,14.237.117,3.125,0,3.585-.928-.866-.951,0,.026,12.288-.279,19.091S-1332.421,364.755-1332.2,364.84Z" transform="translate(1899.271 -93.246)" fill="#fff100" stroke="#000" stroke-width="1"/>
      <path id="Path_49" data-name="Path 49" d="M-1346.543,199.97s-1.415,6.122-1.235,7.214.716,2.513,1.959,2.424,1.43-.647,1.778-1.545-.622-8.093-.622-8.093.649,7.053,1.493,7.821,1.084,1.569,2.567,1.181.992-1.428,1.291-2.388-4.082-7.8-4.082-7.8,4.228,6.8,4.464,7.114.845.374,1.685.261,1.13-.06,1.677-.711a2.634,2.634,0,0,0,.511-1.892,1.346,1.346,0,0,0,0-.378c-.132-.594-7.441-5.439-7.441-5.439s6.546,4.243,7.692,4.489a1.759,1.759,0,0,0,2.3-1.061c.311-.94-.455-2.031-1.054-2.7s-7.966-2.094-7.966-2.094,7.073,1.646,7.966,1.367,1.864-.339,2.089-1.119.332-1.024,0-1.681-2.089-1.45-2.089-1.45l-7.043,1.173s7.732-1.389,8.558-2.308a1.974,1.974,0,0,0,0-2.526,6.786,6.786,0,0,0-1.214-.834s-1.217-.016-1.545,0c-.6.029-8.1,5.085-8.1,5.085s8.052-5.1,8.373-6a2.859,2.859,0,0,0-.269-2.534,2.967,2.967,0,0,0-2.44-.5c-.739.137-6.5,7.814-6.5,7.814s6.319-7.543,6.158-8.441-.22-1.451-.937-1.856a2.918,2.918,0,0,0-2.593,0,6.847,6.847,0,0,0-1.592,2.112l-1.954,7.675,1.755-7.931-.262-1.512s-.208-1.6-1.208-1.682-2.176-.2-2.793,1.338.261,7.261.261,7.261-.708-7.159-1.31-7.574a2.016,2.016,0,0,0-2.192-.305,2.847,2.847,0,0,0-1.38,2.033c-.275.845,3.119,6.78,3.119,6.78s-2.921-5.642-3.55-6.083a3.257,3.257,0,0,0-1.811-.491,1.771,1.771,0,0,0-1.751,1.361,3.215,3.215,0,0,0,.42,2.19l5.846,5.125-5.846-4.782s-2.6.348-3.122.911a1.775,1.775,0,0,0-.457,2.251,3.175,3.175,0,0,0,1.04,1.109c2.231,1.136,8.385,2.308,8.385,2.308s-8.262-2.148-9.2-1.8-1.69,1.169-1.584,1.8-.159.8.44,1.421a6.012,6.012,0,0,0,1.958,1.078l8.385-.787a67.43,67.43,0,0,0-7.622,1.126,2.857,2.857,0,0,0-1.8,1.494c-.336.551-.564,2.385.226,2.65a9.356,9.356,0,0,0,2.934,0,50.7,50.7,0,0,0,6.266-3.536,63.254,63.254,0,0,0-5.846,3.782c-1.839,1.474-1.509,2.116-1.509,2.116s-.126,1.119.465,1.444a7.227,7.227,0,0,0,2.026.45l1.627-.45,4.083-5.479a29.913,29.913,0,0,0-3.675,5.479,2.821,2.821,0,0,0,.217,2.9,2.129,2.129,0,0,0,2.4.62,4.741,4.741,0,0,0,1.515-1.585A70.7,70.7,0,0,0-1346.543,199.97Z" transform="translate(1918.845 -8)" fill="#fff" stroke="#000" stroke-width="1"/>
      <g id="Ellipse_1" data-name="Ellipse 1" transform="translate(568.599 182.897)" fill="#fff100" stroke="#000" stroke-width="1">
        <circle cx="4.402" cy="4.402" r="4.402" stroke="none"/>
        <circle cx="4.402" cy="4.402" r="3.902" fill="none"/>
      </g>
      <path id="Path_50" data-name="Path 50" d="M-1346.543,199.97s-1.415,6.122-1.235,7.214.716,2.513,1.959,2.424,1.43-.647,1.778-1.545-.622-8.093-.622-8.093.649,7.053,1.493,7.821,1.084,1.569,2.567,1.181.992-1.428,1.291-2.388-4.082-7.8-4.082-7.8,4.228,6.8,4.464,7.114.845.374,1.685.261,1.13-.06,1.677-.711a2.634,2.634,0,0,0,.511-1.892,1.346,1.346,0,0,0,0-.378c-.132-.594-7.441-5.439-7.441-5.439s6.546,4.243,7.692,4.489a1.759,1.759,0,0,0,2.3-1.061c.311-.94-.455-2.031-1.054-2.7s-7.966-2.094-7.966-2.094,7.073,1.646,7.966,1.367,1.864-.339,2.089-1.119.332-1.024,0-1.681-2.089-1.45-2.089-1.45l-7.043,1.173s7.732-1.389,8.558-2.308a1.974,1.974,0,0,0,0-2.526,6.786,6.786,0,0,0-1.214-.834s-1.217-.016-1.545,0c-.6.029-8.1,5.085-8.1,5.085s8.052-5.1,8.373-6a2.859,2.859,0,0,0-.269-2.534,2.967,2.967,0,0,0-2.44-.5c-.739.137-6.5,7.814-6.5,7.814s6.319-7.543,6.158-8.441-.22-1.451-.937-1.856a2.918,2.918,0,0,0-2.593,0,6.847,6.847,0,0,0-1.592,2.112l-1.954,7.675,1.755-7.931-.262-1.512s-.208-1.6-1.208-1.682-2.176-.2-2.793,1.338.261,7.261.261,7.261-.708-7.159-1.31-7.574a2.016,2.016,0,0,0-2.192-.305,2.847,2.847,0,0,0-1.38,2.033c-.275.845,3.119,6.78,3.119,6.78s-2.921-5.642-3.55-6.083a3.257,3.257,0,0,0-1.811-.491,1.771,1.771,0,0,0-1.751,1.361,3.215,3.215,0,0,0,.42,2.19l5.846,5.125-5.846-4.782s-2.6.348-3.122.911a1.775,1.775,0,0,0-.457,2.251,3.175,3.175,0,0,0,1.04,1.109c2.231,1.136,8.385,2.308,8.385,2.308s-8.262-2.148-9.2-1.8-1.69,1.169-1.584,1.8-.159.8.44,1.421a6.012,6.012,0,0,0,1.958,1.078l8.385-.787a67.43,67.43,0,0,0-7.622,1.126,2.857,2.857,0,0,0-1.8,1.494c-.336.551-.564,2.385.226,2.65a9.356,9.356,0,0,0,2.934,0,50.7,50.7,0,0,0,6.266-3.536,63.254,63.254,0,0,0-5.846,3.782c-1.839,1.474-1.509,2.116-1.509,2.116s-.126,1.119.465,1.444a7.227,7.227,0,0,0,2.026.45l1.627-.45,4.083-5.479a29.913,29.913,0,0,0-3.675,5.479,2.821,2.821,0,0,0,.217,2.9,2.129,2.129,0,0,0,2.4.62,4.741,4.741,0,0,0,1.515-1.585A70.7,70.7,0,0,0-1346.543,199.97Z" transform="translate(1935.5 16.983)" fill="#fff" stroke="#000" stroke-width="1"/>
      <path id="Path_51" data-name="Path 51" d="M-1346.543,199.97s-1.415,6.122-1.235,7.214.716,2.513,1.959,2.424,1.43-.647,1.778-1.545-.622-8.093-.622-8.093.649,7.053,1.493,7.821,1.084,1.569,2.567,1.181.992-1.428,1.291-2.388-4.082-7.8-4.082-7.8,4.228,6.8,4.464,7.114.845.374,1.685.261,1.13-.06,1.677-.711a2.634,2.634,0,0,0,.511-1.892,1.346,1.346,0,0,0,0-.378c-.132-.594-7.441-5.439-7.441-5.439s6.546,4.243,7.692,4.489a1.759,1.759,0,0,0,2.3-1.061c.311-.94-.455-2.031-1.054-2.7s-7.966-2.094-7.966-2.094,7.073,1.646,7.966,1.367,1.864-.339,2.089-1.119.332-1.024,0-1.681-2.089-1.45-2.089-1.45l-7.043,1.173s7.732-1.389,8.558-2.308a1.974,1.974,0,0,0,0-2.526,6.786,6.786,0,0,0-1.214-.834s-1.217-.016-1.545,0c-.6.029-8.1,5.085-8.1,5.085s8.052-5.1,8.373-6a2.859,2.859,0,0,0-.269-2.534,2.967,2.967,0,0,0-2.44-.5c-.739.137-6.5,7.814-6.5,7.814s6.319-7.543,6.158-8.441-.22-1.451-.937-1.856a2.918,2.918,0,0,0-2.593,0,6.847,6.847,0,0,0-1.592,2.112l-1.954,7.675,1.755-7.931-.262-1.512s-.208-1.6-1.208-1.682-2.176-.2-2.793,1.338.261,7.261.261,7.261-.708-7.159-1.31-7.574a2.016,2.016,0,0,0-2.192-.305,2.847,2.847,0,0,0-1.38,2.033c-.275.845,3.119,6.78,3.119,6.78s-2.921-5.642-3.55-6.083a3.257,3.257,0,0,0-1.811-.491,1.771,1.771,0,0,0-1.751,1.361,3.215,3.215,0,0,0,.42,2.19l5.846,5.125-5.846-4.782s-2.6.348-3.122.911a1.775,1.775,0,0,0-.457,2.251,3.175,3.175,0,0,0,1.04,1.109c2.231,1.136,8.385,2.308,8.385,2.308s-8.262-2.148-9.2-1.8-1.69,1.169-1.584,1.8-.159.8.44,1.421a6.012,6.012,0,0,0,1.958,1.078l8.385-.787a67.43,67.43,0,0,0-7.622,1.126,2.857,2.857,0,0,0-1.8,1.494c-.336.551-.564,2.385.226,2.65a9.356,9.356,0,0,0,2.934,0,50.7,50.7,0,0,0,6.266-3.536,63.254,63.254,0,0,0-5.846,3.782c-1.839,1.474-1.509,2.116-1.509,2.116s-.126,1.119.465,1.444a7.227,7.227,0,0,0,2.026.45l1.627-.45,4.083-5.479a29.913,29.913,0,0,0-3.675,5.479,2.821,2.821,0,0,0,.217,2.9,2.129,2.129,0,0,0,2.4.62,4.741,4.741,0,0,0,1.515-1.585A70.7,70.7,0,0,0-1346.543,199.97Z" transform="translate(1901 15.555)" fill="#fff" stroke="#000" stroke-width="1"/>
      <line id="Line_1" data-name="Line 1" x2="2.379" y2="41.638" transform="translate(571.097 224.892)" fill="none" stroke="#000" stroke-linecap="round" stroke-width="1"/>
      <line id="Line_2" data-name="Line 2" x2="0.238" y2="34.738" transform="translate(571.335 230.126)" fill="none" stroke="#000" stroke-linecap="round" stroke-width="1"/>
      <line id="Line_3" data-name="Line 3" x2="1.428" y2="25.221" transform="translate(569.432 243.213)" fill="none" stroke="#000" stroke-linecap="round" stroke-width="1"/>
      <g id="Ellipse_4" data-name="Ellipse 4" transform="translate(585.254 207.88)" fill="#fff100" stroke="#000" stroke-width="1">
        <circle cx="4.402" cy="4.402" r="4.402" stroke="none"/>
        <circle cx="4.402" cy="4.402" r="3.902" fill="none"/>
      </g>
      <g id="Ellipse_5" data-name="Ellipse 5" transform="translate(550.754 206.452)" fill="#fff100" stroke="#000" stroke-width="1">
        <circle cx="4.402" cy="4.402" r="4.402" stroke="none"/>
        <circle cx="4.402" cy="4.402" r="3.902" fill="none"/>
      </g>
    </g>
  </g>
</svg>
