<svg xmlns="http://www.w3.org/2000/svg" xmlns:xlink="http://www.w3.org/1999/xlink" width="113" height="101" viewBox="0 0 113 101">
  <defs>
    <clipPath id="clip-asdads_2">
      <rect width="113" height="101"/>
    </clipPath>
  </defs>
  <g id="asdads_2" data-name="asdads – 2" clip-path="url(#clip-asdads_2)">
    <g id="Group_268" data-name="Group 268" transform="translate(65.716 42.98)">
      <path id="Path_48" data-name="Path 48" d="M-1333.095,334.5a2.3,2.3,0,0,0,1.955-1.1,8.739,8.739,0,0,0,.413-2.6c.115-.285.432-.128.656,0a4.416,4.416,0,0,1,.7.809s1.186,1.158,1.429-.163-.139-2.728-.458-5.119-.549-1.923-.732-4.325a44.976,44.976,0,0,1,0-5.283l.145-4.871a11.049,11.049,0,0,1,.407-3.348,27.365,27.365,0,0,1,2.3-3.929l.288-1.256h-1.484s-1.929,2.978-2.012,2.291.564-11.784.564-11.784l-1.892-.771s-.27,11.887-.381,12.446-2.243-2.024-2.243-2.024h-.88l.119,1.287a17.956,17.956,0,0,1,1.5,1.256,5.477,5.477,0,0,1,1.069,2.483c.329,1.347-.214,8.22-.214,8.22s.067,1.8,0,2.07-.536-.5-.549,0,.015,7.094-.161,11.022A31.711,31.711,0,0,1-1333.095,334.5Z" transform="translate(1348.327 -277.681)" fill="#fff100" stroke="#000" stroke-width="0.7"/>
      <path id="Path_49" data-name="Path 49" d="M-1352.364,192.03a28.218,28.218,0,0,0-.713,4.165c.1.63.413,1.451,1.131,1.4s.826-.373,1.027-.892a30.307,30.307,0,0,0-.359-4.673s.375,4.072.862,4.516.626.906,1.482.682.573-.824.745-1.379-2.357-4.5-2.357-4.5,2.441,3.925,2.578,4.107.488.216.973.151.652-.035.968-.41a1.521,1.521,0,0,0,.3-1.092.787.787,0,0,0,0-.218c-.076-.343-4.3-3.14-4.3-3.14a41.419,41.419,0,0,0,4.441,2.591,1.016,1.016,0,0,0,1.327-.613c.18-.543-.262-1.173-.609-1.559s-4.6-1.209-4.6-1.209a29.335,29.335,0,0,0,4.6.789c.515-.162,1.076-.2,1.206-.646s.192-.591,0-.971-1.206-.837-1.206-.837l-4.066.677s4.464-.8,4.941-1.332a1.139,1.139,0,0,0,0-1.458,3.909,3.909,0,0,0-.7-.482s-.7-.009-.893,0c-.345.017-4.679,2.935-4.679,2.935s4.649-2.943,4.834-3.461a1.649,1.649,0,0,0-.155-1.463,1.713,1.713,0,0,0-1.408-.288c-.427.079-3.754,4.511-3.754,4.511s3.648-4.355,3.555-4.873-.127-.838-.541-1.071a1.684,1.684,0,0,0-1.5,0,3.951,3.951,0,0,0-.919,1.219l-1.128,4.431,1.013-4.579-.151-.873s-.12-.921-.7-.971-1.256-.115-1.612.772.151,4.192.151,4.192-.409-4.133-.757-4.373a1.164,1.164,0,0,0-1.265-.176,1.643,1.643,0,0,0-.8,1.174c-.159.488,1.8,3.914,1.8,3.914a29.594,29.594,0,0,0-2.049-3.512,1.88,1.88,0,0,0-1.045-.284,1.022,1.022,0,0,0-1.011.786,1.856,1.856,0,0,0,.242,1.264l3.375,2.959-3.375-2.761a5.074,5.074,0,0,0-1.8.526,1.024,1.024,0,0,0-.264,1.3,1.829,1.829,0,0,0,.6.64,27.7,27.7,0,0,0,4.841,1.332s-4.77-1.24-5.311-1.037-.975.675-.914,1.037-.092.46.254.82a3.474,3.474,0,0,0,1.131.622l4.841-.455a38.931,38.931,0,0,0-4.4.65,1.648,1.648,0,0,0-1.041.863c-.194.318-.326,1.377.13,1.53a5.4,5.4,0,0,0,1.694,0,29.24,29.24,0,0,0,3.617-2.041,36.524,36.524,0,0,0-3.375,2.183c-1.062.851-.871,1.222-.871,1.222s-.073.646.268.834a4.172,4.172,0,0,0,1.17.26l.94-.26,2.357-3.163a17.279,17.279,0,0,0-2.122,3.163,1.629,1.629,0,0,0,.125,1.676,1.229,1.229,0,0,0,1.384.358,2.735,2.735,0,0,0,.874-.915A40.777,40.777,0,0,0-1352.364,192.03Z" transform="translate(1370.616 -181.186)" fill="#fff" stroke="#000" stroke-width="0.5"/>
      <g id="Ellipse_1" data-name="Ellipse 1" transform="translate(16.115 5.606)" fill="#fff100" stroke="#000" stroke-width="1">
        <circle cx="2.541" cy="2.541" r="2.541" stroke="none"/>
        <circle cx="2.541" cy="2.541" r="2.041" fill="none"/>
      </g>
      <path id="Path_50" data-name="Path 50" d="M-1352.364,192.03a28.218,28.218,0,0,0-.713,4.165c.1.63.413,1.451,1.131,1.4s.826-.373,1.027-.892a30.307,30.307,0,0,0-.359-4.673s.375,4.072.862,4.516.626.906,1.482.682.573-.824.745-1.379-2.357-4.5-2.357-4.5,2.441,3.925,2.578,4.107.488.216.973.151.652-.035.968-.41a1.521,1.521,0,0,0,.3-1.092.787.787,0,0,0,0-.218c-.076-.343-4.3-3.14-4.3-3.14a41.419,41.419,0,0,0,4.441,2.591,1.016,1.016,0,0,0,1.327-.613c.18-.543-.262-1.173-.609-1.559s-4.6-1.209-4.6-1.209a29.335,29.335,0,0,0,4.6.789c.515-.162,1.076-.2,1.206-.646s.192-.591,0-.971-1.206-.837-1.206-.837l-4.066.677s4.464-.8,4.941-1.332a1.139,1.139,0,0,0,0-1.458,3.909,3.909,0,0,0-.7-.482s-.7-.009-.893,0c-.345.017-4.679,2.935-4.679,2.935s4.649-2.943,4.834-3.461a1.649,1.649,0,0,0-.155-1.463,1.713,1.713,0,0,0-1.408-.288c-.427.079-3.754,4.511-3.754,4.511s3.648-4.355,3.555-4.873-.127-.838-.541-1.071a1.684,1.684,0,0,0-1.5,0,3.951,3.951,0,0,0-.919,1.219l-1.128,4.431,1.013-4.579-.151-.873s-.12-.921-.7-.971-1.256-.115-1.612.772.151,4.192.151,4.192-.409-4.133-.757-4.373a1.164,1.164,0,0,0-1.265-.176,1.643,1.643,0,0,0-.8,1.174c-.159.488,1.8,3.914,1.8,3.914a29.594,29.594,0,0,0-2.049-3.512,1.88,1.88,0,0,0-1.045-.284,1.022,1.022,0,0,0-1.011.786,1.856,1.856,0,0,0,.242,1.264l3.375,2.959-3.375-2.761a5.074,5.074,0,0,0-1.8.526,1.024,1.024,0,0,0-.264,1.3,1.829,1.829,0,0,0,.6.64,27.7,27.7,0,0,0,4.841,1.332s-4.77-1.24-5.311-1.037-.975.675-.914,1.037-.092.46.254.82a3.474,3.474,0,0,0,1.131.622l4.841-.455a38.931,38.931,0,0,0-4.4.65,1.648,1.648,0,0,0-1.041.863c-.194.318-.326,1.377.13,1.53a5.4,5.4,0,0,0,1.694,0,29.24,29.24,0,0,0,3.617-2.041,36.524,36.524,0,0,0-3.375,2.183c-1.062.851-.871,1.222-.871,1.222s-.073.646.268.834a4.172,4.172,0,0,0,1.17.26l.94-.26,2.357-3.163a17.279,17.279,0,0,0-2.122,3.163,1.629,1.629,0,0,0,.125,1.676,1.229,1.229,0,0,0,1.384.358,2.735,2.735,0,0,0,.874-.915A40.777,40.777,0,0,0-1352.364,192.03Z" transform="translate(1380.231 -166.762)" fill="#fff" stroke="#000" stroke-width="0.5"/>
      <path id="Path_51" data-name="Path 51" d="M-1352.364,192.03a28.218,28.218,0,0,0-.713,4.165c.1.63.413,1.451,1.131,1.4s.826-.373,1.027-.892a30.307,30.307,0,0,0-.359-4.673s.375,4.072.862,4.516.626.906,1.482.682.573-.824.745-1.379-2.357-4.5-2.357-4.5,2.441,3.925,2.578,4.107.488.216.973.151.652-.035.968-.41a1.521,1.521,0,0,0,.3-1.092.787.787,0,0,0,0-.218c-.076-.343-4.3-3.14-4.3-3.14a41.419,41.419,0,0,0,4.441,2.591,1.016,1.016,0,0,0,1.327-.613c.18-.543-.262-1.173-.609-1.559s-4.6-1.209-4.6-1.209a29.335,29.335,0,0,0,4.6.789c.515-.162,1.076-.2,1.206-.646s.192-.591,0-.971-1.206-.837-1.206-.837l-4.066.677s4.464-.8,4.941-1.332a1.139,1.139,0,0,0,0-1.458,3.909,3.909,0,0,0-.7-.482s-.7-.009-.893,0c-.345.017-4.679,2.935-4.679,2.935s4.649-2.943,4.834-3.461a1.649,1.649,0,0,0-.155-1.463,1.713,1.713,0,0,0-1.408-.288c-.427.079-3.754,4.511-3.754,4.511s3.648-4.355,3.555-4.873-.127-.838-.541-1.071a1.684,1.684,0,0,0-1.5,0,3.951,3.951,0,0,0-.919,1.219l-1.128,4.431,1.013-4.579-.151-.873s-.12-.921-.7-.971-1.256-.115-1.612.772.151,4.192.151,4.192-.409-4.133-.757-4.373a1.164,1.164,0,0,0-1.265-.176,1.643,1.643,0,0,0-.8,1.174c-.159.488,1.8,3.914,1.8,3.914a29.594,29.594,0,0,0-2.049-3.512,1.88,1.88,0,0,0-1.045-.284,1.022,1.022,0,0,0-1.011.786,1.856,1.856,0,0,0,.242,1.264l3.375,2.959-3.375-2.761a5.074,5.074,0,0,0-1.8.526,1.024,1.024,0,0,0-.264,1.3,1.829,1.829,0,0,0,.6.64,27.7,27.7,0,0,0,4.841,1.332s-4.77-1.24-5.311-1.037-.975.675-.914,1.037-.092.46.254.82a3.474,3.474,0,0,0,1.131.622l4.841-.455a38.931,38.931,0,0,0-4.4.65,1.648,1.648,0,0,0-1.041.863c-.194.318-.326,1.377.13,1.53a5.4,5.4,0,0,0,1.694,0,29.24,29.24,0,0,0,3.617-2.041,36.524,36.524,0,0,0-3.375,2.183c-1.062.851-.871,1.222-.871,1.222s-.073.646.268.834a4.172,4.172,0,0,0,1.17.26l.94-.26,2.357-3.163a17.279,17.279,0,0,0-2.122,3.163,1.629,1.629,0,0,0,.125,1.676,1.229,1.229,0,0,0,1.384.358,2.735,2.735,0,0,0,.874-.915A40.777,40.777,0,0,0-1352.364,192.03Z" transform="translate(1360.313 -167.587)" fill="#fff" stroke="#000" stroke-width="0.5"/>
      <line id="Line_1" data-name="Line 1" x2="1.374" y2="24.039" transform="translate(17.557 29.851)" fill="none" stroke="#000" stroke-linecap="round" stroke-width="0.7"/>
      <line id="Line_2" data-name="Line 2" x2="0.137" y2="20.055" transform="translate(17.694 32.873)" fill="none" stroke="#000" stroke-linecap="round" stroke-width="0.7"/>
      <line id="Line_3" data-name="Line 3" x2="0.824" y2="14.561" transform="translate(16.596 40.428)" fill="none" stroke="#000" stroke-linecap="round" stroke-width="0.7"/>
      <g id="Ellipse_4" data-name="Ellipse 4" transform="translate(25.73 20.03)" fill="#fff100" stroke="#000" stroke-width="1">
        <circle cx="2.541" cy="2.541" r="2.541" stroke="none"/>
        <circle cx="2.541" cy="2.541" r="2.041" fill="none"/>
      </g>
      <g id="Ellipse_5" data-name="Ellipse 5" transform="translate(5.812 19.206)" fill="#fff100" stroke="#000" stroke-width="1">
        <circle cx="2.541" cy="2.541" r="2.541" stroke="none"/>
        <circle cx="2.541" cy="2.541" r="2.041" fill="none"/>
      </g>
    </g>
    <g id="Group_269" data-name="Group 269" transform="translate(0 -0.37)">
      <path id="Path_48-2" data-name="Path 48" d="M-1332.137,366.991a4.112,4.112,0,0,0,3.487-1.955c.86-1.743.531-4.136.737-4.644s.77-.229,1.17,0a7.869,7.869,0,0,1,1.256,1.443s2.115,2.065,2.548-.291-.247-4.867-.817-9.132-.979-3.43-1.305-7.715a80.273,80.273,0,0,1,0-9.425l.259-8.69a19.713,19.713,0,0,1,.726-5.973,48.8,48.8,0,0,1,4.1-7.009l.513-2.241h-2.647s-3.442,5.313-3.589,4.087,1.006-21.022,1.006-21.022l-3.376-1.375s-.482,21.206-.68,22.2-4-3.611-4-3.611h-1.57l.212,2.3a31.975,31.975,0,0,1,2.677,2.241c.709.751,1.32,2.027,1.906,4.43s-.381,14.664-.381,14.664.12,3.218,0,3.693-.956-.892-.979,0,.027,12.656-.287,19.663S-1332.364,366.9-1332.137,366.991Z" transform="translate(1359.311 -265.634)" fill="#fff100" stroke="#000" stroke-width="1"/>
      <path id="Path_49-2" data-name="Path 49" d="M-1346.131,200.532s-1.457,6.305-1.272,7.43.737,2.589,2.017,2.5,1.473-.666,1.831-1.591-.641-8.336-.641-8.336.669,7.264,1.538,8.056,1.117,1.616,2.644,1.216,1.021-1.47,1.329-2.46-4.2-8.033-4.2-8.033,4.355,7,4.6,7.327.87.385,1.736.269,1.163-.062,1.727-.732a2.714,2.714,0,0,0,.527-1.949,1.4,1.4,0,0,0,0-.39c-.136-.612-7.663-5.6-7.663-5.6s6.742,4.371,7.922,4.623a1.812,1.812,0,0,0,2.368-1.093c.32-.968-.468-2.092-1.086-2.78s-8.2-2.157-8.2-2.157,7.285,1.7,8.2,1.407,1.919-.349,2.152-1.153.342-1.055,0-1.732-2.152-1.493-2.152-1.493l-7.254,1.208s7.964-1.431,8.814-2.377a2.032,2.032,0,0,0,0-2.6,6.981,6.981,0,0,0-1.25-.859s-1.253-.016-1.592,0c-.615.03-8.347,5.237-8.347,5.237s8.293-5.25,8.624-6.175a2.943,2.943,0,0,0-.277-2.61,3.056,3.056,0,0,0-2.513-.513c-.761.141-6.7,8.048-6.7,8.048s6.508-7.769,6.343-8.694-.227-1.494-.964-1.911a3.005,3.005,0,0,0-2.671,0,7.054,7.054,0,0,0-1.64,2.175l-2.013,7.9,1.807-8.168-.269-1.557s-.214-1.644-1.244-1.732-2.241-.206-2.877,1.378.269,7.478.269,7.478-.728-7.373-1.35-7.8a2.076,2.076,0,0,0-2.257-.314,2.933,2.933,0,0,0-1.422,2.094c-.284.871,3.212,6.983,3.212,6.983s-3.009-5.811-3.656-6.265a3.353,3.353,0,0,0-1.865-.506,1.824,1.824,0,0,0-1.8,1.4,3.311,3.311,0,0,0,.432,2.256l6.021,5.279-6.021-4.925s-2.682.359-3.215.938a1.828,1.828,0,0,0-.471,2.318,3.271,3.271,0,0,0,1.071,1.142c2.3,1.17,8.637,2.377,8.637,2.377s-8.51-2.213-9.475-1.851-1.74,1.2-1.631,1.851-.164.82.453,1.463a6.192,6.192,0,0,0,2.017,1.11l8.637-.811a69.46,69.46,0,0,0-7.851,1.159,2.942,2.942,0,0,0-1.857,1.539c-.346.568-.581,2.456.232,2.73a9.638,9.638,0,0,0,3.022,0,52.227,52.227,0,0,0,6.453-3.641,65.171,65.171,0,0,0-6.021,3.895c-1.894,1.519-1.554,2.179-1.554,2.179s-.13,1.153.479,1.487a7.443,7.443,0,0,0,2.087.463l1.676-.463,4.2-5.643a30.792,30.792,0,0,0-3.785,5.643,2.906,2.906,0,0,0,.224,2.991,2.193,2.193,0,0,0,2.468.639,4.882,4.882,0,0,0,1.56-1.632C-1347.353,207.194-1346.131,200.532-1346.131,200.532Z" transform="translate(1378.693 -181.186)" fill="#fff" stroke="#000" stroke-width="1"/>
      <g id="Ellipse_1-2" data-name="Ellipse 1" transform="translate(28.749 10.002)" fill="#fff100" stroke="#000" stroke-width="1">
        <ellipse cx="4.534" cy="4.534" rx="4.534" ry="4.534" stroke="none"/>
        <ellipse cx="4.534" cy="4.534" rx="4.034" ry="4.034" fill="none"/>
      </g>
      <path id="Path_50-2" data-name="Path 50" d="M-1346.131,200.532s-1.457,6.305-1.272,7.43.737,2.589,2.017,2.5,1.473-.666,1.831-1.591-.641-8.336-.641-8.336.669,7.264,1.538,8.056,1.117,1.616,2.644,1.216,1.021-1.47,1.329-2.46-4.2-8.033-4.2-8.033,4.355,7,4.6,7.327.87.385,1.736.269,1.163-.062,1.727-.732a2.714,2.714,0,0,0,.527-1.949,1.4,1.4,0,0,0,0-.39c-.136-.612-7.663-5.6-7.663-5.6s6.742,4.371,7.922,4.623a1.812,1.812,0,0,0,2.368-1.093c.32-.968-.468-2.092-1.086-2.78s-8.2-2.157-8.2-2.157,7.285,1.7,8.2,1.407,1.919-.349,2.152-1.153.342-1.055,0-1.732-2.152-1.493-2.152-1.493l-7.254,1.208s7.964-1.431,8.814-2.377a2.032,2.032,0,0,0,0-2.6,6.981,6.981,0,0,0-1.25-.859s-1.253-.016-1.592,0c-.615.03-8.347,5.237-8.347,5.237s8.293-5.25,8.624-6.175a2.943,2.943,0,0,0-.277-2.61,3.056,3.056,0,0,0-2.513-.513c-.761.141-6.7,8.048-6.7,8.048s6.508-7.769,6.343-8.694-.227-1.494-.964-1.911a3.005,3.005,0,0,0-2.671,0,7.054,7.054,0,0,0-1.64,2.175l-2.013,7.9,1.807-8.168-.269-1.557s-.214-1.644-1.244-1.732-2.241-.206-2.877,1.378.269,7.478.269,7.478-.728-7.373-1.35-7.8a2.076,2.076,0,0,0-2.257-.314,2.933,2.933,0,0,0-1.422,2.094c-.284.871,3.212,6.983,3.212,6.983s-3.009-5.811-3.656-6.265a3.353,3.353,0,0,0-1.865-.506,1.824,1.824,0,0,0-1.8,1.4,3.311,3.311,0,0,0,.432,2.256l6.021,5.279-6.021-4.925s-2.682.359-3.215.938a1.828,1.828,0,0,0-.471,2.318,3.271,3.271,0,0,0,1.071,1.142c2.3,1.17,8.637,2.377,8.637,2.377s-8.51-2.213-9.475-1.851-1.74,1.2-1.631,1.851-.164.82.453,1.463a6.192,6.192,0,0,0,2.017,1.11l8.637-.811a69.46,69.46,0,0,0-7.851,1.159,2.942,2.942,0,0,0-1.857,1.539c-.346.568-.581,2.456.232,2.73a9.638,9.638,0,0,0,3.022,0,52.227,52.227,0,0,0,6.453-3.641,65.171,65.171,0,0,0-6.021,3.895c-1.894,1.519-1.554,2.179-1.554,2.179s-.13,1.153.479,1.487a7.443,7.443,0,0,0,2.087.463l1.676-.463,4.2-5.643a30.792,30.792,0,0,0-3.785,5.643,2.906,2.906,0,0,0,.224,2.991,2.193,2.193,0,0,0,2.468.639,4.882,4.882,0,0,0,1.56-1.632C-1347.353,207.194-1346.131,200.532-1346.131,200.532Z" transform="translate(1395.847 -155.455)" fill="#fff" stroke="#000" stroke-width="1"/>
      <path id="Path_51-2" data-name="Path 51" d="M-1346.131,200.532s-1.457,6.305-1.272,7.43.737,2.589,2.017,2.5,1.473-.666,1.831-1.591-.641-8.336-.641-8.336.669,7.264,1.538,8.056,1.117,1.616,2.644,1.216,1.021-1.47,1.329-2.46-4.2-8.033-4.2-8.033,4.355,7,4.6,7.327.87.385,1.736.269,1.163-.062,1.727-.732a2.714,2.714,0,0,0,.527-1.949,1.4,1.4,0,0,0,0-.39c-.136-.612-7.663-5.6-7.663-5.6s6.742,4.371,7.922,4.623a1.812,1.812,0,0,0,2.368-1.093c.32-.968-.468-2.092-1.086-2.78s-8.2-2.157-8.2-2.157,7.285,1.7,8.2,1.407,1.919-.349,2.152-1.153.342-1.055,0-1.732-2.152-1.493-2.152-1.493l-7.254,1.208s7.964-1.431,8.814-2.377a2.032,2.032,0,0,0,0-2.6,6.981,6.981,0,0,0-1.25-.859s-1.253-.016-1.592,0c-.615.03-8.347,5.237-8.347,5.237s8.293-5.25,8.624-6.175a2.943,2.943,0,0,0-.277-2.61,3.056,3.056,0,0,0-2.513-.513c-.761.141-6.7,8.048-6.7,8.048s6.508-7.769,6.343-8.694-.227-1.494-.964-1.911a3.005,3.005,0,0,0-2.671,0,7.054,7.054,0,0,0-1.64,2.175l-2.013,7.9,1.807-8.168-.269-1.557s-.214-1.644-1.244-1.732-2.241-.206-2.877,1.378.269,7.478.269,7.478-.728-7.373-1.35-7.8a2.076,2.076,0,0,0-2.257-.314,2.933,2.933,0,0,0-1.422,2.094c-.284.871,3.212,6.983,3.212,6.983s-3.009-5.811-3.656-6.265a3.353,3.353,0,0,0-1.865-.506,1.824,1.824,0,0,0-1.8,1.4,3.311,3.311,0,0,0,.432,2.256l6.021,5.279-6.021-4.925s-2.682.359-3.215.938a1.828,1.828,0,0,0-.471,2.318,3.271,3.271,0,0,0,1.071,1.142c2.3,1.17,8.637,2.377,8.637,2.377s-8.51-2.213-9.475-1.851-1.74,1.2-1.631,1.851-.164.82.453,1.463a6.192,6.192,0,0,0,2.017,1.11l8.637-.811a69.46,69.46,0,0,0-7.851,1.159,2.942,2.942,0,0,0-1.857,1.539c-.346.568-.581,2.456.232,2.73a9.638,9.638,0,0,0,3.022,0,52.227,52.227,0,0,0,6.453-3.641,65.171,65.171,0,0,0-6.021,3.895c-1.894,1.519-1.554,2.179-1.554,2.179s-.13,1.153.479,1.487a7.443,7.443,0,0,0,2.087.463l1.676-.463,4.2-5.643a30.792,30.792,0,0,0-3.785,5.643,2.906,2.906,0,0,0,.224,2.991,2.193,2.193,0,0,0,2.468.639,4.882,4.882,0,0,0,1.56-1.632C-1347.353,207.194-1346.131,200.532-1346.131,200.532Z" transform="translate(1360.313 -156.925)" fill="#fff" stroke="#000" stroke-width="1"/>
      <line id="Line_1-2" data-name="Line 1" x2="2.451" y2="42.885" transform="translate(31.322 53.255)" fill="none" stroke="#000" stroke-linecap="round" stroke-width="1.5"/>
      <line id="Line_2-2" data-name="Line 2" x2="0.245" y2="35.779" transform="translate(31.567 58.646)" fill="none" stroke="#000" stroke-linecap="round" stroke-width="1.5"/>
      <line id="Line_3-2" data-name="Line 3" x2="1.47" y2="25.976" transform="translate(29.606 72.124)" fill="none" stroke="#000" stroke-linecap="round" stroke-width="1.5"/>
      <g id="Ellipse_4-2" data-name="Ellipse 4" transform="translate(45.903 35.733)" fill="#fff100" stroke="#000" stroke-width="1">
        <ellipse cx="4.534" cy="4.534" rx="4.534" ry="4.534" stroke="none"/>
        <ellipse cx="4.534" cy="4.534" rx="4.034" ry="4.034" fill="none"/>
      </g>
      <g id="Ellipse_5-2" data-name="Ellipse 5" transform="translate(10.369 34.263)" fill="#fff100" stroke="#000" stroke-width="1">
        <ellipse cx="4.534" cy="4.534" rx="4.534" ry="4.534" stroke="none"/>
        <ellipse cx="4.534" cy="4.534" rx="4.034" ry="4.034" fill="none"/>
      </g>
    </g>
  </g>
</svg>
