<svg xmlns="http://www.w3.org/2000/svg" xmlns:xlink="http://www.w3.org/1999/xlink" width="46" height="46" viewBox="0 0 46 46">
  <defs>
    <clipPath id="clip-mmn">
      <rect width="46" height="46"/>
    </clipPath>
  </defs>
  <g id="mmn" clip-path="url(#clip-mmn)">
    <g id="Group_271" data-name="Group 271" transform="translate(-380 -4275.688)">
      <path id="Path_49" data-name="Path 49" d="M-1342.057,206.09s-1.876,8.116-1.637,9.564.949,3.332,2.6,3.214,1.9-.857,2.357-2.048-.825-10.73-.825-10.73.861,9.351,1.98,10.37,1.438,2.08,3.4,1.566,1.315-1.893,1.711-3.167-5.411-10.341-5.411-10.341,5.606,9.014,5.919,9.432,1.12.5,2.234.346,1.5-.08,2.223-.942a3.494,3.494,0,0,0,.678-2.509,1.808,1.808,0,0,0,0-.5c-.175-.788-9.865-7.211-9.865-7.211s8.679,5.626,10.2,5.951,2.636-.161,3.048-1.407-.6-2.693-1.4-3.579-10.561-2.776-10.561-2.776,9.378,2.183,10.561,1.812,2.471-.449,2.77-1.484.44-1.358,0-2.229-2.77-1.922-2.77-1.922l-9.337,1.555s10.252-1.842,11.346-3.059a2.616,2.616,0,0,0,0-3.349,8.989,8.989,0,0,0-1.609-1.106s-1.613-.021-2.049,0c-.792.038-10.744,6.741-10.744,6.741s10.675-6.758,11.1-7.949a3.789,3.789,0,0,0-.356-3.359c-.584-.724-2.255-.842-3.234-.66s-8.62,10.359-8.62,10.359,8.378-10,8.164-11.192-.292-1.923-1.241-2.461a3.868,3.868,0,0,0-3.437,0c-.95.537-2.111,2.8-2.111,2.8l-2.591,10.175,2.326-10.514-.347-2s-.276-2.116-1.6-2.23-2.885-.265-3.7,1.774.346,9.626.346,9.626-.938-9.491-1.737-10.041a2.674,2.674,0,0,0-2.906-.4c-1.184.573-1.465,1.574-1.83,2.7s4.135,8.989,4.135,8.989-3.873-7.481-4.706-8.064a4.317,4.317,0,0,0-2.4-.651,2.347,2.347,0,0,0-2.321,1.8c-.441,1.177.556,2.9.556,2.9l7.751,6.8-7.751-6.34s-3.453.462-4.139,1.208a2.353,2.353,0,0,0-.606,2.984,4.206,4.206,0,0,0,1.379,1.47c2.958,1.506,11.117,3.059,11.117,3.059s-10.953-2.848-12.2-2.382-2.24,1.55-2.1,2.382-.211,1.055.583,1.884a7.972,7.972,0,0,0,2.6,1.429L-1346,201.32s-8.231.83-10.106,1.492a3.786,3.786,0,0,0-2.39,1.981c-.445.731-.748,3.162.3,3.514a12.407,12.407,0,0,0,3.89,0,67.234,67.234,0,0,0,8.307-4.687,83.888,83.888,0,0,0-7.751,5.014c-2.438,1.955-2,2.806-2,2.806s-.167,1.484.616,1.914a9.58,9.58,0,0,0,2.686.6l2.157-.6,5.412-7.263s-3.732,4.48-4.872,7.263a3.74,3.74,0,0,0,.288,3.85,2.822,2.822,0,0,0,3.177.822,6.287,6.287,0,0,0,2.008-2.1C-1343.63,214.665-1342.057,206.09-1342.057,206.09Z" transform="translate(1744.903 4099.627)" fill="#fff" stroke="#000" stroke-width="1"/>
      <g id="Ellipse_1" data-name="Ellipse 1" transform="translate(397.937 4293.688)" fill="#fff100" stroke="#000" stroke-width="1">
        <circle cx="5.836" cy="5.836" r="5.836" stroke="none"/>
        <circle cx="5.836" cy="5.836" r="5.336" fill="none"/>
      </g>
    </g>
  </g>
</svg>
