<svg xmlns="http://www.w3.org/2000/svg" xmlns:xlink="http://www.w3.org/1999/xlink" width="1920" height="400" viewBox="0 0 1920 400">
  <defs>
    <clipPath id="clip-path">
      <rect id="Rectangle_226" data-name="Rectangle 226" width="1920" height="400"/>
    </clipPath>
  </defs>
  <g id="iPhone_X_XS_8" data-name="iPhone X/XS – 8" clip-path="url(#clip-path)">
    <path id="Path_462" data-name="Path 462" d="M1928.6,88.266V-83.293s-3.1,10.141-6.3,10.141-5.789-6.67-5.789-6.67-3.378,12.625-6.751,11.757-5.287-8.881-5.287-8.881-2.174,4.218-5.7,5.624-4.765-2.631-8.755-5.624a13.288,13.288,0,0,0-7.674-2.876s-1.085,6.67-2.676,6.67.406-7.128-3.689-6.67c-.8.089-2.3,6.67-2.3,6.67s-.482-7.128-3.079-6.67-5.482,9.368-7.31,8.5-4.5-8.5-4.5-8.5-2.874,8.5-5.518,8.5-.677-7.851-4.483-5.624-6.484,7.475-10.823,8.881-6.533-3.256-6.533-3.256l-6.388-5.624s-2.812,7.211-5.407,5.624-6.237-8.5-6.237-8.5-4.6,23.86-7.536,23.059-3.277-21.348-5.462-23.059-1,11.757-5.565,11.757-1.884-11.757-4.593-11.757c-.794,0-2.685,8.5-5.694,8.5s-.957-2.887-6.343-8.5-.023,14.327-3.612,14.327-2.54-7-11.446-11.451-4.865,8.881-8.214,8.881-4.178-8.066-7.25-8.881-5.038,5.624-5.038,5.624-1.88,4.662-4.157,3.256,4.409-11.143-4.952-8.881c-1.9.459-3.743,7.426-6.744,8.881-1.71.829,3.146-18.965-3.291-16.7-.5.175.428,4.543,0,7.822-.516,3.94-2.408,7.632-3.694,8.881-1.151,1.115,1.716-14.019-2.974-11.757-1.29.622-.274,9.7-2.508,10.172s-1.607.013-4.469,0c-3.947-.018.579-7.429-.7-10.172-.672-1.446-2.348,5.559-4.686,8.5-.836,1.052-1.751-3.586-3.014-3.957-.6-.164-1.553,3.961-2.192,3.957-2.769-.018-.366-6.431-3.3-8.574s.782,13.2-1.941,14.4-.74-9.994-3.027-11.451-5.694,10.877-10,8.881c-4.544-2.107,0-8.881,0-8.881l-8.485,8.881s-2.01-8.484-4.269-8.881-4.768,7.3-4.768,7.3-2.222,6.17-6.8,6.709c-4.846-.02-1.944-9.315-4.508-11.108-1.682-1.175-4.988,3.807-7.4,2.728-2.366-1.059-.134-6.914-2.754-8.5-2.078-1.258-3.452,12.331-6.213,11.757-4.429-.925-1.986-8.579-5.073-8.881-2.908-.284,1.386,10.467-5.728,8.881-.918-.2,2.8-8.187,1.355-8.881-.347-.166-1.683-1.05-2.624,0-.528.593.645,3.138,0,2.9-1.12-.421,1.046,6.71-4.319,4.4-.9-.386.677-11.4-1.967-7.3-.639-.434-2.471,7.3-2.471,7.3s-3.339,12.318-4.365,6.709,1.366-13.426-.786-12.484c-.889-1.089-2.613,8.519-4.342,7.36-2.171.858-.536-7.735-2.7-10-2.939-3.078-.887,8.138-2.846,8.419s-.92-8.419-.92-8.419l-2.4,1.123-1.169,5.624s-4.2-6.438-5.595-5.624,1.117,12.3-1.433,11.451c-1-.333-2.2-6.6-3.317-8.554-2.122-1.92,2.513,16.5-.939,13.445-.9-.8-2.555-14.5-4.194-14.821s-.44,6.737-3.694,5.775c-.961-.762-.738-6.878-2.563-7.3s.2,9.019-3.253,8.881-1.094-7.36-1.094-7.36-4.739,10.31-6.319,9.93,1.425-8.944,0-9.93c-.4-.277-5.029,19.058-7.712,19.08-3.01.208,5.06-20.211,1.452-26.948-1.411-2.634-3.173,10.665-4.825,11.971s-.2-6.747-1.78-6.747-1.887,8.94-4.542,6.747c-5.373-4.439-2.6-6.747-4.642-6.747s-1.247,6.747-1.247,6.747-.96,6.091-2.26,5.826.011-3.883-2.941-6.886c-.485-.494-.452,5.457-1.4,4.316s-1.031-7.545-2.378-8.881c-.607-.6-1.01,6.47-1.943,5.624-1.055-.958-1.193-2.668-2.619-4.1-.614-.618-.965,8.267-1.86,7.36-1.068-1.082-1.311-7.044-2.672-8.881-.449-.605-.659,2.762-3.3,5.624s-1.66,7.208-3.748,5.826c-.877-.58-.251-8.474-1.45-9.93s-2.135,8.691-3.347,4.1a34.354,34.354,0,0,1-1.621-9.183c-2.8-6.043-2.186,15.244-5.812,15.009-1.4-.091,1.229-8.088-1.574-9.93-.941-.781-1.908,6.96-3.858,5.923-.787-.478,1.126-10.43-.845-12.682-.631-.848-2.064,11.081-3.9,10.863-1.192-.145-.628-3.05-2.058-5.624-1.719-3.083-1.067,10.289-3.046,10.008s-.993-7.392-2.781-8.487-1.374,7.74-2.8,7.36.825-12.7-2.8-15.228c-.869-.606-.781,12.612-2.248,11.971-.719-.315-1.458-10.282-2.585-10.863-.718-.369-3.885,0-3.885,0a9.46,9.46,0,0,1,1.352,4.115c.338,2.716,1.963,7.4,0,6.747-.875-.291-2.061-5.18-4.767-9.183-.568-.841-.5,17.986-1.661,17.4,0,0-1.808-11.738-2.123-13.842s-1.258-1.123-1.258-1.123a4.415,4.415,0,0,0,0-2.435c-3.223-4.807-4.461,18.142-6.477,16.165s.4-11.984-.832-13.73-2.617,8.286-4.059,8.567-.714-9.264-1.711-7.444-2.575,25.386-4.309,23.8c-.361-.33,0-4.011,0-4.011h-1.813l-.058-1.857,1.871-2.1s-2.024-1.577-1.871-1.993.68-17.9,0-17.4-4.528,11.555-2.719,19.394,2.719,9.829,2.719,9.829-4.3,2.269-5.91,0,.438-23.491,0-24.144-2.216,8.367-4.123,8.487c-.473.03.575-5.767-2.449-8.487-.784-.7-2.093,5.088-3.319,4.1-1.25-1,1.691-7.654,0-9.183-1.224,1.131-3.508,13.854-6.429,12.439-1.053-.509,1.4-5.808,0-7.36-2.047-2.267-3.958,11.538-6.716,8.487-.143-.159-.2-9.956-3.911-10.008-1.3-.018-.443,15.733-2.39,15.835-2.026.106-.158-15.813-2.936-15.835-1.52-.012-.846,17.931-2.108,17.931s-1.454-17.85-3.745-17.931c-.392-.014-.4,5.087-4.038,5.624-1.877.277,3.543-8.519,0-6.747-.786.393-1.965,7.039-4.814,11.131-1.136.223-1.161-10.265-2.83-10.008-.886.137-1.025,11.2-2.426,11.378-1.374.178-1.8-11.57-3.555-11.378-4.212.461,1,14.478-2.4,19.788-.577,1.186-1.172-3.953-1.172-3.953s-1.524,3.306-2.065,2.1c-.276-.62.545-4.932,0-6.553-.277-.823-.553-10.086-1.1-11.378-1.876-4.431-1.226,11.875-1.826,13.842s1.495,8.757-.869,7.435c-1.423-.292-1.207-21.208-5.469-22.4-.59-.165.219,6.859-.737,6.747-.581-.07-1.9-6.713-2.814-6.747-.533-.021-1.475,9.959-2.335,10-.792.039-1.418-12.493-2.568-12.439-1.3.061-2.526,15.7-4.21,16.165-.978.27-1.272-9.447-2.581-9.287-1.154.144-1.515,6.334-2.991,6.688-.684.164,1.024-11-.926-11.131-1.231,0-2.176,16.136-3.591,16.959s.035-13.467-.918-13.566c0,0-2.23,9.456-3.292,10.338s-1.187-13.532-2.556-13.73-.7,14.83-1.141,14.965-3.342-11.172-4.675-10.523,1.046,11.033,0,10.523c-1.445-.707-4.491-12.246-6.877-13.842-.626-.418-3.064,13.123-3.99,12.607-1.075-.6,1.327-11.514,0-12.607-.468-.384-3.6,11.907-4.369,11.378-.635-.438-2.6-10.542-3.486-11.378-1.228-1.157-2,11-3.346,10.008-1.009-.743-3.064,3.91-4.542-1.127-.5-1.716,1.92-7.228,0-8.881s.562,15.151-12.564,17.674,7.193-17.674,7.193-17.674l-8.991,5.624s3.4-9.416,0-5.624c-2.632,2.934-10.536,12.359-10.367,10.008s2.811-8.912,1.349-10.008-4.245,10.689-5.433,10.008c-.876-.5-3.927-9.168-5.216-10.008-1.642-1.068-1.609,6.885-3.689,5.624-1.442-.874-2.95-4.277-4.765-5.624-1.507-1.117-5.292,14.017-7,12.607-.761-.63.536-4.864,1.324-10.338.656-4.56.8-10.359,0-11.689-.446-.737-1.893,5.705-3.247,11.689-1.149,5.083-.267,10.935-.952,10.338-2.313-2.033-2.34-12.915-4.555-12.607s-1.021,14.037-7,13.842,1.481-13.842,1.481-13.842-4.772,14.032-10.069,13.842,3.606-13.842,3.606-13.842l-7.518,5.624s.617-5.918-.987-5.624-2.108,17.674-3.524,17.674-.623-24.017-1.551-24.022-2.093,17.725-3.325,17.725-1.6-17.725-1.6-17.725-3.3,24.359-4.346,24.022.432-13.489-.934-15.405-2.867,8.306-4.53,7.739-.846-8.912-2.121-10.008-3.474,12.3-5.224,12.607c-2.272.389,2.579-15.825,0-17.288-1.1-.623-2.337,10.894-5.115,11.2-2.5.172,1.33-7.947,0-8.172s-5.32,7.273-5.32,7.273-5.318,10.807-7.1,9.41,6.384-14.169,2.86-15.034c-1.185-.29-3.978,6.711-5.653,6.523-1.121-.127,4.339-12.753,2.794-12.87-2.218-.572-7.316,11.971-7.316,11.971s-4.711,11.093-5.716,9.41,4.315-10.637,2.735-12.765-2.819,4.674-4.155,3.355.221-9.217-1.186-8.631-3.077,10.637-4.444,10.976.151-10.778-1.022-9.619-2.8,12.437-4.4,14.256-2-6.982-2-6.982.586,12.3-4.6,5.29c-1.447-1.957,1.9-9.816,1.048-10.914s-3.682,6.523-5.3,6.523.305-1.148-1.176-6.523c-.433-1.571-5.552,11.483-6.415,9.046-.995-2.815,2.929-9.046,1.053-9.046s-4.711,13.923-5.634,7.97.96-9.129-1.144-7.97,1.842,17.761-3.992,17.491-.648-23.288-5.733-22.811c-5.588-.558-2.1,13.388-4.346,14.367s-.693-.308-4.818-6.778c-1.275-2-1.949,11.61-3.766,8.645-2.164-3.531-.4-1.186-2.639-8.645-1.053-3.5-2.029,11.541-3.468,6.778s-.068-10.4-2.117-10.7c-1.6-.227-3.158,13.735-4.742,14.148s.332-12.654-1.075-14.148-1.451,12.815-6.537,7.273c-1.226-1.335,1.437-8.681-4.114-9.131s-3.084,12.217-5.361,16.006-1.536-10.088-3.29-10.23.664,9.5-2.443,8.645c-.8-.22-1.52-12.1-2.877-12.563s-1.661,9.716-3.089,10.7-1.534-8.2-3.625-6.778.941,8.694-2.42,10.23c-3.85-2.142-.928-6.419-3.519-10.23-.678-1-1.575,2.885-3.161,3.355-1.065-1.165.391-8.222-2.577-7.273s-.908,11.227-3.748,12.563c-.261-.363-1.952-10.6-1.714-10.914s-4.159,11.915-3.787,12.5-1.06-16.252-1.028-16.006-2.4,9.678-3.252,9.131-2.35-9.056-2.39-9.131c-.185.423-2.74,22.7-3.36,22.256s-.416-27.848-5.9-28.26,0,28.26,0,28.26-5.882-18.36-7.442-18.749,2.257,12.024-1.109,10.914-.649-16.065-2.419-14.421-2.655,20.389-4.462,22.256c-.4.409-3.006-23.3-6.858-24.069s4.6,15.916-2.273,16.235c-3.368.156,1.084-12.563-1.818-12.563s-3.053,18.1-4.761,16.135c-1.2-1.378.277-14.812-1.32-16.135s-2.162,9.356-3.885,7.273c-2.815-3.4-2.31-9.236-3.991-9.131s-1.367,19.7-3.443,20.169.237-15.552-1.2-18.311-4.178,14.022-4.881,12.563c-.815-1.693-.271-6.785-1.408-9.158-.688-1.437-2.64,8.334-3.577,6.378s-.594-3.627-1.752-6.378c-.541-1.285-1.24,10.009-2.675,9.158s-1.671-11.241-3.066-12.563-1.691,13.471-2.529,9.783c-.237-1.044-.843-3-2.122-9.783-.463-2.455-1.816,10.772-2.457,7.273-1.239-6.754-.167-4.729-1.273-15.383-1.4-13.477-2.4,21.729-4.784,22.839s-.173-15-2.735-16.587-.833,14.651-3.043,12.9c-2.87-2.279.047-14.715-1.427-12.9s-2.686,20.023-4.468,20.169-.324-13.469-2.02-14.906-.489,9.837-3.563,9.158c-.913-.2.88-13.1,0-14.421s-3.519,9.131-3.519,9.131.431-13.857-.954-13.23-2.868,19.2-4.528,20.686S926.5-76.732,923.854-78.6s-3.883,7.273-3.883,7.273-1.383,6.646-3.36,8.862.227-12.865-5.3-5.1-3.488-9.56-3.488-9.56-7.537,13.751-10.3,13.251c-.944-.086-1.057-7.475,2.043-14.729,2.062-7.627-5.887,7.191-8.365,7.273s1.126-5.982-3.757-9.131c0,0-1.575,12.462-7.329,9.131-2.768-1.6,3.514-9.673,0-9.131s-5.178,17.623-9.4,17.993,3.755-11.68,3.755-17.993c0-6.086-4.445,13.909-18.325,14.742s0-14.742,0-14.742S848.063-69.762,845.37-69.3s1.447-8.791,0-9.3-4.147,8.372-5.79,7.273c-.644-.431-4.745,8.218-5.7,7.456-1.22-.967,4.148-12.811,2.731-14.729-.562-.759-6.639,13.966-7.486,12.884-.71-.908-1.685-11.479-2.584-12.884-.632-.983-2.97,6.359-3.829,5.057-.545-.826,1.741-5.459,1.143-6.915-.62-1.5-6.84,15.99-8.07,12.659-.745-2.018-.2-8.533-2.11-8.533-1.848,0-2.244,8.617-3.522,8.533s-1.418-7.651-3.084-8.533-1.93,5.572-3.579,5-1.128-9.137-3.016-7.273-2.229,14.729-4.644,14.729S794-73.538,794-73.538s-4.775,9.091-6.367,7.827,2.776-10.545,0-12.884c-.81-.682-3.937,17.044-5.188,16.135-.886-.644,1.245-15.071,0-16.135-2.179-1.859-4.066,14.941-6.988,12.884-1.3-.916-.737-10.616-3.016-10.616s.118,11.173-3.185,10.616-.76-6.924-2.915-10.616c-1.248-2.137-5.414,20.259-7.283,17.661-2.279-3.169,4.28-12.462,2.329-19.928-.581-2.222-5.517,20.522-6.729,18.072-1.314-2.66,2.227-12.017,1.115-18.072-.54-2.936-4.334,19.206-5.368,16.135-2.49-7.411,2.65-17.017-1.916-16.135s-1.958,10.234-3.971,10.8-2.024-7.991-4.079-8.533-2.021,6.933-4.142,6.366-2.248-8.633-4.345-8.633-2.626,9.749-4.043,8.633-2.044-14.97-3.947-13.1-.835,17.663-3.666,20.6-.967-13.054-3.3-13.867,7.045,16.229-6.02,10.616c-1.516-.651,4.18-15.943,2.793-17.345s-7.035,16.23-9.8,17.345,2.241-9.553,0-10.616c-1.531-.726-.981,6.366-3.583,6.366s-.745-9.064-2.587-10.154c-1.258-.744-3.9,15.266-5.612,14.4-2.192-1.1-2.023-22.329-4.933-12.884-1.1-.862-2.348,13.891-3.75,12.884-1.707-1.228,5.609-23.5-2.018-12.884-1-1-6.03,21.144-7.284,19.928-1.493-1.447,1.456-14.058,0-17.661-.865-2.136-7.406,12.806-8.656,10.616-1.377-2.417,3.564-9.352,3.125-14.4-.146-1.669-7.952,16.3-8.59,14.4-1.593-4.787-.764-1.926-2.306-12.884s-3.4,24.582-6.061,25.841.469-20.334-2.089-23.573-2.453,11.183-4.73,10.616S642.5-77.559,640.518-78.6s-1.2,21.281-3.243,19.928-3.493-18.544-5.57-17.661,1.3,13.871-.867,14.3-4.193-19.483-8.211-19.483S620.6-61.3,619.048-62.03c-2.445-1.15-.721-14.7-4.092-18.086-1.625-1.633-2.28,27.538-4.407,26-2.3-1.662.651-17.3-1.964-22.214-1.333-2.5-1.157,16.558-3.046,14.3-2.408-2.887.562-17.386-2.2-23.849-1.112-2.605.135,19.113-2.92,17.139s2.083-16.7-1.96-17.139-5.726,16.309-9.825,17.139c-5.949,1.2-3.005-11.376-8.519-11.376s-8.283,20.966-13.713,14.4,11.488-13.151,2.815-20.167c-1.856-1.5-5.736,1.084-9.266,0-3.7,3.252,2.064,22.842-2.443,22.215-1.424-.2-1.246-20.479-3.321-22.215-1.6-1.332.829,15.285-1.285,14.221-1.208-.609-2.443-12.813-4.128-14.221-.879-.733-2.954,33.124-2.954,33.124s-6.927,14.53-13.573-1.359,3.4-29.4,0-27.4c-.625.369-1.939,5.146-5.577,5.186-.505.006-.417,11.862,0,17.661a37.521,37.521,0,0,0,5.577,13.612c3.548,3.23-4.9.022-5.577,0-1.638-.052-4.014-6.039-5.11-13.612-.994-6.872,1.081-22.737,0-22.846-2.993-.3-3.639,16.961-5.889,17.849s-.945-12.3-3.111-14.295-3.483,6.3-5.554,6.3-1.14-8.707-2.731-6.3.343,14.295-2.773,14.295-4.033-9.387-9.692-14.295-1.09,10.9-4.4,10.9-7-12.16-8.85-10.9-.464,16.195-2.536,17.77-2.118-18.15-6.831-17.77-5.442,24.016-9.592,23.845,7.056-31.093,4.34-31.765-6.92,29.916-8.838,27.212,2.114-16.044,0-19.292c-.619-.949-3.031,9.325-5,8.786s.465-6.9-.93-8.786c-1.268-1.711-4.255,16.291-5.828,14.295-2.17-2.754,2.15-6.424,0-12.664-1.106-3.209-5.612,12.993-6.689,12.664s6.457-25.737,0-17.849c-2.74-2.027-.9,20.842-8.8,22.846s3.655-19.292,3.655-19.292-5.949,9.409-7.155,6.3,11.416-19.227,3.5-17.794c-8.923-.415-10.761,17.194-10.761,17.194s-3.934,10.908-5.245,8.594,3.81-17.042,0-17.849c-1.451-.308-6.868,9.2-11.37,9.855s0-6.3,0-6.3-11.966,15.035-15.28,14.3-.611-12.213-3.281-10.454,4.127,14.986-1.28,15.451-5.57-1.209-13.373-12.991-.777,7.373-3.443,7.994-5.476-5.509-5.476-5.509-3.131-14.179-5-12.34,4.469,17.3,3.226,17.849-3.089-11.222-8.2-15.671c-1.987-1.73,3.892,11.907,2.885,13.211s-2.474-4.414-6.916-8c-1.071-.863,2.047,9.945-6.8,12.179-8,2.019-9.607-11.735-9.988-12.179-7.487-8.73-4.712,16.712-11.754,6.62s-8.516-8.577-8.516-8.577,5.01,9.952,3.065,9.952-5.706-8-5.706-8,2.947,11.5,0,10.454-2.7-10.454-4.518-10.454.979,11.389-1.487,10.454-.879-10.108-2.472-10.454S289.734-58.177,285.7-58.666s7.082-24.066,5.335-25.93-7.3,13.786-10.166,15.424,1.383-8.248-1.3-8.869-4.777,12.519-9.91,11.919c-4.735-.86,1.718-12.534-2.153-11.919s-.754,16.944-8.483,16.1c-2.458-.268-2.154-10.789-4.447-12.179s-1.8,7.11-4.723,6.62-1.984-4.769-4.5-8.577c-.809-1.226-1.584,8.577-3.974,8.577s-5.587-8.577-5.587-8.577-1.381,25.75-6,30.215-7.564.891-7.866,0,6.66-3.564,6.66-3.564-6.961.3-6.66-1.361,7.866-5.277,7.866-5.277-7.866,2.515-7.866,0,7.866-13.11,7.866-13.11-7.866,10.947-7.866,3.05a10.17,10.17,0,0,1,6.66-9.952h-8.7s-.967,4.224-1.612,20.012,6.239,16.542,6.253,16.761-9.269-1.072-10.623-3.979,1.521-10.968,1.49-18.659-2.511-13.648-3.77-12.179S210.97-53.7,210.2-54.234s-.461-21.385-1.654-22.036-.36,16.317-1.924,17.6-1.355-11.206-2.864-12.455-.657,10.162-1.993,7.832-3.354-15.285-4.82-17.15-1.69,10.771-3.253,9.317.183-13.962-2.263-13.475S190-68.746,188.787-69.172s-.306-11.106-2.964-18.788c-2.508-7.244-4.014,27.591-6.436,27.591s1.409-18.812-6.027-20.07-4.516,19.794-11.784,20.07c-2.646.1-5.225-4.824-7.627-12.049-1.434-4.31-4.545,11.392-5.721,6.3-1.684-7.291.3-11.39-3.233-9.952s2.62,33.619-2.323,21.84c-1.261-3-6.066-13.583-8.424-19.883-6.279-16.775-7.135,1.7-7.135,1.7s2.913,18.907-1.345,8.618.962-15.111-1.353-16.639-4.091,12.987-5.768,12.83.2-11.557-1.434-10.6-2.46,16.177-5.314,16.177-2.55-16.177-6.1-16.177.983,15.294-8.1,16.177c-2.481-1.5,2.193-9.093-1.722-14.037-.928-1.172.538,15.589-6.329,9.952s2.527-9.777-1.311-9.952-6.56,11.128-9.554,9.952,4.469-5.042-4.276-9.952c-1.88-1.056-3.2,12.6-9.4,8.466-2.558-1.7-.913-6.259-4.185-8.466-3.886-2.619-7.344,11.54-11.861,8.466-5.859-3.987.229-8.837-3.087-8.466s-7.822,10.487-13.627,9.952-4.67-10.518-9.593-12.092-4.334,7.206-10.1,5.8S-.312-83.854-.312-83.854V88.266Z" transform="translate(0.623 89)" fill="#ee2f4e"/>
    <path id="Path_461" data-name="Path 461" d="M-.623,311.007V519.7s3.083-8.578,6.266-8.578,5.76,5.642,5.76,5.642,3.362-10.678,6.718-9.944,5.261,7.512,5.261,7.512a12.241,12.241,0,0,1,5.677-4.757c3.514-1.189,4.741,2.226,8.712,4.757a14.852,14.852,0,0,0,7.636,2.433s1.079-5.642,2.663-5.642-.4,6.029,3.671,5.642c.8-.075,2.288-5.642,2.288-5.642s.479,6.029,3.064,5.642,5.455-7.924,7.274-7.191,4.476,7.191,4.476,7.191,2.86-7.191,5.491-7.191.673,6.641,4.462,4.757,6.451-6.323,10.769-7.512,6.5,2.754,6.5,2.754l6.357,4.757s2.8-6.1,5.381-4.757,6.206,7.191,6.206,7.191,4.582-20.182,7.5-19.5,3.261,18.057,5.436,19.5.995-9.944,5.538-9.944,1.875,9.944,4.575,9.944c.79,0,2.672-7.191,5.669-7.191s.953,2.442,6.312,7.191.023-12.118,3.594-12.118,2.527,5.922,11.389,9.685,4.841-7.512,8.174-7.512,4.157,6.823,7.214,7.512,5.014-4.757,5.014-4.757,1.87-3.944,4.137-2.754-4.386,9.424,4.927,7.512c1.89-.388,3.725-6.282,6.711-7.512,1.7-.7-3.13,16.041,3.275,14.127.5-.148-.427-3.843,0-6.617a13.81,13.81,0,0,1,3.68-7.512c1.145-.944-1.708,11.858,2.96,9.944,1.283-.526.273-8.209,2.5-8.6s1.6-.011,4.447,0c3.928.016-.576,6.284.7,8.6.668,1.223,2.336-4.7,4.663-7.191.831-.89,1.743,3.033,3,3.347.6.139,1.546-3.351,2.181-3.347,2.755.016.364,5.44,3.282,7.253s-.778-11.161,1.932-12.18.736,8.454,3.013,9.685,5.669-9.2,9.946-7.512c4.522,1.782,0,7.512,0,7.512l8.443-7.512s2,7.177,4.248,7.512,4.744-6.171,4.744-6.171,2.211-5.219,6.763-5.675c4.823.017,1.935,7.879,4.486,9.4,1.674.994,4.963-3.22,7.36-2.307,2.354.9.133,5.849,2.74,7.191,2.068,1.064,3.434-10.43,6.183-9.944,4.407.782,1.976,7.257,5.048,7.512,2.893.24-1.38-8.854,5.7-7.512.913.173-2.785,6.925-1.349,7.512.345.141,1.675.888,2.611,0,.526-.5-.643-2.654,0-2.45,1.114.356-1.041-5.676,4.3-3.721.9.326-.674,9.638,1.957,6.171.637.367,2.459-6.171,2.459-6.171s3.322-10.419,4.342-5.675-1.359,11.356.783,10.558c.884.921,2.6-7.206,4.321-6.226,2.16-.725.533,6.543,2.685,8.462,2.925,2.6.883-6.883,2.832-7.121s.916,7.121.916,7.121l2.393-.95,1.163-4.757s4.177,5.446,5.57,4.757-1.112-10.4,1.426-9.685c.995.281,2.194,5.579,3.3,7.236,2.112,1.625-2.5-13.956.935-11.372.9.677,2.542,12.264,4.177,12.536s.438-5.7,3.68-4.885c.957.644.734,5.818,2.551,6.171s-.2-7.629,3.236-7.512,1.089,6.226,1.089,6.226,4.716-8.721,6.288-8.4-1.418,7.565,0,8.4c.4.234,5-16.12,7.673-16.139,2.995-.176-5.035,17.1-1.445,22.794,1.4,2.228,3.158-9.022,4.8-10.125s.2,5.708,1.771,5.708,1.878-7.563,4.52-5.708c5.346,3.754,2.586,5.708,4.619,5.708s1.24-5.708,1.24-5.708.955-5.153,2.249-4.928-.011,3.284,2.926,5.825c.483.418.45-4.616,1.392-3.651s1.025,6.382,2.367,7.512c.6.509,1.006-5.473,1.934-4.757,1.049.81,1.188,2.257,2.606,3.471.611.523.96-6.993,1.851-6.226,1.062.915,1.3,5.958,2.66,7.512.447.512.655-2.336,3.282-4.757s1.652-6.1,3.73-4.928c.872.491.25,7.168,1.443,8.4s2.124-7.352,3.33-3.471a25.221,25.221,0,0,1,1.613,7.768c2.785,5.112,2.175-12.894,5.784-12.7,1.392.077-1.222,6.842,1.567,8.4.936.661,1.9-5.887,3.839-5.011.784.4-1.121,8.822.841,10.727.628.717,2.054-9.372,3.879-9.187,1.187.123.625,2.58,2.048,4.757,1.711,2.608,1.062-8.7,3.031-8.465s.989,6.252,2.767,7.179,1.367-6.547,2.785-6.226-.821,10.743,2.785,12.88c.864.513.778-10.667,2.237-10.125.716.266,1.451,8.7,2.572,9.188.714.312,3.865,0,3.865,0a7.3,7.3,0,0,1-1.346-3.481c-.336-2.3-1.952-6.261,0-5.708.87.246,2.051,4.382,4.743,7.768.566.711.5-15.213,1.652-14.718,0,0,1.8,9.927,2.113,11.708s1.251.95,1.251.95-.43,1.406,0,2.06c3.207,4.066,4.439-15.345,6.445-13.673s-.4,10.136.829,11.613,2.6-7.009,4.039-7.247.71,7.836,1.7,6.3,2.563-21.472,4.288-20.13c.359.279,0,3.393,0,3.393h1.8l.058,1.571-1.862,1.772s2.014,1.334,1.862,1.686-.676,15.139,0,14.718,4.506-9.773,2.706-16.4-2.706-8.314-2.706-8.314,4.277-1.919,5.88,0-.436,19.869,0,20.422,2.205-7.077,4.1-7.179c.47-.025-.572,4.878,2.437,7.179.78.6,2.083-4.3,3.3-3.471,1.243.85-1.683,6.474,0,7.768,1.217-.957,3.49-11.718,6.4-10.521,1.048.431-1.392,4.913,0,6.226,2.037,1.918,3.939-9.759,6.683-7.179.142.134.2,8.421,3.892,8.465,1.293.015.441-13.307,2.378-13.394,2.016-.089.157,13.375,2.921,13.394,1.513.01.842-15.166,2.1-15.166s1.447,15.1,3.727,15.166c.39.012.4-4.3,4.017-4.757,1.868-.235-3.525,7.206,0,5.708.783-.333,1.954-5.954,4.79-9.415,1.13-.188,1.156,8.683,2.816,8.465.882-.116,1.019-9.47,2.414-9.624,1.368-.151,1.79,9.786,3.538,9.624,4.191-.39-.995-12.246,2.387-16.737.574-1,1.167,3.343,1.167,3.343s1.516-2.8,2.054-1.772c.276.524-.542,4.172,0,5.543.277.7.55,8.531,1.094,9.624,1.867,3.748,1.219-10.044,1.817-11.708s-1.492-7.407.864-6.289c1.416.247,1.2,17.938,5.443,18.947.588.14-.218-5.8.734-5.708.579.059,1.895,5.678,2.8,5.708.53.018,1.467-8.424,2.323-8.462.788-.033,1.411,10.567,2.556,10.521,1.293-.052,2.513-13.278,4.189-13.673.973-.228,1.266,7.991,2.568,7.856,1.149-.121,1.508-5.357,2.976-5.657.68-.138-1.019,9.307.922,9.415,1.225,0,2.165-13.648,3.573-14.344s-.035,11.391.913,11.474c0,0,2.219-8,3.276-8.744s1.182,11.445,2.543,11.613.7-12.543,1.135-12.658,3.325,9.449,4.652,8.9-1.041-9.332,0-8.9c1.438.6,4.47,10.358,6.843,11.708.623.354,3.049-11.1,3.971-10.663,1.07.509-1.321,9.739,0,10.663.465.325,3.581-10.071,4.346-9.624.632.37,2.592,8.916,3.469,9.624,1.221.979,1.989-9.3,3.329-8.465,1,.629,3.048-3.308,4.52.954.5,1.452-1.911,6.114,0,7.512s-.559-12.815,12.5-14.949-7.161,14.949-7.161,14.949l8.947-4.757s-3.382,7.964,0,4.757c2.619-2.482,10.484-10.453,10.315-8.465s-2.8,7.538-1.343,8.465,4.224-9.041,5.407-8.465c.872.426,3.908,7.755,5.19,8.465,1.633.9,1.6-5.824,3.67-4.757,1.434.739,2.935,3.618,4.741,4.757,1.5.945,5.266-11.856,6.962-10.663.757.533-.534,4.115-1.317,8.744-.653,3.857-.8,8.763,0,9.886.444.623,1.884-4.826,3.23-9.886,1.144-4.3.266-9.25.947-8.744,2.3,1.719,2.328,10.924,4.532,10.663s1.015-11.873,6.968-11.708-1.473,11.708-1.473,11.708,4.748-11.868,10.02-11.708-3.589,11.708-3.589,11.708l7.481-4.757s-.614,5.006.983,4.757,2.1-14.949,3.506-14.949.62,20.315,1.544,20.318,2.083-14.992,3.309-14.992,1.591,14.992,1.591,14.992,3.282-20.6,4.325-20.318-.431,11.409.929,13.03,2.854-7.026,4.508-6.546.841,7.538,2.111,8.465,3.456-10.406,5.2-10.663c2.261-.329-2.566,13.385,0,14.623,1.094.527,2.325-9.214,5.089-9.477,2.487-.145-1.323,6.723,0,6.913s5.293-6.152,5.293-6.152,5.292-9.141,7.069-7.959-6.353,11.985-2.846,12.716c1.179.245,3.958-5.677,5.626-5.518,1.116.107-4.318,10.787-2.78,10.886,2.207.484,7.28-10.125,7.28-10.125s4.688-9.382,5.688-7.959-4.294,9-2.721,10.8,2.806-3.954,4.135-2.838-.22,7.8,1.181,7.3,3.062-9,4.422-9.284-.15,9.116,1.016,8.136,2.785-10.519,4.376-12.057,1.989,5.906,1.989,5.906-.583-10.407,4.575-4.475c1.44,1.655-1.89,8.3-1.042,9.231s3.664-5.518,5.271-5.518-.3.971,1.17,5.518c.432,1.329,5.525-9.712,6.382-7.652.995,2.381-2.914,7.652-1.048,7.652s4.688-11.777,5.606-6.742-.955,7.722,1.139,6.742-1.833-15.022,3.973-14.794.645,19.7,5.705,19.3c5.561.472,2.089-11.323,4.325-12.152s.689.261,4.794,5.733c1.268,1.691,1.94-9.819,3.747-7.313,2.153,2.987.4,1,2.627,7.313,1.047,2.959,2.019-9.761,3.451-5.733s.068,8.8,2.106,9.047c1.591.192,3.142-11.617,4.718-11.966s-.33,10.7,1.07,11.966,1.444-10.839,6.5-6.152c1.219,1.13-1.43,7.343,4.094,7.724s3.068-10.333,5.335-13.538,1.529,8.533,3.273,8.653-.66-8.033,2.431-7.313c.8.186,1.513,10.231,2.862,10.626s1.653-8.218,3.074-9.047,1.527,6.934,3.607,5.733-.936-7.354,2.408-8.653c3.83,1.812.923,5.43,3.5,8.653.674.842,1.568-2.44,3.145-2.838,1.06.986-.39,6.955,2.564,6.152s.9-9.5,3.729-10.626c.261.307,1.942,8.962,1.7,9.231s4.139-10.077,3.768-10.571,1.054,13.746,1.023,13.538,2.387-8.186,3.235-7.724,2.338,7.661,2.378,7.724c.185-.358,2.727-19.2,3.344-18.825s.414,23.555,5.868,23.9,0-23.9,0-23.9,5.852,15.53,7.4,15.858-2.246-10.17,1.1-9.231.646,13.588,2.407,12.2,2.642-17.245,4.44-18.825c.4-.346,2.992,19.71,6.824,20.359s-4.575-13.462,2.262-13.732c3.351-.132-1.078,10.626,1.809,10.626S925.7,500.443,927.4,502.1c1.194,1.165-.276,12.528,1.314,13.647s2.151-7.914,3.866-6.152c2.8,2.879,2.3,7.812,3.971,7.724s1.36-16.667,3.427-17.06-.236,13.154,1.193,15.488,4.157-11.86,4.857-10.626c.811,1.432.27,5.739,1.4,7.747.684,1.215,2.627-7.05,3.559-5.395s.591,3.068,1.744,5.395c.538,1.087,1.233-8.467,2.662-7.747s1.663,9.507,3.051,10.626,1.683-11.394,2.517-8.275c.236.883.839,2.538,2.112,8.275.461,2.077,1.806-9.112,2.445-6.152,1.232,5.713.166,4,1.267,13.011,1.393,11.4,2.387-18.379,4.76-19.318s.172,12.687,2.721,14.03.828-12.392,3.028-10.908c2.857,1.928-.047,12.446,1.42,10.908s2.673-16.936,4.446-17.06.322,11.392,2.01,12.608.486-8.321,3.545-7.747c.908.171-.875,11.079,0,12.2s3.5-7.724,3.5-7.724-.429,11.72.949,11.19,2.854-16.237,4.5-17.5-1.146,10.881,1.486,12.458,3.863-6.152,3.863-6.152,1.376-5.622,3.344-7.5-.227,10.881,5.271,4.311,3.471,8.087,3.471,8.087,7.5-11.631,10.253-11.207c.939.073,1.051,6.323-2.033,12.458-2.052,6.451,5.858-6.083,8.324-6.152s-1.12,5.06,3.739,7.724c0,0,1.568-10.54,7.293-7.724,2.754,1.355-3.5,8.182,0,7.724s5.152-14.906,9.354-15.219-3.736,9.879-3.736,15.219c0,5.148,4.423-11.765,18.234-12.469s0,12.469,0,12.469,8.04-9.042,10.72-9.435-1.44,7.436,0,7.865,4.126-7.081,5.761-6.152c.641.365,4.721-6.951,5.674-6.307,1.213.818-4.128,10.835-2.717,12.458.559.642,6.605-11.812,7.449-10.9.706.768,1.676,9.709,2.571,10.9.629.832,2.956-5.379,3.81-4.277.542.7-1.732,4.618-1.138,5.849.617,1.265,6.806-13.524,8.029-10.707.741,1.707.2,7.218,2.1,7.218,1.839,0,2.233-7.289,3.5-7.218s1.411,6.472,3.069,7.218,1.921-4.714,3.561-4.234,1.123,7.729,3,6.152,2.218-12.458,4.621-12.458,1.816,8.182,1.816,8.182,4.751-7.69,6.336-6.621-2.762,8.918,0,10.9c.806.577,3.917-14.416,5.162-13.647.881.545-1.239,12.747,0,13.647,2.168,1.573,4.046-12.637,6.953-10.9,1.293.775.734,8.979,3,8.979s-.117-9.45,3.17-8.979.756,5.857,2.9,8.979c1.242,1.807,5.387-17.135,7.248-14.938,2.268,2.68-4.258,10.54-2.318,16.856.578,1.879,5.489-17.358,6.7-15.286,1.307,2.25-2.216,10.164-1.109,15.286.537,2.483,4.313-16.245,5.341-13.647,2.478,6.269-2.637,14.393,1.907,13.647s1.948-8.657,3.951-9.135,2.014,6.76,4.059,7.218,2.01-5.864,4.122-5.384,2.237,7.3,4.324,7.3,2.614-8.246,4.023-7.3,2.034,12.662,3.928,11.076.831-14.94,3.648-17.421.963,11.041,3.282,11.729-7.009-13.727,5.991-8.979c1.508.551-4.16,13.485-2.779,14.671s7-13.727,9.747-14.671-2.231,8.081,0,8.979c1.523.614.977-5.384,3.565-5.384s.741,7.667,2.574,8.589c1.251.629,3.879-12.912,5.584-12.183,2.181.933,2.012,18.886,4.908,10.9,1.094.729,2.336-11.749,3.732-10.9,1.7,1.038-5.582,19.876,2.008,10.9.995.843,6-17.884,7.249-16.856,1.486,1.224-1.449,11.89,0,14.938.861,1.807,7.37-10.831,8.613-8.979,1.371,2.044-3.546,7.911-3.109,12.183.145,1.412,7.912-13.79,8.547-12.183,1.584,4.049.76,1.629,2.295,10.9s3.388-20.792,6.031-21.857-.466,17.2,2.079,19.939,2.441-9.458,4.706-8.979,2.381,10.016,4.356,10.9,1.193-18,3.227-16.856,3.481,15.685,5.543,14.938-1.293-11.732.862-12.093,4.177,16.479,8.171,16.479,2.021-17.1,3.568-16.479c2.433.973.718,12.432,4.072,15.3,1.617,1.381,2.269-23.292,4.385-22,2.288,1.406-.647,14.631,1.954,18.789,1.326,2.118,1.151-14.005,3.031-12.093,2.4,2.442-.559,14.705,2.188,20.172,1.107,2.2-.134-16.166,2.906-14.5s-2.073,14.129,1.95,14.5,5.7-13.8,9.776-14.5c5.92-1.017,2.991,9.622,8.477,9.622s8.241-17.734,13.645-12.183-11.431,11.123-2.8,17.058c1.847,1.27,5.708-.917,9.22,0,3.686-2.751-2.054-19.321,2.431-18.79,1.416.168,1.24,17.321,3.3,18.79,1.591,1.127-.824-12.928,1.279-12.028,1.2.515,2.432,10.837,4.108,12.028.875.62,2.94-28.017,2.94-28.017s6.893-12.289,13.506,1.149-3.382,24.87,0,23.176c.622-.312,1.929-4.353,5.55-4.386.5,0,.415-10.033,0-14.938a29.312,29.312,0,0,0-5.55-11.513c-3.53-2.732,4.874-.018,5.55,0,1.63.044,3.994,5.108,5.084,11.513.99,5.813-1.076,19.232,0,19.324,2.979.254,3.621-14.346,5.86-15.1s.94,10.4,3.1,12.091,3.466-5.33,5.527-5.33,1.135,7.365,2.717,5.33-.341-12.091,2.76-12.091,4.012,7.94,9.648,12.091,1.084-9.223,4.376-9.223,6.969,10.285,8.807,9.223.461-13.7,2.523-15.03,2.108,15.352,6.8,15.03,5.415-20.314,9.548-20.169-7.021,26.3-4.319,26.869,6.886-25.3,8.795-23.017-2.1,13.57,0,16.317c.616.8,3.016-7.888,4.973-7.432s-.463,5.839.926,7.432c1.262,1.447,4.233-13.78,5.8-12.091,2.159,2.33-2.139,5.434,0,10.711,1.1,2.714,5.584-10.99,6.656-10.711s-6.425,21.769,0,15.1c2.726,1.714.9-17.628,8.753-19.324s-3.637,16.317-3.637,16.317,5.92-7.959,7.12-5.33-11.36,16.262-3.481,15.051c8.879.351,10.708-14.543,10.708-14.543s3.915-9.226,5.22-7.27-3.791,14.414,0,15.1c1.444.26,6.834-7.783,11.314-8.336s0,5.33,0,5.33,11.911-12.712,15.213-12.091.609,10.33,3.264,8.842-4.107-12.676,1.273-13.069,5.543,1.023,13.307,10.988.773-6.236,3.426-6.762,5.449,4.66,5.449,4.66,3.116,11.993,4.973,10.437-4.447-14.637-3.21-15.1,3.073,9.492,8.156,13.254c1.977,1.463-3.873-10.071-2.87-11.174s2.462,3.733,6.882,6.763c1.065.73-2.037-8.411,6.763-10.3,7.957-1.708,9.56,9.925,9.938,10.3,7.45,7.384,4.689-14.135,11.7-5.6s8.474,7.255,8.474,7.255-4.985-8.418-3.051-8.418,5.677,6.763,5.677,6.763-2.932-9.73,0-8.842,2.69,8.842,4.5,8.842-.974-9.633,1.48-8.842.875,8.55,2.46,8.842,6.4-13.483,10.413-13.069-7.048,20.356-5.308,21.933,7.261-11.66,10.115-13.046-1.375,6.977,1.293,7.5,4.753-10.589,9.861-10.081c4.712.728-1.71,10.6,2.142,10.081s.75-14.331,8.441-13.619c2.446.226,2.143,9.125,4.425,10.3s1.79-6.014,4.7-5.6,1.974,4.034,4.476,7.255c.8,1.037,1.576-7.255,3.954-7.255s5.56,7.255,5.56,7.255,1.374-21.781,5.973-25.557,7.527-.754,7.827,0-6.626,3.015-6.626,3.015,6.927-.252,6.626,1.152-7.827,4.464-7.827,4.464,7.827-2.127,7.827,0-7.827,11.088-7.827,11.088,7.827-9.259,7.827-2.58-6.626,8.418-6.626,8.418h8.659s.963-3.573,1.6-16.927-6.208-13.991-6.222-14.177,9.223.907,10.571,3.365-1.514,9.276-1.483,15.782,2.5,11.543,3.751,10.3.656-17.273,1.424-16.818.459,18.088,1.646,18.639.358-13.8,1.915-14.89,1.349,9.478,2.851,10.535.653-8.6,1.983-6.625,3.337,12.928,4.8,14.506,1.682-9.11,3.236-7.881-.182,11.809,2.252,11.4,1.417-13.407,2.629-13.046.3,9.394,2.949,15.891c2.5,6.128,3.994-23.337,6.4-23.337s-1.4,15.912,6,16.975,4.494-16.742,11.727-16.975c2.633-.085,5.2,4.081,7.589,10.191,1.427,3.645,4.522-9.635,5.693-5.325,1.676,6.167-.3,9.634,3.217,8.418s-2.607-28.436,2.311-18.473c1.254,2.541,6.036,11.488,8.383,16.818,6.247,14.188,7.1-1.438,7.1-1.438s-2.9-15.992,1.338-7.29-.958,12.781,1.346,14.073,4.07-10.985,5.739-10.852-.2,9.775,1.427,8.97,2.448-13.683,5.287-13.683,2.537,13.683,6.067,13.683-.979-12.936,8.063-13.683c2.469,1.272-2.182,7.691,1.714,11.873.924.992-.535-13.185,6.3-8.418s-2.514,8.27,1.3,8.418,6.528-9.413,9.507-8.418-4.447,4.265,4.255,8.418c1.871.893,3.183-10.654,9.358-7.161,2.545,1.44.908,5.295,4.165,7.161,3.866,2.216,7.307-9.76,11.8-7.161,5.831,3.373-.228,7.475,3.072,7.161s7.783-8.871,13.56-8.418,4.647,8.9,9.548,10.227,4.313-6.1,10.046-4.9,12.893,9.672,12.893,9.672V299.063Z" transform="translate(0.934 -142.987)" fill="#ee2f4e"/>
  </g>
</svg>
