<svg xmlns="http://www.w3.org/2000/svg" xmlns:xlink="http://www.w3.org/1999/xlink" width="1920" height="400" viewBox="0 0 1920 400">
  <defs>
    <clipPath id="clip-iPhone_X_XS_8">
      <rect width="1920" height="400"/>
    </clipPath>
  </defs>
  <g id="iPhone_X_XS_8" data-name="iPhone X/XS – 8" clip-path="url(#clip-iPhone_X_XS_8)">
    <path id="Path_462" data-name="Path 462" d="M1928.6,88.266V-83.293s-3.1,10.141-6.3,10.141-5.789-6.67-5.789-6.67-3.378,12.625-6.751,11.757-5.287-8.881-5.287-8.881-2.174,4.218-5.705,5.624-4.765-2.631-8.755-5.624a13.288,13.288,0,0,0-7.674-2.876s-1.085,6.67-2.676,6.67.406-7.128-3.689-6.67c-.8.089-2.3,6.67-2.3,6.67s-.482-7.128-3.079-6.67-5.482,9.368-7.31,8.5-4.5-8.5-4.5-8.5-2.874,8.5-5.518,8.5-.677-7.851-4.483-5.624-6.484,7.475-10.823,8.881-6.533-3.256-6.533-3.256l-6.388-5.624s-2.812,7.211-5.407,5.624-6.237-8.5-6.237-8.5-4.605,23.86-7.536,23.059-3.277-21.348-5.462-23.059-1,11.757-5.565,11.757-1.884-11.757-4.593-11.757c-.794,0-2.685,8.5-5.694,8.5s-.957-2.887-6.343-8.5-.023,14.327-3.612,14.327-2.54-7-11.446-11.451-4.865,8.881-8.214,8.881-4.178-8.066-7.25-8.881-5.038,5.624-5.038,5.624-1.88,4.662-4.157,3.256,4.409-11.143-4.952-8.881c-1.9.459-3.743,7.426-6.744,8.881-1.71.829,3.146-18.965-3.291-16.7-.5.175.428,4.543,0,7.822-.516,3.94-2.408,7.632-3.694,8.881-1.151,1.115,1.716-14.019-2.974-11.757-1.29.622-.274,9.7-2.508,10.172s-1.607.013-4.469,0c-3.947-.018.579-7.429-.7-10.172-.672-1.446-2.348,5.559-4.686,8.5-.836,1.052-1.751-3.586-3.014-3.957-.6-.164-1.553,3.961-2.192,3.957-2.769-.018-.366-6.431-3.3-8.574s.782,13.2-1.941,14.4-.74-9.994-3.027-11.451-5.694,10.877-10,8.881c-4.544-2.107,0-8.881,0-8.881l-8.485,8.881s-2.01-8.484-4.269-8.881-4.768,7.3-4.768,7.3-2.222,6.17-6.8,6.709c-4.846-.02-1.944-9.315-4.508-11.108-1.682-1.175-4.988,3.807-7.4,2.728-2.366-1.059-.134-6.914-2.754-8.5-2.078-1.258-3.452,12.331-6.213,11.757-4.429-.925-1.986-8.579-5.073-8.881-2.908-.284,1.386,10.467-5.728,8.881-.918-.2,2.8-8.187,1.355-8.881-.347-.166-1.683-1.05-2.624,0-.528.593.645,3.138,0,2.9-1.12-.421,1.046,6.71-4.319,4.4-.9-.386.677-11.4-1.967-7.3-.639-.434-2.471,7.3-2.471,7.3s-3.339,12.318-4.365,6.709,1.366-13.426-.786-12.484c-.889-1.089-2.613,8.519-4.342,7.36-2.171.858-.536-7.735-2.7-10-2.939-3.078-.887,8.138-2.846,8.419s-.92-8.419-.92-8.419l-2.4,1.123-1.169,5.624s-4.2-6.438-5.595-5.624,1.117,12.3-1.433,11.451c-1-.333-2.205-6.6-3.317-8.554-2.122-1.92,2.513,16.5-.939,13.445-.9-.8-2.555-14.5-4.194-14.821s-.44,6.737-3.694,5.775c-.961-.762-.738-6.878-2.563-7.3s.2,9.019-3.253,8.881-1.094-7.36-1.094-7.36-4.739,10.31-6.319,9.93,1.425-8.944,0-9.93c-.4-.277-5.029,19.058-7.712,19.08-3.01.208,5.06-20.211,1.452-26.948-1.411-2.634-3.173,10.665-4.825,11.971s-.2-6.747-1.78-6.747-1.887,8.94-4.542,6.747c-5.373-4.439-2.6-6.747-4.642-6.747s-1.247,6.747-1.247,6.747-.96,6.091-2.26,5.826.011-3.883-2.941-6.886c-.485-.494-.452,5.457-1.4,4.316s-1.031-7.545-2.378-8.881c-.607-.6-1.01,6.47-1.943,5.624-1.055-.958-1.193-2.668-2.619-4.1-.614-.618-.965,8.267-1.86,7.36-1.068-1.082-1.311-7.044-2.672-8.881-.449-.605-.659,2.762-3.3,5.624s-1.66,7.208-3.748,5.826c-.877-.58-.251-8.474-1.45-9.93s-2.135,8.691-3.347,4.1a34.348,34.348,0,0,1-1.621-9.183c-2.8-6.043-2.186,15.244-5.812,15.009-1.4-.091,1.229-8.088-1.574-9.93-.941-.781-1.908,6.96-3.858,5.923-.787-.478,1.126-10.43-.845-12.682-.631-.848-2.064,11.081-3.9,10.863-1.192-.145-.628-3.05-2.058-5.624-1.719-3.083-1.067,10.289-3.046,10.008s-.993-7.392-2.781-8.487-1.374,7.74-2.8,7.36.825-12.7-2.795-15.228c-.869-.606-.781,12.612-2.248,11.971-.719-.315-1.458-10.282-2.585-10.863-.718-.369-3.885,0-3.885,0a9.461,9.461,0,0,1,1.352,4.115c.338,2.716,1.963,7.4,0,6.747-.875-.291-2.061-5.18-4.767-9.183-.568-.841-.5,17.986-1.661,17.4,0,0-1.808-11.738-2.123-13.842s-1.258-1.123-1.258-1.123a4.414,4.414,0,0,0,0-2.435c-3.223-4.807-4.461,18.142-6.477,16.165s.4-11.984-.832-13.73-2.617,8.286-4.059,8.567-.714-9.264-1.711-7.444-2.575,25.386-4.309,23.8c-.361-.33,0-4.011,0-4.011h-1.813l-.058-1.857,1.871-2.1s-2.024-1.577-1.871-1.993.68-17.9,0-17.4-4.528,11.555-2.719,19.394,2.719,9.829,2.719,9.829-4.3,2.269-5.91,0,.438-23.491,0-24.144-2.216,8.367-4.123,8.487c-.473.03.575-5.767-2.449-8.487-.784-.7-2.093,5.088-3.319,4.1-1.25-1,1.691-7.654,0-9.183-1.224,1.131-3.508,13.854-6.429,12.439-1.053-.509,1.4-5.808,0-7.36-2.047-2.267-3.958,11.538-6.716,8.487-.143-.159-.2-9.956-3.911-10.008-1.295-.018-.443,15.733-2.39,15.835-2.026.106-.158-15.813-2.936-15.835-1.52-.012-.846,17.931-2.108,17.931s-1.454-17.85-3.745-17.931c-.392-.014-.4,5.087-4.038,5.624-1.877.277,3.543-8.519,0-6.747-.786.393-1.965,7.039-4.814,11.131-1.136.223-1.161-10.265-2.83-10.008-.886.137-1.025,11.2-2.426,11.378-1.374.178-1.8-11.57-3.555-11.378-4.212.461,1,14.478-2.4,19.788-.577,1.186-1.172-3.953-1.172-3.953s-1.524,3.306-2.065,2.1c-.276-.62.545-4.932,0-6.553-.277-.823-.553-10.086-1.1-11.378-1.876-4.431-1.226,11.875-1.826,13.842s1.495,8.757-.869,7.435c-1.423-.292-1.207-21.208-5.469-22.4-.59-.165.219,6.859-.737,6.747-.581-.07-1.9-6.713-2.814-6.747-.533-.021-1.475,9.959-2.335,10-.792.039-1.418-12.493-2.568-12.439-1.3.061-2.526,15.7-4.21,16.165-.978.27-1.272-9.447-2.581-9.287-1.154.144-1.515,6.334-2.991,6.688-.684.164,1.024-11-.926-11.131-1.231,0-2.176,16.136-3.591,16.959s.035-13.467-.918-13.566c0,0-2.23,9.456-3.292,10.338s-1.187-13.532-2.556-13.73-.7,14.83-1.141,14.965-3.342-11.172-4.675-10.523,1.046,11.033,0,10.523c-1.445-.707-4.491-12.246-6.877-13.842-.626-.418-3.064,13.123-3.99,12.607-1.075-.6,1.327-11.514,0-12.607-.468-.384-3.6,11.907-4.369,11.378-.635-.438-2.6-10.542-3.486-11.378-1.228-1.157-2,11-3.346,10.008-1.009-.743-3.064,3.91-4.542-1.127-.5-1.716,1.92-7.228,0-8.881s.562,15.151-12.564,17.674,7.193-17.674,7.193-17.674l-8.991,5.624s3.4-9.416,0-5.624c-2.632,2.934-10.536,12.359-10.367,10.008s2.811-8.912,1.349-10.008-4.245,10.689-5.433,10.008c-.876-.5-3.927-9.168-5.216-10.008-1.642-1.068-1.609,6.885-3.689,5.624-1.442-.874-2.95-4.277-4.765-5.624-1.507-1.117-5.292,14.017-7,12.607-.761-.63.536-4.864,1.324-10.338.656-4.56.8-10.359,0-11.689-.446-.737-1.893,5.705-3.247,11.689-1.149,5.083-.267,10.935-.952,10.338-2.313-2.033-2.34-12.915-4.555-12.607s-1.021,14.037-7,13.842,1.481-13.842,1.481-13.842-4.772,14.032-10.069,13.842,3.606-13.842,3.606-13.842l-7.518,5.624s.617-5.918-.987-5.624-2.108,17.674-3.524,17.674-.623-24.017-1.551-24.022-2.093,17.725-3.325,17.725-1.6-17.725-1.6-17.725-3.3,24.359-4.346,24.022.432-13.489-.934-15.405-2.867,8.306-4.53,7.739-.846-8.912-2.121-10.008-3.474,12.3-5.224,12.607c-2.272.389,2.579-15.825,0-17.288-1.1-.623-2.337,10.894-5.115,11.2-2.5.172,1.33-7.947,0-8.172s-5.32,7.273-5.32,7.273-5.318,10.807-7.1,9.41,6.384-14.169,2.86-15.034c-1.185-.29-3.978,6.711-5.653,6.523-1.121-.127,4.339-12.753,2.794-12.87-2.218-.572-7.316,11.971-7.316,11.971s-4.711,11.093-5.716,9.41,4.315-10.637,2.735-12.765-2.819,4.674-4.155,3.355.221-9.217-1.186-8.631-3.077,10.637-4.444,10.976.151-10.778-1.022-9.619-2.8,12.437-4.4,14.256-2-6.982-2-6.982.586,12.3-4.6,5.29c-1.447-1.957,1.9-9.816,1.048-10.914s-3.682,6.523-5.3,6.523.305-1.148-1.176-6.523c-.433-1.571-5.552,11.483-6.415,9.046-.995-2.815,2.929-9.046,1.053-9.046s-4.711,13.923-5.634,7.97.96-9.129-1.144-7.97,1.842,17.761-3.992,17.491-.648-23.288-5.733-22.811c-5.588-.558-2.1,13.388-4.346,14.367s-.693-.308-4.818-6.778c-1.275-2-1.949,11.61-3.766,8.645-2.164-3.531-.395-1.186-2.639-8.645-1.053-3.5-2.029,11.541-3.468,6.778s-.068-10.4-2.117-10.7c-1.6-.227-3.158,13.735-4.742,14.148s.332-12.654-1.075-14.148-1.451,12.815-6.537,7.273c-1.226-1.335,1.437-8.681-4.114-9.131s-3.084,12.217-5.361,16.006-1.536-10.088-3.29-10.23.664,9.5-2.443,8.645c-.8-.22-1.52-12.1-2.877-12.563s-1.661,9.716-3.089,10.7-1.534-8.2-3.625-6.778.941,8.694-2.42,10.23c-3.85-2.142-.928-6.419-3.519-10.23-.678-1-1.575,2.885-3.161,3.355-1.065-1.165.391-8.222-2.577-7.273s-.908,11.227-3.748,12.563c-.261-.363-1.952-10.6-1.714-10.914s-4.159,11.915-3.787,12.5-1.06-16.252-1.028-16.006-2.4,9.678-3.252,9.131-2.35-9.056-2.39-9.131c-.185.423-2.74,22.7-3.36,22.256s-.416-27.848-5.9-28.26,0,28.26,0,28.26-5.882-18.36-7.442-18.749,2.257,12.024-1.109,10.914-.649-16.065-2.419-14.421-2.655,20.389-4.462,22.256c-.4.409-3.006-23.3-6.858-24.069s4.6,15.916-2.273,16.235c-3.368.156,1.084-12.563-1.818-12.563s-3.053,18.1-4.761,16.135c-1.2-1.378.277-14.812-1.32-16.135s-2.162,9.356-3.885,7.273c-2.815-3.4-2.31-9.236-3.991-9.131s-1.367,19.7-3.443,20.169.237-15.552-1.2-18.311-4.178,14.022-4.881,12.563c-.815-1.693-.271-6.785-1.408-9.158-.688-1.437-2.64,8.334-3.577,6.378s-.594-3.627-1.752-6.378c-.541-1.285-1.24,10.009-2.675,9.158s-1.671-11.241-3.066-12.563-1.691,13.471-2.529,9.783c-.237-1.044-.843-3-2.122-9.783-.463-2.455-1.816,10.772-2.457,7.273-1.239-6.754-.167-4.729-1.273-15.383-1.4-13.477-2.4,21.729-4.784,22.839s-.173-15-2.735-16.587-.833,14.651-3.043,12.9c-2.87-2.279.047-14.715-1.427-12.9s-2.686,20.023-4.468,20.169-.324-13.469-2.02-14.906-.489,9.837-3.563,9.158c-.913-.2.88-13.1,0-14.421s-3.519,9.131-3.519,9.131.431-13.857-.954-13.23-2.868,19.2-4.528,20.686,1.151-12.865-1.493-14.729-3.883,7.273-3.883,7.273-1.383,6.646-3.36,8.862.227-12.865-5.3-5.1-3.488-9.56-3.488-9.56-7.537,13.751-10.3,13.251c-.944-.086-1.057-7.475,2.043-14.729,2.062-7.627-5.887,7.191-8.365,7.273s1.126-5.982-3.757-9.131c0,0-1.575,12.462-7.329,9.131-2.768-1.6,3.514-9.673,0-9.131s-5.178,17.623-9.4,17.993,3.755-11.68,3.755-17.993c0-6.086-4.445,13.909-18.325,14.742s0-14.742,0-14.742S848.063-69.762,845.37-69.3s1.447-8.791,0-9.3-4.147,8.372-5.79,7.273c-.644-.431-4.745,8.218-5.7,7.456-1.22-.967,4.148-12.811,2.731-14.729-.562-.759-6.639,13.966-7.486,12.884-.71-.908-1.685-11.479-2.584-12.884-.632-.983-2.97,6.359-3.829,5.057-.545-.826,1.741-5.459,1.143-6.915-.62-1.5-6.84,15.99-8.07,12.659-.745-2.018-.2-8.533-2.11-8.533-1.848,0-2.244,8.617-3.522,8.533s-1.418-7.651-3.084-8.533-1.93,5.572-3.579,5.005-1.128-9.137-3.016-7.273-2.229,14.729-4.644,14.729S794-73.538,794-73.538s-4.775,9.091-6.367,7.827,2.776-10.545,0-12.884c-.81-.682-3.937,17.044-5.188,16.135-.886-.644,1.245-15.071,0-16.135-2.179-1.859-4.066,14.941-6.988,12.884-1.3-.916-.737-10.616-3.016-10.616s.118,11.173-3.185,10.616-.76-6.924-2.915-10.616c-1.248-2.137-5.414,20.259-7.283,17.661-2.279-3.169,4.28-12.462,2.329-19.928-.581-2.222-5.517,20.522-6.729,18.072-1.314-2.66,2.227-12.017,1.115-18.072-.54-2.936-4.334,19.206-5.368,16.135-2.49-7.411,2.65-17.017-1.916-16.135s-1.958,10.234-3.971,10.8-2.024-7.991-4.079-8.533-2.021,6.933-4.142,6.366-2.248-8.633-4.345-8.633-2.626,9.749-4.043,8.633-2.044-14.97-3.947-13.1-.835,17.663-3.666,20.6-.967-13.054-3.3-13.867,7.045,16.229-6.02,10.616c-1.516-.651,4.18-15.943,2.793-17.345s-7.035,16.23-9.8,17.345,2.241-9.553,0-10.616c-1.531-.726-.981,6.366-3.583,6.366s-.745-9.064-2.587-10.154c-1.258-.744-3.9,15.266-5.612,14.4-2.192-1.1-2.023-22.329-4.933-12.884-1.1-.862-2.348,13.891-3.75,12.884-1.707-1.228,5.609-23.5-2.018-12.884-1-1-6.03,21.144-7.284,19.928-1.493-1.447,1.456-14.058,0-17.661-.865-2.136-7.406,12.806-8.656,10.616-1.377-2.417,3.564-9.352,3.125-14.4-.146-1.669-7.952,16.3-8.59,14.4-1.593-4.787-.764-1.926-2.306-12.884s-3.4,24.582-6.061,25.841.469-20.334-2.089-23.573-2.453,11.183-4.73,10.616-2.393-11.842-4.377-12.884-1.2,21.281-3.243,19.928-3.493-18.544-5.57-17.661,1.3,13.871-.867,14.3-4.193-19.483-8.211-19.483S620.6-61.3,619.048-62.03c-2.445-1.15-.721-14.7-4.092-18.086-1.625-1.633-2.28,27.538-4.407,26-2.3-1.662.651-17.3-1.964-22.214-1.333-2.5-1.157,16.558-3.046,14.3-2.408-2.887.562-17.386-2.2-23.849-1.112-2.605.135,19.113-2.92,17.139s2.083-16.7-1.96-17.139-5.726,16.309-9.825,17.139c-5.949,1.2-3.005-11.376-8.519-11.376s-8.283,20.966-13.713,14.4,11.488-13.151,2.815-20.167c-1.856-1.5-5.736,1.084-9.266,0-3.7,3.252,2.064,22.842-2.443,22.215-1.424-.2-1.246-20.479-3.321-22.215-1.6-1.332.829,15.285-1.285,14.221-1.208-.609-2.443-12.813-4.128-14.221-.879-.733-2.954,33.124-2.954,33.124s-6.927,14.53-13.573-1.359,3.4-29.4,0-27.4c-.625.369-1.939,5.146-5.577,5.186-.505.006-.417,11.862,0,17.661a37.522,37.522,0,0,0,5.577,13.612c3.548,3.23-4.9.022-5.577,0-1.638-.052-4.014-6.039-5.11-13.612-.994-6.872,1.081-22.737,0-22.846-2.993-.3-3.639,16.961-5.889,17.849s-.945-12.3-3.111-14.295-3.483,6.3-5.554,6.3-1.14-8.707-2.731-6.3.343,14.295-2.773,14.295-4.033-9.387-9.692-14.295-1.09,10.9-4.4,10.9-7-12.16-8.85-10.9-.464,16.195-2.536,17.77-2.118-18.15-6.831-17.77-5.442,24.016-9.592,23.845,7.056-31.093,4.34-31.765-6.92,29.916-8.838,27.212,2.114-16.044,0-19.292c-.619-.949-3.031,9.325-5,8.786s.465-6.9-.93-8.786c-1.268-1.711-4.255,16.291-5.828,14.295-2.17-2.754,2.15-6.424,0-12.664-1.106-3.209-5.612,12.993-6.689,12.664s6.457-25.737,0-17.849c-2.74-2.027-.9,20.842-8.8,22.846s3.655-19.292,3.655-19.292-5.949,9.409-7.155,6.3,11.416-19.227,3.5-17.794c-8.923-.415-10.761,17.194-10.761,17.194s-3.934,10.908-5.245,8.594,3.81-17.042,0-17.849c-1.451-.308-6.868,9.2-11.37,9.855s0-6.3,0-6.3S388.514-62.928,385.2-63.663s-.611-12.213-3.281-10.454,4.127,14.986-1.28,15.451-5.57-1.209-13.373-12.991-.777,7.373-3.443,7.994-5.476-5.509-5.476-5.509-3.131-14.179-5-12.34,4.469,17.3,3.226,17.849-3.089-11.222-8.2-15.671c-1.987-1.73,3.892,11.907,2.885,13.211s-2.474-4.414-6.916-8c-1.071-.863,2.047,9.945-6.8,12.179-8,2.019-9.607-11.735-9.988-12.179-7.487-8.73-4.712,16.712-11.754,6.62s-8.516-8.577-8.516-8.577,5.01,9.952,3.065,9.952-5.706-8-5.706-8,2.947,11.5,0,10.454-2.7-10.454-4.518-10.454.979,11.389-1.487,10.454-.879-10.108-2.472-10.454S289.734-58.177,285.7-58.666s7.082-24.066,5.335-25.93-7.3,13.786-10.166,15.424,1.383-8.248-1.3-8.869-4.777,12.519-9.91,11.919c-4.735-.86,1.718-12.534-2.153-11.919s-.754,16.944-8.483,16.1c-2.458-.268-2.154-10.789-4.447-12.179s-1.8,7.11-4.723,6.62-1.984-4.769-4.5-8.577c-.809-1.226-1.584,8.577-3.974,8.577s-5.587-8.577-5.587-8.577-1.381,25.75-6,30.215-7.564.891-7.866,0,6.66-3.564,6.66-3.564-6.961.3-6.66-1.361,7.866-5.277,7.866-5.277-7.866,2.515-7.866,0,7.866-13.11,7.866-13.11-7.866,10.947-7.866,3.05a10.17,10.17,0,0,1,6.66-9.952h-8.7s-.967,4.224-1.612,20.012,6.239,16.542,6.253,16.761-9.269-1.072-10.623-3.979,1.521-10.968,1.49-18.659-2.511-13.648-3.77-12.179S210.97-53.7,210.2-54.234s-.461-21.385-1.654-22.036-.36,16.317-1.924,17.6-1.355-11.206-2.864-12.455-.657,10.162-1.993,7.832-3.354-15.285-4.82-17.15-1.69,10.771-3.253,9.317.183-13.962-2.263-13.475S190-68.746,188.787-69.172s-.306-11.106-2.964-18.788c-2.508-7.244-4.014,27.591-6.436,27.591s1.409-18.812-6.027-20.07-4.516,19.794-11.784,20.07c-2.646.1-5.225-4.824-7.627-12.049-1.434-4.31-4.545,11.392-5.721,6.3-1.684-7.291.3-11.39-3.233-9.952s2.62,33.619-2.323,21.84c-1.261-3-6.066-13.583-8.424-19.883-6.279-16.775-7.135,1.7-7.135,1.7s2.913,18.907-1.345,8.618.962-15.111-1.353-16.639-4.091,12.987-5.768,12.83.2-11.557-1.434-10.605-2.46,16.177-5.314,16.177-2.55-16.177-6.1-16.177.983,15.294-8.1,16.177c-2.481-1.5,2.193-9.093-1.722-14.037-.928-1.172.538,15.589-6.329,9.952s2.527-9.777-1.311-9.952-6.56,11.128-9.554,9.952,4.469-5.042-4.276-9.952c-1.88-1.056-3.2,12.6-9.4,8.466-2.558-1.7-.913-6.259-4.185-8.466-3.886-2.619-7.344,11.54-11.861,8.466-5.859-3.987.229-8.837-3.087-8.466s-7.822,10.487-13.627,9.952-4.67-10.518-9.593-12.092-4.334,7.206-10.1,5.8S-.312-83.854-.312-83.854V88.266Z" transform="translate(0.623 89)" fill="#ee2f4e"/>
    <path id="Path_461" data-name="Path 461" d="M-.623,311.008V519.716s3.1-8.578,6.3-8.578,5.791,5.642,5.791,5.642,3.38-10.679,6.754-9.945,5.289,7.512,5.289,7.512a12.291,12.291,0,0,1,5.708-4.757c3.533-1.189,4.767,2.226,8.759,4.757a14.988,14.988,0,0,0,7.677,2.433s1.085-5.642,2.677-5.642-.406,6.029,3.691,5.642c.8-.075,2.3-5.642,2.3-5.642s.482,6.029,3.081,5.642,5.485-7.924,7.313-7.191,4.5,7.191,4.5,7.191,2.875-7.191,5.521-7.191.677,6.641,4.486,4.757,6.486-6.323,10.827-7.512,6.536,2.754,6.536,2.754l6.391,4.757s2.813-6.1,5.41-4.757,6.24,7.191,6.24,7.191,4.607-20.183,7.54-19.505,3.279,18.058,5.465,19.505,1-9.945,5.568-9.945,1.885,9.945,4.6,9.945c.794,0,2.686-7.191,5.7-7.191s.958,2.442,6.346,7.191.023-12.119,3.613-12.119,2.541,5.922,11.451,9.686,4.867-7.512,8.218-7.512,4.18,6.823,7.253,7.512,5.041-4.757,5.041-4.757,1.88-3.944,4.159-2.754-4.41,9.425,4.954,7.512c1.9-.388,3.745-6.282,6.747-7.512,1.711-.7-3.147,16.042,3.293,14.128.5-.148-.429-3.843,0-6.617a13.782,13.782,0,0,1,3.7-7.512c1.151-.944-1.717,11.859,2.976,9.945,1.29-.526.274-8.209,2.509-8.6s1.608-.011,4.471,0c3.949.016-.579,6.284.7,8.6.672,1.223,2.349-4.7,4.688-7.191.836-.89,1.752,3.033,3.015,3.347.6.139,1.554-3.351,2.193-3.347,2.77.016.366,5.44,3.3,7.253s-.782-11.162,1.942-12.181.74,8.454,3.029,9.686,5.7-9.2,10-7.512c4.546,1.782,0,7.512,0,7.512l8.489-7.512s2.01,7.177,4.271,7.512,4.77-6.171,4.77-6.171,2.223-5.219,6.8-5.675c4.849.017,1.945,7.879,4.51,9.4,1.683.994,4.99-3.22,7.4-2.307,2.367.9.134,5.849,2.755,7.191,2.079,1.064,3.453-10.431,6.216-9.945,4.431.782,1.987,7.257,5.075,7.512,2.909.24-1.387-8.854,5.73-7.512.918.173-2.8,6.925-1.356,7.512.347.141,1.684.888,2.625,0,.529-.5-.646-2.654,0-2.45,1.12.356-1.047-5.676,4.321-3.721.9.326-.678,9.639,1.968,6.171.64.367,2.472-6.171,2.472-6.171s3.34-10.42,4.366-5.675-1.366,11.357.787,10.559c.889.921,2.615-7.206,4.344-6.226,2.172-.725.536,6.543,2.7,8.462,2.941,2.6.888-6.883,2.847-7.121s.921,7.121.921,7.121l2.406-.95,1.169-4.757s4.2,5.446,5.6,4.757-1.118-10.4,1.434-9.686c1,.281,2.206,5.579,3.319,7.236,2.123,1.625-2.514-13.957.94-11.373.9.677,2.556,12.265,4.2,12.537s.44-5.7,3.7-4.885c.962.644.738,5.818,2.565,6.171s-.2-7.629,3.254-7.512,1.095,6.226,1.095,6.226,4.742-8.721,6.322-8.4-1.426,7.565,0,8.4c.4.234,5.032-16.121,7.715-16.14,3.011-.176-5.062,17.1-1.453,22.795,1.411,2.228,3.175-9.022,4.827-10.126s.2,5.708,1.781,5.708,1.888-7.563,4.544-5.708c5.375,3.754,2.6,5.708,4.644,5.708s1.247-5.708,1.247-5.708.96-5.153,2.261-4.928-.011,3.284,2.942,5.825c.486.418.452-4.616,1.4-3.651s1.031,6.382,2.38,7.512c.607.509,1.011-5.473,1.944-4.757,1.055.81,1.194,2.257,2.62,3.471.614.523.965-6.993,1.861-6.226,1.068.915,1.312,5.958,2.674,7.512.449.512.659-2.336,3.3-4.757s1.661-6.1,3.75-4.928c.877.491.251,7.168,1.451,8.4s2.136-7.352,3.348-3.471a25.107,25.107,0,0,1,1.622,7.768c2.8,5.112,2.187-12.895,5.815-12.7,1.4.077-1.229,6.842,1.575,8.4.941.661,1.908-5.887,3.86-5.011.788.4-1.127,8.822.846,10.728.631.717,2.065-9.373,3.9-9.188,1.193.123.628,2.58,2.059,4.757,1.72,2.608,1.068-8.7,3.047-8.465s.994,6.252,2.782,7.179,1.374-6.547,2.8-6.226-.825,10.744,2.8,12.881c.869.513.782-10.668,2.249-10.126.72.266,1.459,8.7,2.586,9.188.718.312,3.886,0,3.886,0a7.282,7.282,0,0,1-1.353-3.481c-.338-2.3-1.963-6.261,0-5.708.875.246,2.062,4.382,4.769,7.768.569.711.5-15.214,1.661-14.719,0,0,1.809,9.928,2.124,11.709s1.258.95,1.258.95-.432,1.406,0,2.06c3.224,4.066,4.463-15.346,6.48-13.674s-.4,10.137.833,11.614,2.618-7.009,4.061-7.247.714,7.836,1.712,6.3,2.577-21.473,4.311-20.131c.361.279,0,3.393,0,3.393h1.814l.058,1.571-1.872,1.772s2.025,1.334,1.872,1.686-.68,15.14,0,14.719,4.53-9.774,2.721-16.4-2.721-8.314-2.721-8.314,4.3-1.919,5.912,0-.438,19.87,0,20.423,2.217-7.077,4.125-7.179c.473-.025-.575,4.878,2.45,7.179.784.6,2.094-4.3,3.321-3.471,1.25.85-1.692,6.474,0,7.768,1.224-.957,3.509-11.719,6.432-10.522,1.054.431-1.4,4.913,0,6.226,2.048,1.918,3.96-9.76,6.719-7.179.143.134.205,8.421,3.913,8.465,1.3.015.443-13.308,2.391-13.395,2.027-.089.158,13.376,2.937,13.395,1.521.01.847-15.167,2.109-15.167s1.455,15.1,3.747,15.167c.392.012.4-4.3,4.039-4.757,1.878-.235-3.544,7.206,0,5.708.787-.333,1.965-5.954,4.816-9.416,1.136-.188,1.162,8.683,2.831,8.465.887-.116,1.025-9.471,2.427-9.625,1.375-.151,1.8,9.787,3.557,9.625,4.214-.39-1-12.247,2.4-16.738.577-1,1.173,3.343,1.173,3.343s1.524-2.8,2.065-1.772c.277.524-.545,4.172,0,5.543.278.7.553,8.531,1.1,9.625,1.877,3.748,1.226-10.045,1.827-11.709s-1.5-7.407.869-6.289c1.424.247,1.208,17.939,5.472,18.948.591.14-.219-5.8.738-5.708.582.059,1.905,5.678,2.815,5.708.533.018,1.475-8.424,2.336-8.462.792-.033,1.419,10.568,2.57,10.522,1.3-.052,2.527-13.279,4.212-13.674.978-.228,1.273,7.991,2.582,7.856,1.155-.121,1.516-5.357,2.992-5.657.684-.138-1.025,9.308.927,9.416,1.232,0,2.177-13.649,3.592-14.345s-.035,11.392.918,11.475c0,0,2.231-8,3.294-8.744s1.188,11.446,2.557,11.614.7-12.544,1.141-12.659,3.343,9.45,4.677,8.9-1.047-9.333,0-8.9c1.446.6,4.494,10.359,6.88,11.709.626.354,3.065-11.1,3.992-10.664,1.076.509-1.328,9.74,0,10.664.468.325,3.6-10.072,4.37-9.625.635.37,2.606,8.917,3.488,9.625,1.228.979,2-9.3,3.347-8.465,1.009.629,3.065-3.308,4.544.954.5,1.452-1.921,6.114,0,7.512s-.562-12.816,12.57-14.95-7.2,14.95-7.2,14.95l8.995-4.757s-3.4,7.964,0,4.757c2.633-2.482,10.541-10.454,10.371-8.465s-2.812,7.538-1.35,8.465,4.247-9.041,5.436-8.465c.877.426,3.929,7.755,5.218,8.465,1.642.9,1.61-5.824,3.69-4.757,1.442.739,2.951,3.618,4.767,4.757,1.508.945,5.294-11.857,7-10.664.761.533-.537,4.115-1.324,8.744-.657,3.857-.8,8.763,0,9.887.446.623,1.894-4.826,3.248-9.887,1.15-4.3.267-9.25.952-8.744,2.314,1.719,2.341,10.925,4.557,10.664s1.021-11.874,7.006-11.709-1.481,11.709-1.481,11.709,4.774-11.869,10.074-11.709-3.608,11.709-3.608,11.709l7.522-4.757s-.617,5.006.988,4.757,2.109-14.95,3.525-14.95.623,20.316,1.552,20.319,2.094-14.993,3.327-14.993,1.6,14.993,1.6,14.993,3.3-20.6,4.348-20.319-.433,11.41.934,13.031,2.869-7.026,4.532-6.546.846,7.538,2.122,8.465,3.475-10.407,5.226-10.664c2.273-.329-2.58,13.386,0,14.624,1.1.527,2.338-9.215,5.117-9.478,2.5-.145-1.33,6.723,0,6.913s5.322-6.152,5.322-6.152,5.321-9.142,7.107-7.959-6.387,11.986-2.861,12.717c1.185.245,3.979-5.677,5.656-5.518,1.122.107-4.341,10.788-2.795,10.887,2.219.484,7.319-10.126,7.319-10.126s4.713-9.383,5.719-7.959-4.317,9-2.736,10.8,2.821-3.954,4.157-2.838-.221,7.8,1.187,7.3,3.079-9,4.446-9.285-.151,9.117,1.022,8.136,2.8-10.52,4.4-12.058,2,5.906,2,5.906-.586-10.408,4.6-4.475c1.448,1.655-1.9,8.3-1.048,9.232s3.684-5.518,5.3-5.518-.305.971,1.176,5.518c.434,1.329,5.555-9.713,6.417-7.652,1,2.381-2.93,7.652-1.054,7.652s4.713-11.778,5.636-6.742-.96,7.722,1.145,6.742-1.843-15.023,3.994-14.795.649,19.7,5.736,19.3c5.591.472,2.1-11.324,4.348-12.153s.693.261,4.82,5.733c1.275,1.691,1.95-9.82,3.767-7.313,2.165,2.987.4,1,2.641,7.313,1.053,2.959,2.03-9.762,3.47-5.733s.068,8.8,2.117,9.047c1.6.192,3.159-11.618,4.744-11.967s-.332,10.7,1.076,11.967,1.452-10.84,6.54-6.152c1.226,1.13-1.438,7.343,4.116,7.724s3.085-10.334,5.364-13.539,1.537,8.533,3.291,8.653-.664-8.033,2.444-7.313c.8.186,1.521,10.232,2.878,10.627s1.662-8.218,3.091-9.047,1.535,6.934,3.626,5.733-.941-7.354,2.421-8.653c3.851,1.812.928,5.43,3.521,8.653.678.842,1.576-2.44,3.162-2.838,1.066.986-.392,6.955,2.578,6.152s.908-9.5,3.749-10.627c.262.307,1.953,8.963,1.714,9.232s4.161-10.078,3.788-10.572,1.06,13.747,1.028,13.539,2.4-8.186,3.253-7.724,2.351,7.661,2.391,7.724c.186-.358,2.742-19.2,3.362-18.826s.416,23.556,5.9,23.9,0-23.9,0-23.9,5.884,15.531,7.445,15.859-2.258-10.171,1.11-9.232.649,13.589,2.42,12.2,2.656-17.246,4.464-18.826c.4-.346,3.008,19.711,6.861,20.36s-4.6-13.463,2.274-13.733c3.369-.132-1.084,10.627,1.819,10.627s3.055-15.31,4.763-13.648c1.2,1.165-.277,12.529,1.321,13.648s2.163-7.914,3.887-6.152c2.817,2.879,2.311,7.812,3.993,7.724s1.367-16.668,3.445-17.061-.237,13.155,1.2,15.489,4.18-11.861,4.883-10.627c.815,1.432.271,5.739,1.409,7.747.688,1.215,2.641-7.05,3.578-5.395s.594,3.068,1.753,5.395c.541,1.087,1.24-8.467,2.676-7.747s1.672,9.508,3.067,10.627,1.692-11.395,2.531-8.275c.237.883.843,2.538,2.123,8.275.463,2.077,1.816-9.112,2.458-6.152,1.239,5.713.167,4,1.274,13.012,1.4,11.4,2.4-18.38,4.786-19.319s.173,12.688,2.736,14.031.833-12.393,3.044-10.909c2.872,1.928-.047,12.447,1.428,10.909s2.687-16.937,4.47-17.061.324,11.393,2.021,12.609.489-8.321,3.564-7.747c.913.171-.88,11.08,0,12.2s3.52-7.724,3.52-7.724-.431,11.721.954,11.191,2.869-16.238,4.529-17.5-1.152,10.882,1.494,12.459,3.884-6.152,3.884-6.152,1.383-5.622,3.362-7.5-.228,10.882,5.3,4.311,3.49,8.087,3.49,8.087,7.54-11.632,10.309-11.208c.944.073,1.057,6.323-2.044,12.459-2.063,6.451,5.89-6.083,8.369-6.152s-1.126,5.06,3.759,7.724c0,0,1.576-10.541,7.332-7.724,2.769,1.355-3.516,8.182,0,7.724s5.18-14.907,9.405-15.22-3.756,9.88-3.756,15.22c0,5.148,4.447-11.766,18.333-12.47s0,12.47,0,12.47,8.083-9.043,10.778-9.436-1.448,7.436,0,7.865,4.148-7.081,5.792-6.152c.644.365,4.747-6.951,5.705-6.307,1.22.818-4.15,10.836-2.732,12.459.562.642,6.641-11.813,7.489-10.9.71.768,1.685,9.71,2.585,10.9.632.832,2.972-5.379,3.831-4.277.545.7-1.741,4.618-1.144,5.849.62,1.265,6.843-13.525,8.073-10.708.745,1.707.2,7.218,2.111,7.218,1.849,0,2.245-7.289,3.523-7.218s1.419,6.472,3.086,7.218,1.931-4.714,3.58-4.234,1.129,7.729,3.017,6.152,2.23-12.459,4.646-12.459,1.826,8.182,1.826,8.182,4.777-7.69,6.37-6.621-2.777,8.919,0,10.9c.81.577,3.938-14.417,5.19-13.648.886.545-1.246,12.748,0,13.648,2.18,1.573,4.068-12.638,6.991-10.9,1.3.775.738,8.98,3.018,8.98s-.118-9.451,3.187-8.98.76,5.857,2.916,8.98c1.249,1.807,5.416-17.136,7.287-14.939,2.28,2.68-4.281,10.541-2.33,16.857.581,1.879,5.519-17.359,6.732-15.287,1.314,2.25-2.228,10.165-1.115,15.287.54,2.483,4.336-16.246,5.37-13.648,2.491,6.269-2.651,14.394,1.917,13.648s1.959-8.657,3.972-9.136,2.025,6.76,4.081,7.218,2.021-5.864,4.144-5.384,2.249,7.3,4.347,7.3,2.628-8.246,4.045-7.3,2.045,12.663,3.949,11.077.835-14.941,3.668-17.422.968,11.042,3.3,11.73-7.047-13.728,6.023-8.98c1.516.551-4.182,13.486-2.794,14.672s7.038-13.728,9.8-14.672-2.243,8.081,0,8.98c1.531.614.982-5.384,3.584-5.384s.745,7.667,2.588,8.589c1.258.629,3.9-12.913,5.614-12.184,2.193.933,2.023,18.887,4.935,10.9,1.1.729,2.349-11.75,3.752-10.9,1.707,1.038-5.612,19.877,2.019,10.9,1,.843,6.033-17.885,7.288-16.857,1.494,1.224-1.457,11.891,0,14.939.866,1.807,7.41-10.832,8.66-8.98,1.378,2.044-3.565,7.911-3.126,12.184.146,1.412,7.955-13.791,8.593-12.184,1.593,4.049.764,1.629,2.307,10.9s3.406-20.793,6.064-21.858-.469,17.2,2.09,19.94,2.454-9.459,4.732-8.98,2.394,10.017,4.379,10.9,1.2-18,3.245-16.857,3.5,15.686,5.573,14.939-1.3-11.733.867-12.094,4.2,16.48,8.215,16.48,2.032-17.1,3.587-16.48c2.446.973.722,12.433,4.094,15.3,1.626,1.381,2.281-23.293,4.409-22,2.3,1.406-.651,14.632,1.965,18.79,1.333,2.118,1.157-14.006,3.047-12.094,2.409,2.442-.562,14.706,2.2,20.173,1.113,2.2-.135-16.167,2.922-14.5s-2.084,14.13,1.961,14.5,5.729-13.8,9.829-14.5c5.952-1.017,3.007,9.623,8.523,9.623s8.286-17.735,13.719-12.184-11.493,11.124-2.816,17.059c1.857,1.27,5.739-.917,9.27,0,3.706-2.751-2.065-19.322,2.444-18.791,1.424.168,1.247,17.322,3.322,18.791,1.6,1.127-.829-12.929,1.286-12.029,1.208.515,2.445,10.838,4.13,12.029.88.62,2.956-28.019,2.956-28.019s6.93-12.29,13.579,1.149-3.4,24.871,0,23.177c.625-.312,1.94-4.353,5.58-4.386.505,0,.417-10.034,0-14.939a29.247,29.247,0,0,0-5.58-11.514c-3.549-2.732,4.9-.018,5.58,0,1.639.044,4.016,5.108,5.112,11.514.995,5.813-1.082,19.233,0,19.325,2.995.254,3.641-14.347,5.892-15.1s.945,10.4,3.113,12.092,3.485-5.33,5.557-5.33,1.141,7.365,2.732,5.33-.343-12.092,2.775-12.092,4.034,7.94,9.7,12.092,1.09-9.224,4.4-9.224,7.007,10.286,8.854,9.224.464-13.7,2.537-15.031,2.119,15.353,6.834,15.031,5.444-20.315,9.6-20.17-7.059,26.3-4.342,26.87,6.923-25.306,8.842-23.018-2.115,13.571,0,16.318c.619.8,3.032-7.888,5-7.432s-.465,5.839.931,7.432c1.269,1.447,4.256-13.781,5.831-12.092,2.171,2.33-2.151,5.434,0,10.712,1.107,2.714,5.614-10.991,6.692-10.712s-6.46,21.77,0,15.1c2.741,1.714.9-17.629,8.8-19.325s-3.657,16.318-3.657,16.318,5.952-7.959,7.158-5.33-11.421,16.263-3.5,15.052c8.927.351,10.766-14.544,10.766-14.544s3.936-9.227,5.248-7.27-3.812,14.415,0,15.1c1.452.26,6.871-7.783,11.375-8.336s0,5.33,0,5.33,11.975-12.713,15.295-12.092.612,10.331,3.282,8.843-4.129-12.677,1.28-13.07,5.573,1.023,13.379,10.989.777-6.236,3.445-6.762,5.478,4.66,5.478,4.66,3.133,11.994,5,10.438-4.471-14.638-3.227-15.1,3.09,9.493,8.2,13.255c1.988,1.463-3.894-10.072-2.886-11.175s2.475,3.733,6.919,6.763c1.071.73-2.048-8.412,6.8-10.3,8-1.708,9.612,9.926,9.992,10.3,7.49,7.384,4.714-14.136,11.76-5.6s8.52,7.255,8.52,7.255-5.012-8.418-3.067-8.418,5.708,6.763,5.708,6.763-2.948-9.731,0-8.843,2.705,8.843,4.52,8.843-.979-9.634,1.488-8.843.88,8.55,2.473,8.843,6.435-13.484,10.469-13.07-7.086,20.357-5.337,21.934,7.3-11.661,10.17-13.047-1.383,6.977,1.3,7.5,4.779-10.59,9.914-10.082c4.738.728-1.719,10.6,2.154,10.082s.754-14.332,8.487-13.62c2.459.226,2.155,9.126,4.449,10.3s1.8-6.014,4.725-5.6,1.985,4.034,4.5,7.255c.809,1.037,1.585-7.255,3.976-7.255s5.59,7.255,5.59,7.255,1.381-21.782,6.005-25.558,7.568-.754,7.869,0-6.662,3.015-6.662,3.015,6.964-.252,6.662,1.152-7.869,4.464-7.869,4.464,7.869-2.127,7.869,0-7.869,11.089-7.869,11.089,7.869-9.26,7.869-2.58-6.662,8.418-6.662,8.418h8.706s.968-3.573,1.613-16.928-6.242-13.992-6.256-14.178,9.273.907,10.628,3.365-1.522,9.277-1.491,15.783,2.513,11.544,3.771,10.3.66-17.274,1.432-16.819.461,18.089,1.655,18.64.36-13.8,1.925-14.891,1.356,9.479,2.866,10.536.657-8.6,1.994-6.625,3.355,12.929,4.822,14.507,1.691-9.111,3.254-7.881-.183,11.81,2.264,11.4,1.425-13.408,2.643-13.047.306,9.395,2.965,15.892c2.509,6.128,4.016-23.338,6.439-23.338s-1.41,15.913,6.029,16.976,4.518-16.743,11.79-16.976c2.647-.085,5.227,4.081,7.63,10.192,1.435,3.645,4.547-9.636,5.724-5.325,1.685,6.167-.3,9.635,3.234,8.418s-2.621-28.438,2.324-18.474c1.261,2.541,6.069,11.489,8.428,16.819,6.281,14.189,7.138-1.438,7.138-1.438s-2.914-15.993,1.345-7.29-.963,12.782,1.353,14.074,4.092-10.986,5.77-10.853-.2,9.776,1.435,8.971,2.461-13.684,5.316-13.684,2.551,13.684,6.1,13.684-.984-12.937,8.107-13.684c2.482,1.272-2.194,7.691,1.723,11.874.929.992-.538-13.186,6.331-8.418s-2.528,8.27,1.312,8.418,6.563-9.413,9.558-8.418-4.471,4.265,4.278,8.418c1.881.893,3.2-10.655,9.409-7.161,2.559,1.44.913,5.295,4.187,7.161,3.887,2.216,7.347-9.761,11.866-7.161,5.862,3.373-.229,7.475,3.089,7.161s7.825-8.871,13.633-8.418,4.672,8.9,9.6,10.228,4.336-6.1,10.1-4.9,12.963,9.673,12.963,9.673V299.063Z" transform="translate(-9.455 -143)" fill="#ee2f4e"/>
  </g>
</svg>
