<svg xmlns="http://www.w3.org/2000/svg" xmlns:xlink="http://www.w3.org/1999/xlink" width="29" height="38" viewBox="0 0 29 38">
  <defs>
    <clipPath id="clip-iPhone_X_XS_11_Pro_1">
      <rect width="29" height="38"/>
    </clipPath>
  </defs>
  <g id="iPhone_X_XS_11_Pro_1" data-name="iPhone X/XS/11 Pro – 1" clip-path="url(#clip-iPhone_X_XS_11_Pro_1)">
    <g id="Group_278" data-name="Group 278" transform="translate(-1238 -917)">
      <g id="Group_257" data-name="Group 257" transform="translate(1237.891 917)">
        <g id="Path_332" data-name="Path 332" fill="#ee2f4e">
          <path d="M 13.95889282226562 36.27310943603516 C 12.32978248596191 36.27310943603516 10.68596267700195 35.5311393737793 9.073102951049805 34.06781768798828 C 7.582222461700439 32.71517944335938 6.126312732696533 30.73221778869629 4.86274242401123 28.33331680297852 C 2.552322626113892 23.94693756103516 1.00000262260437 18.3708381652832 1.00000262260437 14.45791816711426 C 1.00000262260437 10.86317729949951 2.399882555007935 7.483597755432129 4.941762447357178 4.941737651824951 C 7.483642578125 2.39986777305603 10.86324214935303 0.9999977350234985 14.45801258087158 0.9999977350234985 C 18.05278205871582 0.9999977350234985 21.43238258361816 2.39986777305603 23.97426223754883 4.941737651824951 C 26.51614189147949 7.483597755432129 27.91602325439453 10.86317729949951 27.91602325439453 14.45791816711426 C 27.91602325439453 18.40366744995117 26.34324264526367 23.76683807373047 23.90918350219727 28.1212272644043 C 22.60536193847656 30.45367813110352 21.09311294555664 32.41565704345703 19.53591346740723 33.79507827758789 C 17.84395217895508 35.29386901855469 16.10938262939453 36.12207794189453 14.38039302825928 36.25669860839844 C 14.24049282073975 36.2675895690918 14.09868240356445 36.27310943603516 13.95889282226562 36.27310943603516 Z" stroke="none"/>
          <path d="M 14.45801258087158 1.999996185302734 C 11.13035202026367 1.999996185302734 8.001873016357422 3.295848846435547 5.648862838745117 5.648838043212891 C 3.295862197875977 8.001827239990234 2.000001907348633 11.13028717041016 2.000001907348633 14.45790863037109 C 2.000001907348633 18.22293853759766 3.506011962890625 23.61174774169922 5.747512817382812 27.86728668212891 C 6.957302093505859 30.16408729553223 8.339622497558594 32.05209732055664 9.74504280090332 33.32720947265625 C 11.16819190979004 34.61841583251953 12.5859432220459 35.27310943603516 13.95889282226562 35.27310943603516 C 14.07289218902588 35.27310943603516 14.1885929107666 35.26859664916992 14.30277252197266 35.25970840454102 C 15.8098726272583 35.14237976074219 17.34746170043945 34.39774703979492 18.87283325195312 33.04653930664062 C 20.34693145751953 31.74071884155273 21.78664207458496 29.86884689331055 23.03630256652832 27.63328742980957 C 24.21404266357422 25.5263786315918 25.20294189453125 23.14381790161133 25.89609336853027 20.74319839477539 C 26.56333160400391 18.43229866027832 26.91602325439453 16.25887680053711 26.91602325439453 14.45790863037109 C 26.91602325439453 11.13028717041016 25.62016296386719 8.001827239990234 23.26716232299805 5.648838043212891 C 20.91415214538574 3.295848846435547 17.78567123413086 1.999996185302734 14.45801258087158 1.999996185302734 M 14.45801258087158 -3.814697265625e-06 C 22.44295310974121 -3.814697265625e-06 28.91602325439453 6.473028182983398 28.91602325439453 14.45790863037109 C 28.91602325439453 22.44279861450195 22.71146202087402 36.61108779907227 14.45801258087158 37.25367736816406 C 14.2912712097168 37.26665878295898 14.12392807006836 37.27310943603516 13.95889377593994 37.27310943603516 C 5.95496940612793 37.27310943603516 1.9073486328125e-06 22.2814826965332 1.9073486328125e-06 14.45790863037109 C 1.9073486328125e-06 6.473028182983398 6.473072052001953 -3.814697265625e-06 14.45801258087158 -3.814697265625e-06 Z" stroke="none" fill="#fff"/>
        </g>
      </g>
      <g id="Group_258" data-name="Group 258" transform="translate(1243.262 922.308)">
        <path id="Path_94" data-name="Path 94" d="M0,0V10.381H3.353v1.83H13.834v-1.83H17.6V0Z" transform="translate(0 4.247)" fill="none" stroke="#fff" stroke-width="1"/>
        <g id="Rectangle_48" data-name="Rectangle 48" transform="translate(3.903 16.444)" fill="none" stroke="#fff" stroke-width="1">
          <rect width="9.387" height="1.965" stroke="none"/>
          <rect x="0.5" y="0.5" width="8.387" height="0.965" fill="none"/>
        </g>
        <g id="Rectangle_49" data-name="Rectangle 49" transform="translate(0.029 14.643) rotate(-90)" fill="none" stroke="#fff" stroke-width="0.5">
          <rect width="10.369" height="3.384" stroke="none"/>
          <rect x="0.25" y="0.25" width="9.869" height="2.884" fill="none"/>
        </g>
        <g id="Rectangle_50" data-name="Rectangle 50" transform="translate(13.891 14.643) rotate(-90)" fill="none" stroke="#fff" stroke-width="0.5">
          <rect width="10.369" height="3.711" stroke="none"/>
          <rect x="0.25" y="0.25" width="9.869" height="3.211" fill="none"/>
        </g>
        <path id="Path_95" data-name="Path 95" d="M3.1,0,0,1.911,3.1,4.18,0,5.306,3.1,8.249" transform="translate(0.124 6.394)" fill="none" stroke="#fff" stroke-width="0.5"/>
        <path id="Path_96" data-name="Path 96" d="M2.905,10.335,0,7.391,2.905,6.265,0,4,2.905,2.086,0,0" transform="translate(14.313 4.199)" fill="none" stroke="#fff" stroke-width="0.5"/>
        <g id="Rectangle_51" data-name="Rectangle 51" transform="translate(3.358 2.255)" fill="none" stroke="#fff" stroke-width="0.5">
          <rect width="10.806" height="1.965" stroke="none"/>
          <rect x="0.25" y="0.25" width="10.306" height="1.465" fill="none"/>
        </g>
        <path id="Path_97" data-name="Path 97" d="M0,0" transform="translate(13.891 14.643)" fill="none" stroke="#fff" stroke-width="1"/>
        <path id="Path_98" data-name="Path 98" d="M0,0" transform="translate(21.938 17.447)" fill="none" stroke="#fff" stroke-width="1"/>
        <g id="Rectangle_52" data-name="Rectangle 52" transform="translate(1.72 14.589)" fill="#fff" stroke="#fff" stroke-width="0.5">
          <rect width="14.189" height="1.965" stroke="none"/>
          <rect x="0.25" y="0.25" width="13.689" height="1.465" fill="none"/>
        </g>
        <line id="Line_23" data-name="Line 23" y1="9.227" x2="4.944" transform="translate(8.864 4.24)" fill="none" stroke="#fff" stroke-width="0.5"/>
        <path id="Path_106" data-name="Path 106" d="M4.809,8.58,0,0" transform="translate(3.412 4.274)" fill="none" stroke="#fff" stroke-width="0.5"/>
        <line id="Line_25" data-name="Line 25" x1="2.485" y1="8.434" transform="translate(6.141 4.274)" fill="none" stroke="#fff" stroke-width="0.5"/>
        <line id="Line_26" data-name="Line 26" y1="8.295" x2="2.292" transform="translate(8.87 4.274)" fill="none" stroke="#fff" stroke-width="0.5"/>
        <line id="Line_27" data-name="Line 27" y1="8.295" x2="0.109" transform="translate(8.761 4.274)" fill="none" stroke="#fff" stroke-width="0.5"/>
        <line id="Line_28" data-name="Line 28" y1="4.063" x2="5.354" transform="translate(8.864 9.404)" fill="none" stroke="#fff" stroke-width="0.5"/>
        <line id="Line_29" data-name="Line 29" x1="4.366" y1="3.274" transform="translate(3.085 9.513)" fill="none" stroke="#fff" stroke-width="0.5"/>
        <line id="Line_30" data-name="Line 30" y1="1.746" x2="4.257" transform="translate(9.961 12.133)" fill="none" stroke="#fff" stroke-width="0.5"/>
        <line id="Line_31" data-name="Line 31" x1="3.384" y1="1.746" transform="translate(3.085 12.133)" fill="none" stroke="#fff" stroke-width="0.5"/>
        <path id="Path_99" data-name="Path 99" d="M2.014,0C3.123,0,4.389,1.57,4.021,2.008S.1,2.413.006,2.008.905,0,2.014,0Z" transform="translate(6.253 12.435)" fill="#fff"/>
        <path id="Path_102" data-name="Path 102" d="M1.378,0C-.627,2.243.146,1.185.146,1.185" transform="translate(8.902)" fill="none" stroke="#fff" stroke-linecap="round" stroke-width="0.5"/>
        <path id="Path_103" data-name="Path 103" d="M0,0C1.563,1.748.96.924.96.924" transform="translate(7.063 0.158)" fill="none" stroke="#fff" stroke-linecap="round" stroke-width="0.5"/>
        <path id="Path_104" data-name="Path 104" d="M.839,0C-.383,1.292.089.683.089.683" transform="translate(10.321 0.717)" fill="none" stroke="#fff" stroke-linecap="round" stroke-width="0.5"/>
        <path id="Path_105" data-name="Path 105" d="M0,0C1.1.911.676.481.676.481" transform="translate(6.072 1.13)" fill="none" stroke="#fff" stroke-linecap="round" stroke-width="0.5"/>
      </g>
    </g>
  </g>
</svg>
