<svg xmlns="http://www.w3.org/2000/svg" xmlns:xlink="http://www.w3.org/1999/xlink" width="1959" height="386" viewBox="0 0 1959 386">
  <defs>
    <clipPath id="clip-path">
      <rect id="Rectangle_226" data-name="Rectangle 226" width="1989" height="400"/>
    </clipPath>
    <clipPath id="clip-Artboard_5">
      <rect width="1959" height="386"/>
    </clipPath>
  </defs>
  <g id="Artboard_5" data-name="Artboard – 5" clip-path="url(#clip-Artboard_5)">
    <g id="iPhone_X_XS_8" data-name="iPhone X/XS – 8" transform="translate(-15)" clip-path="url(#clip-path)">
      <path id="Path_462" data-name="Path 462" d="M1997.954,88.266V-83.293s-3.211,10.141-6.526,10.141-6-6.67-6-6.67-3.5,12.625-6.994,11.757-5.477-8.881-5.477-8.881-2.252,4.218-5.91,5.624-4.936-2.631-9.07-5.624a14.063,14.063,0,0,0-7.95-2.876s-1.124,6.67-2.772,6.67.421-7.128-3.822-6.67c-.829.089-2.383,6.67-2.383,6.67s-.5-7.128-3.19-6.67-5.679,9.368-7.573,8.5-4.662-8.5-4.662-8.5-2.977,8.5-5.716,8.5-.7-7.851-4.644-5.624-6.717,7.475-11.212,8.881-6.768-3.256-6.768-3.256l-6.618-5.624s-2.913,7.211-5.6,5.624-6.461-8.5-6.461-8.5-4.771,23.86-7.807,23.059-3.395-21.348-5.658-23.059-1.036,11.757-5.765,11.757-1.952-11.757-4.758-11.757c-.822,0-2.781,8.5-5.9,8.5s-.991-2.887-6.571-8.5-.024,14.327-3.742,14.327-2.631-7-11.858-11.451-5.04,8.881-8.509,8.881-4.328-8.066-7.511-8.881-5.219,5.624-5.219,5.624-1.948,4.662-4.306,3.256,4.568-11.143-5.13-8.881c-1.968.459-3.878,7.426-6.986,8.881-1.771.829,3.259-18.965-3.409-16.7-.518.175.443,4.543,0,7.822-.535,3.94-2.495,7.632-3.827,8.881-1.192,1.115,1.778-14.019-3.081-11.757-1.336.622-.284,9.7-2.6,10.172s-1.665.013-4.63,0c-4.089-.018.6-7.429-.725-10.172-.7-1.446-2.432,5.559-4.854,8.5-.866,1.052-1.814-3.586-3.122-3.957-.622-.164-1.609,3.961-2.271,3.957-2.869-.018-.379-6.431-3.419-8.574s.81,13.2-2.011,14.4-.767-9.994-3.136-11.451-5.9,10.877-10.359,8.881c-4.707-2.107,0-8.881,0-8.881l-8.79,8.881s-2.082-8.484-4.422-8.881-4.939,7.3-4.939,7.3-2.3,6.17-7.045,6.709c-5.02-.02-2.014-9.315-4.67-11.108-1.743-1.175-5.167,3.807-7.666,2.728-2.451-1.059-.139-6.914-2.853-8.5-2.153-1.258-3.576,12.331-6.436,11.757-4.588-.925-2.057-8.579-5.255-8.881-3.013-.284,1.436,10.467-5.934,8.881-.951-.2,2.9-8.187,1.4-8.881-.359-.166-1.744-1.05-2.718,0-.547.593.668,3.138,0,2.9-1.16-.421,1.084,6.71-4.474,4.4-.932-.386.7-11.4-2.038-7.3-.662-.434-2.56,7.3-2.56,7.3s-3.459,12.318-4.522,6.709,1.415-13.426-.814-12.484c-.921-1.089-2.707,8.519-4.5,7.36-2.249.858-.555-7.735-2.8-10-3.045-3.078-.919,8.138-2.948,8.419s-.953-8.419-.953-8.419l-2.486,1.123-1.211,5.624s-4.351-6.438-5.8-5.624,1.157,12.3-1.484,11.451c-1.036-.333-2.284-6.6-3.436-8.554-2.2-1.92,2.6,16.5-.973,13.445-.932-.8-2.647-14.5-4.345-14.821s-.456,6.737-3.827,5.775c-1-.762-.765-6.878-2.655-7.3s.207,9.019-3.37,8.881-1.133-7.36-1.133-7.36-4.909,10.31-6.546,9.93,1.476-8.944,0-9.93c-.414-.277-5.21,19.058-7.989,19.08-3.118.208,5.242-20.211,1.5-26.948-1.462-2.634-3.287,10.665-5,11.971s-.207-6.747-1.844-6.747-1.955,8.94-4.705,6.747c-5.566-4.439-2.693-6.747-4.809-6.747s-1.292,6.747-1.292,6.747-.995,6.091-2.341,5.826.011-3.883-3.047-6.886c-.5-.494-.468,5.457-1.45,4.316s-1.068-7.545-2.464-8.881c-.629-.6-1.046,6.47-2.013,5.624-1.093-.958-1.236-2.668-2.713-4.1-.636-.618-1,8.267-1.927,7.36-1.106-1.082-1.358-7.044-2.768-8.881-.465-.605-.683,2.762-3.419,5.624s-1.72,7.208-3.883,5.826c-.908-.58-.26-8.474-1.5-9.93s-2.212,8.691-3.467,4.1a33.282,33.282,0,0,1-1.679-9.183c-2.9-6.043-2.265,15.244-6.021,15.009-1.45-.091,1.273-8.088-1.631-9.93-.975-.781-1.977,6.96-4,5.923-.815-.478,1.167-10.43-.875-12.682-.654-.848-2.138,11.081-4.04,10.863-1.235-.145-.651-3.05-2.132-5.624-1.781-3.083-1.105,10.289-3.156,10.008s-1.029-7.392-2.881-8.487-1.423,7.74-2.9,7.36.855-12.7-2.9-15.228c-.9-.606-.809,12.612-2.329,11.971-.745-.315-1.51-10.282-2.678-10.863-.744-.369-4.025,0-4.025,0a9.236,9.236,0,0,1,1.4,4.115c.35,2.716,2.034,7.4,0,6.747-.906-.291-2.135-5.18-4.938-9.183-.588-.841-.518,17.986-1.721,17.4,0,0-1.873-11.738-2.2-13.842s-1.3-1.123-1.3-1.123a4.268,4.268,0,0,0,0-2.435c-3.339-4.807-4.621,18.142-6.71,16.165s.414-11.984-.862-13.73-2.711,8.286-4.2,8.567-.74-9.264-1.773-7.444-2.668,25.386-4.464,23.8c-.374-.33,0-4.011,0-4.011h-1.878l-.06-1.857,1.938-2.1s-2.1-1.577-1.938-1.993.7-17.9,0-17.4-4.691,11.555-2.817,19.394,2.817,9.829,2.817,9.829-4.455,2.269-6.123,0,.454-23.491,0-24.144-2.3,8.367-4.271,8.487c-.49.03.6-5.767-2.537-8.487-.812-.7-2.168,5.088-3.438,4.1-1.295-1,1.752-7.654,0-9.183-1.268,1.131-3.634,13.854-6.66,12.439-1.091-.509,1.45-5.808,0-7.36-2.121-2.267-4.1,11.538-6.957,8.487-.148-.159-.207-9.956-4.052-10.008-1.342-.018-.459,15.733-2.476,15.835-2.1.106-.164-15.813-3.042-15.835-1.575-.012-.876,17.931-2.184,17.931s-1.506-17.85-3.88-17.931c-.406-.014-.414,5.087-4.183,5.624-1.944.277,3.67-8.519,0-6.747-.814.393-2.036,7.039-4.987,11.131-1.177.223-1.2-10.265-2.932-10.008-.918.137-1.062,11.2-2.513,11.378-1.423.178-1.865-11.57-3.683-11.378-4.363.461,1.036,14.478-2.486,19.788-.6,1.186-1.214-3.953-1.214-3.953s-1.579,3.306-2.139,2.1c-.286-.62.565-4.932,0-6.553-.287-.823-.573-10.086-1.14-11.378-1.943-4.431-1.27,11.875-1.892,13.842s1.549,8.757-.9,7.435c-1.474-.292-1.25-21.208-5.666-22.4-.611-.165.227,6.859-.764,6.747-.6-.07-1.968-6.713-2.915-6.747-.552-.021-1.528,9.959-2.419,10-.821.039-1.469-12.493-2.66-12.439-1.347.061-2.617,15.7-4.361,16.165-1.013.27-1.318-9.447-2.674-9.287-1.2.144-1.569,6.334-3.1,6.688-.708.164,1.061-11-.959-11.131-1.275,0-2.254,16.136-3.72,16.959s.036-13.467-.951-13.566c0,0-2.31,9.456-3.41,10.338s-1.23-13.532-2.648-13.73-.725,14.83-1.182,14.965-3.462-11.172-4.843-10.523,1.084,11.033,0,10.523c-1.5-.707-4.652-12.246-7.124-13.842-.648-.418-3.174,13.123-4.133,12.607-1.114-.6,1.375-11.514,0-12.607-.485-.384-3.729,11.907-4.526,11.378-.658-.438-2.693-10.542-3.611-11.378-1.272-1.157-2.072,11-3.466,10.008-1.045-.743-3.174,3.91-4.705-1.127-.518-1.716,1.989-7.228,0-8.881s.582,15.151-13.016,17.674,7.452-17.674,7.452-17.674l-9.314,5.624s3.522-9.416,0-5.624c-2.727,2.934-10.915,12.359-10.74,10.008s2.912-8.912,1.4-10.008-4.4,10.689-5.628,10.008c-.907-.5-4.068-9.168-5.4-10.008-1.7-1.068-1.667,6.885-3.822,5.624-1.494-.874-3.056-4.277-4.936-5.624-1.561-1.117-5.482,14.017-7.252,12.607-.788-.63.555-4.864,1.372-10.338.68-4.56.829-10.359,0-11.689-.462-.737-1.961,5.705-3.364,11.689-1.19,5.083-.277,10.935-.986,10.338-2.4-2.033-2.424-12.915-4.719-12.607s-1.058,14.037-7.252,13.842,1.534-13.842,1.534-13.842-4.944,14.032-10.431,13.842,3.736-13.842,3.736-13.842l-7.788,5.624s.639-5.918-1.023-5.624-2.184,17.674-3.651,17.674-.645-24.017-1.607-24.022-2.168,17.725-3.444,17.725-1.657-17.725-1.657-17.725-3.419,24.359-4.5,24.022.448-13.489-.968-15.405-2.97,8.306-4.693,7.739-.876-8.912-2.2-10.008-3.6,12.3-5.412,12.607c-2.354.389,2.672-15.825,0-17.288-1.14-.623-2.421,10.894-5.3,11.2-2.59.172,1.378-7.947,0-8.172s-5.511,7.273-5.511,7.273-5.509,10.807-7.355,9.41,6.614-14.169,2.963-15.034c-1.228-.29-4.121,6.711-5.856,6.523-1.161-.127,4.495-12.753,2.894-12.87-2.3-.572-7.579,11.971-7.579,11.971s-4.88,11.093-5.922,9.41,4.47-10.637,2.833-12.765-2.92,4.674-4.3,3.355.229-9.217-1.229-8.631-3.188,10.637-4.6,10.976.156-10.778-1.059-9.619-2.9,12.437-4.558,14.256-2.072-6.982-2.072-6.982.607,12.3-4.765,5.29c-1.5-1.957,1.968-9.816,1.086-10.914s-3.814,6.523-5.491,6.523.316-1.148-1.218-6.523c-.449-1.571-5.752,11.483-6.646,9.046-1.031-2.815,3.034-9.046,1.091-9.046s-4.88,13.923-5.837,7.97.995-9.129-1.185-7.97,1.908,17.761-4.135,17.491-.671-23.288-5.939-22.811c-5.789-.558-2.175,13.388-4.5,14.367s-.718-.308-4.991-6.778c-1.321-2-2.019,11.61-3.9,8.645-2.242-3.531-.409-1.186-2.734-8.645-1.091-3.5-2.1,11.541-3.593,6.778s-.07-10.4-2.193-10.7c-1.658-.227-3.272,13.735-4.912,14.148s.344-12.654-1.114-14.148-1.5,12.815-6.772,7.273c-1.27-1.335,1.489-8.681-4.262-9.131s-3.195,12.217-5.554,16.006-1.591-10.088-3.408-10.23.688,9.5-2.531,8.645c-.829-.22-1.575-12.1-2.98-12.563s-1.721,9.716-3.2,10.7-1.589-8.2-3.755-6.778.975,8.694-2.507,10.23c-3.988-2.142-.961-6.419-3.646-10.23-.7-1-1.632,2.885-3.275,3.355-1.1-1.165.405-8.222-2.67-7.273s-.941,11.227-3.883,12.563c-.27-.363-2.022-10.6-1.776-10.914s-4.309,11.915-3.923,12.5-1.1-16.252-1.065-16.006-2.486,9.678-3.369,9.131-2.434-9.056-2.476-9.131c-.192.423-2.839,22.7-3.481,22.256s-.431-27.848-6.112-28.26,0,28.26,0,28.26-6.094-18.36-7.71-18.749,2.338,12.024-1.149,10.914-.672-16.065-2.506-14.421-2.75,20.389-4.622,22.256c-.414.409-3.114-23.3-7.1-24.069s4.765,15.916-2.355,16.235c-3.489.156,1.123-12.563-1.883-12.563s-3.163,18.1-4.932,16.135c-1.243-1.378.287-14.812-1.367-16.135s-2.24,9.356-4.025,7.273c-2.916-3.4-2.393-9.236-4.134-9.131s-1.416,19.7-3.567,20.169.245-15.552-1.243-18.311-4.328,14.022-5.057,12.563c-.844-1.693-.281-6.785-1.459-9.158-.713-1.437-2.735,8.334-3.706,6.378s-.615-3.627-1.815-6.378c-.56-1.285-1.285,10.009-2.771,9.158s-1.731-11.241-3.176-12.563-1.752,13.471-2.62,9.783c-.246-1.044-.873-3-2.2-9.783-.48-2.455-1.881,10.772-2.545,7.273-1.284-6.754-.173-4.729-1.319-15.383-1.45-13.477-2.486,21.729-4.956,22.839s-.179-15-2.833-16.587-.863,14.651-3.152,12.9c-2.973-2.279.049-14.715-1.478-12.9s-2.783,20.023-4.629,20.169-.336-13.469-2.093-14.906-.507,9.837-3.691,9.158c-.946-.2.912-13.1,0-14.421s-3.646,9.131-3.646,9.131.447-13.857-.988-13.23-2.971,19.2-4.691,20.686,1.192-12.865-1.547-14.729-4.023,7.273-4.023,7.273-1.433,6.646-3.481,8.862.235-12.865-5.491-5.1-3.613-9.56-3.613-9.56S932.667-63.37,929.8-63.87c-.978-.086-1.1-7.475,2.116-14.729,2.136-7.627-6.1,7.191-8.666,7.273s1.166-5.982-3.892-9.131c0,0-1.632,12.462-7.593,9.131-2.867-1.6,3.64-9.673,0-9.131s-5.364,17.623-9.738,17.993,3.89-11.68,3.89-17.993c0-6.086-4.6,13.909-18.984,14.742s0-14.742,0-14.742S878.566-69.762,875.777-69.3s1.5-8.791,0-9.3-4.3,8.372-6,7.273c-.667-.431-4.916,8.218-5.9,7.456-1.264-.967,4.3-12.811,2.829-14.729-.582-.759-6.878,13.966-7.755,12.884-.736-.908-1.746-11.479-2.677-12.884-.655-.983-3.077,6.359-3.967,5.057-.565-.826,1.8-5.459,1.184-6.915-.642-1.5-7.086,15.99-8.36,12.659-.772-2.018-.207-8.533-2.186-8.533-1.914,0-2.325,8.617-3.649,8.533s-1.469-7.651-3.195-8.533-2,5.572-3.708,5-1.169-9.137-3.124-7.273-2.309,14.729-4.811,14.729-1.9-9.667-1.9-9.667-4.947,9.091-6.6,7.827,2.876-10.545,0-12.884c-.839-.682-4.079,17.044-5.375,16.135-.918-.644,1.29-15.071,0-16.135-2.257-1.859-4.212,14.941-7.239,12.884-1.347-.916-.763-10.616-3.124-10.616s.122,11.173-3.3,10.616-.787-6.924-3.02-10.616c-1.293-2.137-5.609,20.259-7.545,17.661C784-61.835,790.8-71.128,788.774-78.594c-.6-2.222-5.715,20.522-6.971,18.072-1.361-2.66,2.307-12.017,1.155-18.072-.559-2.936-4.49,19.206-5.561,16.135-2.58-7.411,2.745-17.017-1.985-16.135s-2.028,10.234-4.114,10.8-2.1-7.991-4.226-8.533-2.094,6.933-4.291,6.366-2.329-8.633-4.5-8.633-2.72,9.749-4.188,8.633-2.117-14.97-4.089-13.1-.865,17.663-3.8,20.6-1-13.054-3.419-13.867,7.3,16.229-6.237,10.616c-1.57-.651,4.33-15.943,2.893-17.345s-7.288,16.23-10.152,17.345,2.322-9.553,0-10.616c-1.586-.726-1.016,6.366-3.712,6.366s-.772-9.064-2.68-10.154c-1.3-.744-4.04,15.266-5.814,14.4-2.271-1.1-2.1-22.329-5.11-12.884-1.14-.862-2.432,13.891-3.885,12.884C706.322-66.944,713.9-89.216,706-78.6c-1.036-1-6.247,21.144-7.546,19.928-1.547-1.447,1.508-14.058,0-17.661-.9-2.136-7.672,12.806-8.967,10.616-1.427-2.417,3.692-9.352,3.237-14.4-.151-1.669-8.238,16.3-8.9,14.4-1.65-4.787-.791-1.926-2.389-12.884s-3.522,24.582-6.279,25.841.486-20.334-2.164-23.573-2.541,11.183-4.9,10.616-2.479-11.842-4.534-12.884-1.243,21.281-3.36,19.928-3.619-18.544-5.77-17.661,1.347,13.871-.9,14.3-4.344-19.483-8.506-19.483-2.1,20.217-3.708,19.487c-2.533-1.15-.747-14.7-4.239-18.086-1.683-1.633-2.362,27.538-4.565,26-2.383-1.662.674-17.3-2.035-22.214-1.381-2.5-1.2,16.558-3.156,14.3-2.495-2.887.582-17.386-2.279-23.849-1.152-2.605.14,19.113-3.025,17.139s2.158-16.7-2.031-17.139S614.056-69.57,609.81-68.74c-6.163,1.2-3.113-11.376-8.825-11.376s-8.581,20.966-14.206,14.4,11.9-13.151,2.916-20.167c-1.923-1.5-5.942,1.084-9.6,0-3.833,3.252,2.138,22.842-2.531,22.215-1.475-.2-1.291-20.479-3.44-22.215-1.658-1.332.859,15.285-1.331,14.221-1.251-.609-2.531-12.813-4.276-14.221-.911-.733-3.06,33.124-3.06,33.124s-7.176,14.53-14.061-1.359,3.522-29.4,0-27.4c-.647.369-2.009,5.146-5.778,5.186-.523.006-.432,11.862,0,17.661A36.81,36.81,0,0,0,551.4-45.059c3.676,3.23-5.076.022-5.778,0-1.7-.052-4.158-6.039-5.294-13.612-1.03-6.872,1.12-22.737,0-22.846-3.1-.3-3.77,16.961-6.1,17.849s-.979-12.3-3.223-14.295-3.608,6.3-5.754,6.3-1.181-8.707-2.829-6.3.355,14.295-2.873,14.295-4.178-9.387-10.04-14.295-1.129,10.9-4.558,10.9-7.252-12.16-9.168-10.9-.481,16.195-2.627,17.77-2.194-18.15-7.077-17.77-5.638,24.016-9.937,23.845,7.31-31.093,4.5-31.765-7.169,29.916-9.156,27.212,2.19-16.044,0-19.292c-.641-.949-3.14,9.325-5.18,8.786s.482-6.9-.963-8.786c-1.314-1.711-4.408,16.291-6.038,14.295-2.248-2.754,2.227-6.424,0-12.664-1.146-3.209-5.814,12.993-6.929,12.664s6.689-25.737,0-17.849c-2.839-2.027-.932,20.842-9.116,22.846s3.786-19.292,3.786-19.292-6.163,9.409-7.412,6.3,11.826-19.227,3.626-17.794c-9.244-.415-11.148,17.194-11.148,17.194s-4.075,10.908-5.434,8.594,3.947-17.042,0-17.849c-1.5-.308-7.115,9.2-11.779,9.855s0-6.3,0-6.3-12.4,15.035-15.829,14.3-.633-12.213-3.4-10.454,4.275,14.986-1.326,15.451-5.77-1.209-13.854-12.991-.8,7.373-3.567,7.994-5.673-5.509-5.673-5.509-3.244-14.179-5.18-12.34,4.63,17.3,3.342,17.849-3.2-11.222-8.495-15.671c-2.058-1.73,4.032,11.907,2.989,13.211s-2.563-4.414-7.165-8c-1.109-.863,2.121,9.945-7.044,12.179-8.288,2.019-9.952-11.735-10.347-12.179-7.756-8.73-4.881,16.712-12.177,6.62s-8.822-8.577-8.822-8.577,5.19,9.952,3.175,9.952-5.911-8-5.911-8,3.053,11.5,0,10.454-2.8-10.454-4.68-10.454,1.014,11.389-1.54,10.454-.911-10.108-2.561-10.454-6.663,15.951-10.842,15.462,7.337-24.066,5.527-25.93-7.562,13.786-10.531,15.424,1.433-8.248-1.347-8.869-4.949,12.519-10.266,11.919c-4.905-.86,1.78-12.534-2.23-11.919s-.781,16.944-8.788,16.1c-2.546-.268-2.231-10.789-4.607-12.179s-1.865,7.11-4.893,6.62-2.055-4.769-4.662-8.577c-.838-1.226-1.641,8.577-4.117,8.577s-5.788-8.577-5.788-8.577-1.431,25.75-6.216,30.215-7.836.891-8.149,0,6.9-3.564,6.9-3.564-7.211.3-6.9-1.361,8.149-5.277,8.149-5.277-8.149,2.515-8.149,0,8.149-13.11,8.149-13.11-8.149,10.947-8.149,3.05a10.177,10.177,0,0,1,6.9-9.952H227.8s-1,4.224-1.67,20.012S232.6-39.522,232.611-39.3s-9.6-1.072-11-3.979,1.576-10.968,1.544-18.659-2.6-13.648-3.906-12.179-.678,20.42-1.475,19.886-.478-21.385-1.713-22.036-.373,16.317-1.993,17.6-1.4-11.206-2.967-12.455-.681,10.162-2.065,7.832-3.475-15.285-4.993-17.15-1.751,10.771-3.37,9.317.19-13.962-2.344-13.475-1.48,15.855-2.737,15.429-.317-11.106-3.071-18.788c-2.6-7.244-4.158,27.591-6.667,27.591s1.46-18.812-6.244-20.07-4.678,19.794-12.208,20.07c-2.741.1-5.413-4.824-7.9-12.049-1.486-4.31-4.708,11.392-5.927,6.3-1.745-7.291.311-11.39-3.349-9.952s2.714,33.619-2.407,21.84c-1.306-3-6.284-13.583-8.727-19.883-6.5-16.775-7.392,1.7-7.392,1.7s3.018,18.907-1.393,8.618,1-15.111-1.4-16.639-4.238,12.987-5.975,12.83.207-11.557-1.486-10.6-2.548,16.177-5.505,16.177-2.642-16.177-6.319-16.177,1.018,15.294-8.391,16.177c-2.57-1.5,2.272-9.093-1.784-14.037-.961-1.172.557,15.589-6.557,9.952s2.618-9.777-1.358-9.952-6.8,11.128-9.9,9.952,4.63-5.042-4.43-9.952c-1.948-1.056-3.315,12.6-9.738,8.466-2.65-1.7-.946-6.259-4.335-8.466C59.1-78.688,55.516-64.529,50.836-67.6c-6.07-3.987.237-8.837-3.2-8.466s-8.1,10.487-14.117,9.952-4.838-10.518-9.938-12.092S19.094-71,13.12-72.409-.312-83.854-.312-83.854V88.266Z" transform="translate(0.634 89)" fill="#ee2f4e"/>
      <path id="Path_461" data-name="Path 461" d="M-.623,311.007V519.7s3.194-8.578,6.491-8.578,5.967,5.642,5.967,5.642,3.483-10.678,6.959-9.944,5.45,7.512,5.45,7.512a12.582,12.582,0,0,1,5.881-4.757c3.64-1.189,4.912,2.226,9.025,4.757a15.773,15.773,0,0,0,7.91,2.433s1.118-5.642,2.758-5.642-.418,6.029,3.8,5.642c.824-.075,2.37-5.642,2.37-5.642s.5,6.029,3.175,5.642,5.652-7.924,7.535-7.191,4.637,7.191,4.637,7.191,2.962-7.191,5.689-7.191.7,6.641,4.622,4.757,6.683-6.323,11.156-7.512a6.086,6.086,0,0,1,6.735,2.754l6.585,4.757s2.9-6.1,5.574-4.757,6.43,7.191,6.43,7.191,4.747-20.182,7.769-19.5,3.379,18.057,5.631,19.5,1.03-9.944,5.737-9.944,1.942,9.944,4.74,9.944c.818,0,2.768-7.191,5.873-7.191s.987,2.442,6.539,7.191.024-12.118,3.723-12.118,2.618,5.922,11.8,9.685,5.015-7.512,8.468-7.512,4.307,6.823,7.473,7.512,5.194-4.757,5.194-4.757,1.937-3.944,4.285-2.754-4.544,9.424,5.1,7.512c1.958-.388,3.859-6.282,6.952-7.512,1.763-.7-3.243,16.041,3.393,14.127.515-.148-.442-3.843,0-6.617a13.629,13.629,0,0,1,3.812-7.512c1.186-.944-1.769,11.858,3.066,9.944,1.329-.526.282-8.209,2.585-8.6s1.657-.011,4.607,0c4.069.016-.6,6.284.721,8.6.692,1.223,2.42-4.7,4.83-7.191.861-.89,1.805,3.033,3.107,3.347.618.139,1.6-3.351,2.26-3.347,2.854.016.377,5.44,3.4,7.253s-.806-11.161,2-12.18.762,8.454,3.121,9.685,5.873-9.2,10.3-7.512c4.684,1.782,0,7.512,0,7.512l8.747-7.512s2.071,7.177,4.4,7.512,4.915-6.171,4.915-6.171,2.29-5.219,7.007-5.675c5,.017,2,7.879,4.647,9.4,1.734.994,5.142-3.22,7.625-2.307,2.439.9.138,5.849,2.839,7.191,2.142,1.064,3.558-10.43,6.4-9.944,4.566.782,2.047,7.257,5.229,7.512,3,.24-1.429-8.854,5.9-7.512.946.173-2.885,6.925-1.4,7.512.358.141,1.735.888,2.7,0,.545-.5-.666-2.654,0-2.45,1.154.356-1.079-5.676,4.452-3.721.927.326-.7,9.638,2.028,6.171.659.367,2.547-6.171,2.547-6.171s3.441-10.419,4.5-5.675-1.408,11.356.811,10.558c.916.921,2.694-7.206,4.476-6.226,2.238-.725.552,6.543,2.782,8.462,3.03,2.6.915-6.883,2.933-7.121s.949,7.121.949,7.121l2.479-.95,1.2-4.757s4.328,5.446,5.77,4.757-1.152-10.4,1.478-9.685c1.03.281,2.273,5.579,3.42,7.236,2.188,1.625-2.59-13.956.969-11.372.927.677,2.634,12.264,4.328,12.536s.453-5.7,3.812-4.885c.991.644.76,5.818,2.643,6.171s-.206-7.629,3.353-7.512,1.128,6.226,1.128,6.226,4.886-8.721,6.514-8.4-1.469,7.565,0,8.4c.412.234,5.185-16.12,7.949-16.139,3.1-.176-5.216,17.1-1.5,22.794,1.454,2.228,3.271-9.022,4.974-10.125s.206,5.708,1.835,5.708,1.945-7.563,4.682-5.708c5.538,3.754,2.679,5.708,4.785,5.708s1.285-5.708,1.285-5.708.989-5.153,2.33-4.928-.011,3.284,3.031,5.825c.5.418.466-4.616,1.443-3.651s1.062,6.382,2.452,7.512c.625.509,1.042-5.473,2-4.757,1.087.81,1.23,2.257,2.7,3.471.633.523.994-6.993,1.918-6.226,1.1.915,1.352,5.958,2.755,7.512.463.512.679-2.336,3.4-4.757s1.711-6.1,3.864-4.928c.9.491.259,7.168,1.5,8.4s2.2-7.352,3.45-3.471a24.467,24.467,0,0,1,1.671,7.768c2.885,5.112,2.253-12.894,5.992-12.7,1.443.077-1.266,6.842,1.623,8.4.97.661,1.966-5.887,3.977-5.011.812.4-1.161,8.822.872,10.727.65.717,2.128-9.372,4.018-9.187,1.229.123.647,2.58,2.122,4.757,1.772,2.608,1.1-8.7,3.14-8.465s1.024,6.252,2.867,7.179,1.416-6.547,2.885-6.226-.85,10.743,2.885,12.88c.9.513.806-10.667,2.317-10.125.742.266,1.5,8.7,2.665,9.188.74.312,4,0,4,0a7.158,7.158,0,0,1-1.394-3.481c-.348-2.3-2.023-6.261,0-5.708.9.246,2.125,4.382,4.914,7.768.586.711.515-15.213,1.711-14.718,0,0,1.864,9.927,2.188,11.708s1.3.95,1.3.95-.445,1.406,0,2.06c3.322,4.066,4.6-15.345,6.677-13.673s-.412,10.136.858,11.613,2.7-7.009,4.184-7.247.736,7.836,1.764,6.3,2.655-21.472,4.442-20.13c.372.279,0,3.393,0,3.393h1.869l.06,1.571-1.929,1.772s2.086,1.334,1.929,1.686-.7,15.139,0,14.718,4.668-9.773,2.8-16.4-2.8-8.314-2.8-8.314,4.431-1.919,6.092,0-.451,19.869,0,20.422,2.284-7.077,4.25-7.179c.487-.025-.592,4.878,2.524,7.179.808.6,2.158-4.3,3.422-3.471,1.288.85-1.743,6.474,0,7.768,1.261-.957,3.616-11.718,6.627-10.521,1.086.431-1.443,4.913,0,6.226,2.11,1.918,4.08-9.759,6.923-7.179.147.134.211,8.421,4.032,8.465,1.339.015.456-13.307,2.464-13.394,2.089-.089.163,13.375,3.026,13.394,1.567.01.873-15.166,2.173-15.166s1.5,15.1,3.861,15.166c.4.012.412-4.3,4.162-4.757,1.935-.235-3.652,7.206,0,5.708.811-.333,2.025-5.954,4.962-9.415,1.171-.188,1.2,8.683,2.917,8.465.914-.116,1.056-9.47,2.5-9.624,1.417-.151,1.855,9.786,3.665,9.624,4.342-.39-1.03-12.246,2.473-16.737.595-1,1.209,3.343,1.209,3.343s1.57-2.8,2.128-1.772c.285.524-.561,4.172,0,5.543.286.7.57,8.531,1.133,9.624,1.934,3.748,1.263-10.044,1.883-11.708s-1.546-7.407.9-6.289c1.467.247,1.245,17.938,5.638,18.947.609.14-.226-5.8.76-5.708.6.059,1.963,5.678,2.9,5.708.549.018,1.52-8.424,2.407-8.462.816-.033,1.462,10.567,2.648,10.521,1.339-.052,2.6-13.278,4.34-13.673,1.008-.228,1.312,7.991,2.66,7.856,1.19-.121,1.562-5.357,3.083-5.657.7-.138-1.056,9.307.955,9.415,1.269,0,2.243-13.648,3.7-14.344s-.036,11.391.946,11.474c0,0,2.3-8,3.394-8.744s1.224,11.445,2.635,11.613.721-12.543,1.176-12.658,3.445,9.449,4.819,8.9-1.079-9.332,0-8.9c1.49.6,4.631,10.358,7.089,11.708.645.354,3.158-11.1,4.113-10.663,1.109.509-1.368,9.739,0,10.663.482.325,3.709-10.071,4.5-9.624.654.37,2.685,8.916,3.594,9.624,1.265.979,2.061-9.3,3.449-8.465,1.04.629,3.158-3.308,4.682.954.515,1.452-1.979,6.114,0,7.512s-.579-12.815,12.952-14.949-7.419,14.949-7.419,14.949l9.268-4.757s-3.5,7.964,0,4.757c2.713-2.482,10.861-10.453,10.686-8.465s-2.9,7.538-1.391,8.465,4.376-9.041,5.6-8.465c.9.426,4.048,7.755,5.377,8.465,1.692.9,1.659-5.824,3.8-4.757,1.486.739,3.041,3.618,4.912,4.757,1.554.945,5.455-11.856,7.213-10.663.784.533-.553,4.115-1.364,8.744-.677,3.857-.824,8.763,0,9.886.46.623,1.951-4.826,3.347-9.886,1.185-4.3.275-9.25.981-8.744,2.384,1.719,2.412,10.924,4.7,10.663s1.052-11.873,7.219-11.708-1.526,11.708-1.526,11.708,4.919-11.868,10.38-11.708-3.718,11.708-3.718,11.708l7.75-4.757s-.636,5.006,1.018,4.757,2.173-14.949,3.632-14.949.642,20.315,1.6,20.318,2.158-14.992,3.428-14.992,1.649,14.992,1.649,14.992,3.4-20.6,4.48-20.318-.446,11.409.962,13.03,2.956-7.026,4.67-6.546.872,7.538,2.186,8.465,3.581-10.406,5.385-10.663c2.342-.329-2.658,13.385,0,14.623,1.133.527,2.409-9.214,5.272-9.477,2.576-.145-1.37,6.723,0,6.913s5.484-6.152,5.484-6.152,5.483-9.141,7.323-7.959-6.581,11.985-2.948,12.716c1.221.245,4.1-5.677,5.828-5.518,1.156.107-4.473,10.787-2.88,10.886,2.286.484,7.541-10.125,7.541-10.125s4.856-9.382,5.893-7.959-4.448,9-2.819,10.8,2.907-3.954,4.283-2.838-.228,7.8,1.223,7.3,3.173-9,4.581-9.284-.156,9.116,1.053,8.136,2.885-10.519,4.534-12.057S797.7,509.6,797.7,509.6s-.6-10.407,4.74-4.475c1.492,1.655-1.958,8.3-1.08,9.231s3.8-5.518,5.461-5.518-.314.971,1.212,5.518c.447,1.329,5.724-9.712,6.612-7.652,1.03,2.381-3.019,7.652-1.086,7.652s4.856-11.777,5.807-6.742-.989,7.722,1.18,6.742-1.9-15.022,4.115-14.794.669,19.7,5.91,19.3c5.761.472,2.164-11.323,4.48-12.152s.714.261,4.966,5.733c1.314,1.691,2.009-9.819,3.881-7.313,2.231,2.987.412,1,2.721,7.313,1.085,2.959,2.092-9.761,3.575-5.733s.07,8.8,2.181,9.047c1.649.192,3.255-11.617,4.888-11.966s-.342,10.7,1.109,11.966,1.5-10.839,6.739-6.152c1.263,1.13-1.482,7.343,4.241,7.724s3.179-10.333,5.527-13.538,1.584,8.533,3.391,8.653-.684-8.033,2.518-7.313c.824.186,1.567,10.231,2.965,10.626s1.712-8.218,3.185-9.047,1.582,6.934,3.736,5.733-.97-7.354,2.495-8.653c3.968,1.812.956,5.43,3.628,8.653.7.842,1.624-2.44,3.258-2.838,1.1.986-.4,6.955,2.656,6.152s.936-9.5,3.863-10.626c.27.307,2.012,8.962,1.766,9.231s4.287-10.077,3.9-10.571,1.092,13.746,1.059,13.538,2.473-8.186,3.352-7.724,2.422,7.661,2.464,7.724c.192-.358,2.825-19.2,3.464-18.825s.429,23.555,6.079,23.9,0-23.9,0-23.9,6.063,15.53,7.671,15.858-2.327-10.17,1.144-9.231.669,13.588,2.493,12.2,2.737-17.245,4.6-18.825c.412-.346,3.1,19.71,7.069,20.359s-4.74-13.462,2.343-13.732c3.471-.132-1.117,10.626,1.874,10.626s3.148-15.309,4.908-13.647c1.236,1.165-.285,12.528,1.361,13.647s2.229-7.914,4.005-6.152c2.9,2.879,2.381,7.812,4.114,7.724s1.409-16.667,3.55-17.06-.244,13.154,1.236,15.488,4.307-11.86,5.031-10.626c.84,1.432.279,5.739,1.452,7.747.709,1.215,2.721-7.05,3.687-5.395s.612,3.068,1.806,5.395c.557,1.087,1.278-8.467,2.757-7.747s1.723,9.507,3.16,10.626,1.743-11.394,2.608-8.275c.244.883.869,2.538,2.188,8.275.477,2.077,1.871-9.112,2.533-6.152,1.277,5.713.172,4,1.313,13.011,1.443,11.4,2.473-18.379,4.931-19.318s.178,12.687,2.819,14.03.858-12.392,3.136-10.908c2.959,1.928-.048,12.446,1.471,10.908s2.769-16.936,4.606-17.06.334,11.392,2.082,12.608.5-8.321,3.672-7.747c.941.171-.907,11.079,0,12.2s3.627-7.724,3.627-7.724-.444,11.72.983,11.19,2.956-16.237,4.667-17.5-1.187,10.881,1.54,12.458,4-6.152,4-6.152,1.425-5.622,3.464-7.5-.235,10.881,5.461,4.311,3.6,8.087,3.6,8.087,7.769-11.631,10.622-11.207c.973.073,1.089,6.323-2.106,12.458-2.126,6.451,6.069-6.083,8.623-6.152s-1.16,5.06,3.873,7.724c0,0,1.624-10.54,7.555-7.724,2.853,1.355-3.623,8.182,0,7.724s5.337-14.906,9.691-15.219-3.87,9.879-3.87,15.219c0,5.148,4.582-11.765,18.89-12.469s0,12.469,0,12.469,8.329-9.042,11.105-9.435-1.492,7.436,0,7.865,4.274-7.081,5.968-6.152c.664.365,4.891-6.951,5.878-6.307,1.257.818-4.276,10.835-2.815,12.458.579.642,6.843-11.812,7.716-10.9.732.768,1.736,9.709,2.663,10.9.651.832,3.062-5.379,3.947-4.277.562.7-1.794,4.618-1.179,5.849.639,1.265,7.051-13.524,8.318-10.707.768,1.707.206,7.218,2.175,7.218,1.905,0,2.313-7.289,3.63-7.218s1.462,6.472,3.18,7.218,1.99-4.714,3.689-4.234,1.163,7.729,3.109,6.152,2.3-12.458,4.787-12.458,1.881,8.182,1.881,8.182,4.922-7.69,6.564-6.621-2.861,8.918,0,10.9c.835.577,4.057-14.416,5.348-13.647.913.545-1.284,12.747,0,13.647,2.246,1.573,4.192-12.637,7.2-10.9,1.34.775.76,8.979,3.11,8.979s-.122-9.45,3.284-8.979.783,5.857,3,8.979c1.287,1.807,5.581-17.135,7.508-14.938,2.349,2.68-4.411,10.54-2.4,16.856.6,1.879,5.687-17.358,6.937-15.286,1.354,2.25-2.3,10.164-1.149,15.286.556,2.483,4.468-16.245,5.533-13.647,2.567,6.269-2.732,14.393,1.975,13.647s2.019-8.657,4.093-9.135,2.087,6.76,4.205,7.218,2.082-5.864,4.27-5.384,2.317,7.3,4.479,7.3,2.708-8.246,4.168-7.3,2.107,12.662,4.069,11.076.86-14.94,3.779-17.421,1,11.041,3.4,11.729-7.261-13.727,6.206-8.979c1.562.551-4.309,13.485-2.879,14.671s7.252-13.727,10.1-14.671-2.311,8.081,0,8.979c1.577.614,1.012-5.384,3.693-5.384s.768,7.667,2.667,8.589c1.3.629,4.018-12.912,5.785-12.183,2.26.933,2.084,18.886,5.085,10.9,1.133.729,2.42-11.749,3.866-10.9,1.759,1.038-5.782,19.876,2.081,10.9,1.03.843,6.216-17.884,7.509-16.856,1.539,1.224-1.5,11.89,0,14.938.892,1.807,7.635-10.831,8.923-8.979,1.42,2.044-3.673,7.911-3.221,12.183.151,1.412,8.2-13.79,8.854-12.183,1.641,4.049.787,1.629,2.377,10.9s3.51-20.792,6.248-21.857-.483,17.2,2.154,19.939,2.528-9.458,4.876-8.979,2.467,10.016,4.512,10.9,1.236-18,3.344-16.856,3.606,15.685,5.742,14.938-1.34-11.732.893-12.093,4.327,16.479,8.464,16.479,2.094-17.1,3.7-16.479c2.52.973.744,12.432,4.219,15.3,1.675,1.381,2.35-23.292,4.543-22,2.37,1.406-.671,14.631,2.025,18.789,1.374,2.118,1.192-14.005,3.14-12.093,2.482,2.442-.579,14.705,2.267,20.172,1.147,2.2-.139-16.166,3.011-14.5s-2.147,14.129,2.021,14.5,5.9-13.8,10.128-14.5c6.133-1.017,3.1,9.622,8.782,9.622s8.538-17.734,14.136-12.183-11.842,11.123-2.9,17.058c1.914,1.27,5.913-.917,9.552,0,3.819-2.751-2.128-19.321,2.518-18.79,1.467.168,1.285,17.321,3.423,18.79,1.649,1.127-.854-12.928,1.325-12.028,1.245.515,2.519,10.837,4.255,12.028.907.62,3.046-28.017,3.046-28.017s7.141-12.289,13.992,1.149-3.5,24.87,0,23.176c.644-.312,2-4.353,5.749-4.386.52,0,.43-10.033,0-14.938a28.9,28.9,0,0,0-5.749-11.513c-3.657-2.732,5.049-.018,5.749,0,1.689.044,4.138,5.108,5.267,11.513,1.025,5.813-1.115,19.232,0,19.324,3.086.254,3.752-14.346,6.071-15.1s.974,10.4,3.208,12.091,3.591-5.33,5.726-5.33,1.176,7.365,2.815,5.33-.353-12.091,2.859-12.091,4.157,7.94,9.995,12.091,1.123-9.223,4.534-9.223,7.22,10.285,9.123,9.223.478-13.7,2.614-15.03,2.183,15.352,7.042,15.03,5.609-20.314,9.892-20.169-7.273,26.3-4.474,26.869,7.133-25.3,9.111-23.017-2.179,13.57,0,16.317c.638.8,3.124-7.888,5.152-7.432s-.479,5.839.959,7.432c1.307,1.447,4.385-13.78,6.008-12.091,2.237,2.33-2.216,5.434,0,10.711,1.141,2.714,5.785-10.99,6.9-10.711s-6.656,21.769,0,15.1c2.824,1.714.927-17.628,9.068-19.324s-3.768,16.317-3.768,16.317,6.133-7.959,7.375-5.33-11.768,16.262-3.606,15.051c9.2.351,11.093-14.543,11.093-14.543s4.056-9.226,5.407-7.27-3.928,14.414,0,15.1c1.5.26,7.08-7.783,11.721-8.336s0,5.33,0,5.33,12.339-12.712,15.76-12.091.631,10.33,3.382,8.842-4.255-12.676,1.319-13.069,5.742,1.023,13.786,10.988.8-6.236,3.549-6.762,5.645,4.66,5.645,4.66,3.228,11.993,5.152,10.437-4.607-14.637-3.325-15.1,3.184,9.492,8.449,13.254c2.048,1.463-4.012-10.071-2.974-11.174s2.55,3.733,7.129,6.763c1.1.73-2.11-8.411,7.007-10.3,8.243-1.708,9.9,9.925,10.3,10.3,7.717,7.384,4.857-14.135,12.117-5.6s8.779,7.255,8.779,7.255-5.164-8.418-3.16-8.418,5.882,6.763,5.882,6.763-3.038-9.73,0-8.842,2.787,8.842,4.657,8.842-1.009-9.633,1.533-8.842.907,8.55,2.548,8.842,6.63-13.483,10.787-13.069-7.3,20.356-5.5,21.933,7.522-11.66,10.479-13.046-1.425,6.977,1.34,7.5,4.924-10.589,10.215-10.081c4.882.728-1.771,10.6,2.219,10.081s.777-14.331,8.745-13.619c2.534.226,2.22,9.125,4.584,10.3s1.855-6.014,4.869-5.6,2.045,4.034,4.637,7.255c.834,1.037,1.633-7.255,4.1-7.255s5.76,7.255,5.76,7.255,1.423-21.781,6.187-25.557,7.8-.754,8.108,0-6.865,3.015-6.865,3.015,7.176-.252,6.865,1.152-8.108,4.464-8.108,4.464,8.108-2.127,8.108,0-8.108,11.088-8.108,11.088,8.108-9.259,8.108-2.58-6.865,8.418-6.865,8.418h8.97s1-3.573,1.662-16.927S1756.016,482.7,1756,482.51s9.555.907,10.951,3.365-1.568,9.276-1.536,15.782,2.589,11.543,3.886,10.3.68-17.273,1.475-16.818.475,18.088,1.705,18.639.371-13.8,1.983-14.89,1.4,9.478,2.953,10.535.677-8.6,2.054-6.625,3.457,12.928,4.969,14.506,1.742-9.11,3.353-7.881-.188,11.809,2.333,11.4,1.468-13.407,2.723-13.046.315,9.394,3.055,15.891c2.585,6.128,4.138-23.337,6.634-23.337s-1.453,15.912,6.212,16.975,4.655-16.742,12.148-16.975c2.727-.085,5.386,4.081,7.862,10.191,1.479,3.645,4.685-9.635,5.9-5.325,1.736,6.167-.309,9.634,3.332,8.418s-2.7-28.436,2.395-18.473c1.3,2.541,6.253,11.488,8.684,16.818,6.472,14.188,7.355-1.438,7.355-1.438s-3-15.992,1.386-7.29-.992,12.781,1.394,14.073,4.216-10.985,5.945-10.852-.206,9.775,1.479,8.97,2.536-13.683,5.478-13.683,2.629,13.683,6.285,13.683-1.014-12.936,8.353-13.683c2.557,1.272-2.261,7.691,1.775,11.873.957.992-.554-13.185,6.523-8.418s-2.6,8.27,1.352,8.418,6.762-9.413,9.848-8.418-4.607,4.265,4.408,8.418c1.938.893,3.3-10.654,9.695-7.161,2.637,1.44.941,5.295,4.314,7.161,4.005,2.216,7.57-9.76,12.226-7.161,6.04,3.373-.236,7.475,3.183,7.161s8.063-8.871,14.047-8.418,4.814,8.9,9.892,10.227,4.468-6.1,10.407-4.9,13.357,9.672,13.357,9.672V299.063Z" transform="translate(0.945 -142.987)" fill="#ee2f4e"/>
    </g>
  </g>
</svg>
