<svg xmlns="http://www.w3.org/2000/svg" width="1931.05" height="61.758" viewBox="0 0 1931.05 61.758">
  <path id="Path_460" data-name="Path 460" d="M1930.739-30.263l-.313-53.03s-3.1,10.141-6.3,10.141-5.794-6.67-5.794-6.67-3.381,12.625-6.757,11.757-5.292-8.881-5.292-8.881-2.176,4.218-5.711,5.624-4.77-2.631-8.764-5.624a13.309,13.309,0,0,0-7.681-2.876s-1.086,6.67-2.679,6.67.407-7.128-3.693-6.67c-.8.089-2.306,6.67-2.306,6.67s-.482-7.128-3.082-6.67-5.488,9.368-7.317,8.5-4.506-8.5-4.506-8.5-2.876,8.5-5.523,8.5-.678-7.851-4.488-5.624-6.49,7.475-10.833,8.881-6.539-3.256-6.539-3.256l-6.394-5.624s-2.815,7.211-5.412,5.624-6.243-8.5-6.243-8.5-4.609,23.86-7.543,23.059-3.28-21.348-5.467-23.059-1,11.757-5.57,11.757-1.886-11.757-4.6-11.757c-.795,0-2.687,8.5-5.7,8.5s-.958-2.887-6.349-8.5-.023,14.327-3.615,14.327-2.542-7-11.457-11.451-4.87,8.881-8.222,8.881-4.182-8.066-7.257-8.881-5.043,5.624-5.043,5.624-1.881,4.662-4.161,3.256,4.413-11.143-4.957-8.881c-1.9.459-3.747,7.426-6.75,8.881-1.712.829,3.149-18.965-3.294-16.7-.5.175.429,4.543,0,7.822-.516,3.94-2.41,7.632-3.7,8.881-1.152,1.115,1.718-14.019-2.977-11.757-1.291.622-.274,9.7-2.51,10.172s-1.609.013-4.473,0c-3.951-.018.58-7.429-.7-10.172-.672-1.446-2.35,5.559-4.691,8.5-.836,1.052-1.753-3.586-3.017-3.957-.6-.164-1.555,3.961-2.194,3.957-2.771-.018-.366-6.431-3.3-8.574s.782,13.2-1.943,14.4-.741-9.994-3.03-11.451-5.7,10.877-10.007,8.881c-4.548-2.107,0-8.881,0-8.881l-8.494,8.881s-2.011-8.484-4.273-8.881-4.772,7.3-4.772,7.3-2.224,6.17-6.807,6.709c-4.851-.02-1.946-9.315-4.512-11.108-1.684-1.175-4.992,3.807-7.407,2.728-2.368-1.059-.134-6.914-2.756-8.5-2.08-1.258-3.455,12.331-6.219,11.757-4.433-.925-1.988-8.579-5.078-8.881-2.911-.284,1.388,10.467-5.733,8.881-.919-.2,2.8-8.187,1.357-8.881-.347-.166-1.685-1.05-2.627,0-.529.593.646,3.138,0,2.9-1.121-.421,1.047,6.71-4.323,4.4-.9-.386.678-11.4-1.969-7.3-.64-.434-2.474,7.3-2.474,7.3s-3.342,12.318-4.369,6.709,1.367-13.426-.787-12.484c-.89-1.089-2.616,8.519-4.346,7.36-2.173.858-.536-7.735-2.7-10-2.942-3.078-.888,8.138-2.849,8.419s-.921-8.419-.921-8.419l-2.407,1.123-1.17,5.624s-4.2-6.438-5.6-5.624,1.118,12.3-1.434,11.451c-1-.333-2.207-6.6-3.32-8.554-2.124-1.92,2.516,16.5-.94,13.445-.905-.8-2.557-14.5-4.2-14.821s-.44,6.737-3.7,5.775c-.962-.762-.739-6.878-2.566-7.3s.2,9.019-3.256,8.881-1.1-7.36-1.1-7.36-4.744,10.31-6.325,9.93,1.427-8.944,0-9.93c-.4-.277-5.034,19.058-7.719,19.08-3.013.208,5.065-20.211,1.453-26.948-1.412-2.634-3.177,10.665-4.829,11.971s-.2-6.747-1.782-6.747-1.889,8.94-4.546,6.747c-5.378-4.439-2.6-6.747-4.647-6.747s-1.248,6.747-1.248,6.747-.961,6.091-2.262,5.826.011-3.883-2.943-6.886c-.486-.494-.452,5.457-1.4,4.316s-1.032-7.545-2.381-8.881c-.607-.6-1.011,6.47-1.945,5.624-1.056-.958-1.194-2.668-2.621-4.1-.615-.618-.965,8.267-1.862,7.36-1.069-1.082-1.313-7.044-2.675-8.881-.45-.605-.659,2.762-3.3,5.624s-1.661,7.208-3.752,5.826c-.878-.58-.251-8.474-1.451-9.93s-2.137,8.691-3.35,4.1a34.318,34.318,0,0,1-1.623-9.183c-2.8-6.043-2.188,15.244-5.818,15.009-1.4-.091,1.23-8.088-1.576-9.93-.941-.781-1.909,6.96-3.861,5.923-.788-.478,1.127-10.43-.846-12.682-.631-.848-2.066,11.081-3.907,10.863-1.193-.145-.629-3.05-2.06-5.624-1.721-3.083-1.068,10.289-3.049,10.008s-.994-7.392-2.784-8.487-1.375,7.74-2.8,7.36.826-12.7-2.8-15.228c-.87-.606-.782,12.612-2.25,11.971-.72-.315-1.459-10.282-2.587-10.863-.719-.369-3.888,0-3.888,0a9.456,9.456,0,0,1,1.353,4.115c.339,2.716,1.964,7.4,0,6.747-.875-.291-2.063-5.18-4.772-9.183-.569-.841-.5,17.986-1.662,17.4,0,0-1.81-11.738-2.125-13.842s-1.259-1.123-1.259-1.123a4.408,4.408,0,0,0,0-2.435c-3.225-4.807-4.465,18.142-6.483,16.165s.4-11.984-.833-13.73-2.619,8.286-4.063,8.567-.715-9.264-1.713-7.444-2.578,25.386-4.313,23.8c-.361-.33,0-4.011,0-4.011h-1.815l-.058-1.857,1.873-2.1s-2.026-1.577-1.873-1.993.681-17.9,0-17.4-4.533,11.555-2.722,19.394,2.722,9.829,2.722,9.829-4.3,2.269-5.915,0,.438-23.491,0-24.144-2.218,8.367-4.127,8.487c-.473.03.576-5.767-2.451-8.487-.784-.7-2.1,5.088-3.322,4.1-1.251-1,1.693-7.654,0-9.183-1.225,1.131-3.511,13.854-6.435,12.439-1.055-.509,1.4-5.808,0-7.36-2.049-2.267-3.962,11.538-6.723,8.487-.144-.159-.205-9.956-3.914-10.008-1.3-.018-.443,15.733-2.393,15.835-2.028.106-.158-15.813-2.939-15.835-1.521-.012-.847,17.931-2.11,17.931s-1.455-17.85-3.749-17.931c-.392-.014-.4,5.087-4.042,5.624-1.879.277,3.546-8.519,0-6.747-.787.393-1.966,7.039-4.818,11.131-1.136.223-1.162-10.265-2.832-10.008-.887.137-1.026,11.2-2.428,11.378-1.376.178-1.8-11.57-3.559-11.378-4.216.461,1,14.478-2.4,19.788-.577,1.186-1.173-3.953-1.173-3.953s-1.525,3.306-2.066,2.1c-.277-.62.545-4.932,0-6.553-.278-.823-.553-10.086-1.1-11.378-1.878-4.431-1.227,11.875-1.828,13.842s1.5,8.757-.87,7.435c-1.424-.292-1.208-21.208-5.475-22.4-.591-.165.219,6.859-.738,6.747-.582-.07-1.906-6.713-2.816-6.747-.533-.021-1.476,9.959-2.337,10-.793.039-1.42-12.493-2.571-12.439-1.3.061-2.528,15.7-4.214,16.165-.979.27-1.273-9.447-2.583-9.287-1.155.144-1.517,6.334-2.994,6.688-.685.164,1.025-11-.927-11.131-1.233,0-2.179,16.136-3.594,16.959s.035-13.467-.919-13.566c0,0-2.232,9.456-3.3,10.338s-1.188-13.532-2.559-13.73-.7,14.83-1.142,14.965-3.345-11.172-4.679-10.523,1.047,11.033,0,10.523c-1.446-.707-4.5-12.246-6.884-13.842-.626-.418-3.067,13.123-3.994,12.607-1.076-.6,1.328-11.514,0-12.607-.469-.384-3.6,11.907-4.373,11.378-.635-.438-2.607-10.542-3.49-11.378-1.229-1.157-2,11-3.349,10.008-1.01-.743-3.067,3.91-4.547-1.127-.5-1.716,1.922-7.228,0-8.881s.562,15.151-12.576,17.674,7.2-17.674,7.2-17.674l-9,5.624s3.4-9.416,0-5.624c-2.635,2.934-10.546,12.359-10.377,10.008s2.814-8.912,1.351-10.008-4.249,10.689-5.438,10.008c-.877-.5-3.931-9.168-5.221-10.008-1.643-1.068-1.61,6.885-3.692,5.624-1.443-.874-2.953-4.277-4.77-5.624-1.509-1.117-5.3,14.017-7,12.607-.762-.63.537-4.864,1.325-10.338.657-4.56.8-10.359,0-11.689-.446-.737-1.9,5.705-3.25,11.689-1.15,5.083-.267,10.935-.953,10.338-2.316-2.033-2.342-12.915-4.559-12.607s-1.021,14.037-7.01,13.842,1.482-13.842,1.482-13.842-4.776,14.032-10.079,13.842,3.61-13.842,3.61-13.842l-7.526,5.624s.618-5.918-.988-5.624-2.11,17.674-3.527,17.674-.624-24.017-1.553-24.022-2.095,17.725-3.328,17.725-1.6-17.725-1.6-17.725-3.306,24.359-4.35,24.022.433-13.489-.934-15.405-2.87,8.306-4.534,7.739-.847-8.912-2.123-10.008-3.477,12.3-5.229,12.607c-2.274.389,2.581-15.825,0-17.288-1.1-.623-2.339,10.894-5.12,11.2-2.5.172,1.331-7.947,0-8.172s-5.325,7.273-5.325,7.273-5.323,10.807-7.11,9.41,6.39-14.169,2.862-15.034c-1.186-.29-3.981,6.711-5.658,6.523-1.122-.127,4.343-12.753,2.8-12.87-2.22-.572-7.323,11.971-7.323,11.971s-4.715,11.093-5.722,9.41,4.319-10.637,2.738-12.765-2.822,4.674-4.159,3.355.221-9.217-1.187-8.631-3.08,10.637-4.448,10.976.152-10.778-1.022-9.619-2.8,12.437-4.4,14.256-2-6.982-2-6.982.586,12.3-4.6,5.29c-1.448-1.957,1.906-9.816,1.049-10.914s-3.685,6.523-5.306,6.523.305-1.148-1.177-6.523c-.434-1.571-5.558,11.483-6.421,9.046-1-2.815,2.932-9.046,1.054-9.046s-4.715,13.923-5.639,7.97.961-9.129-1.146-7.97,1.844,17.761-4,17.491-.649-23.288-5.739-22.811c-5.593-.558-2.106,13.388-4.35,14.367s-.693-.308-4.822-6.778c-1.276-2-1.951,11.61-3.769,8.645-2.166-3.531-.4-1.186-2.642-8.645-1.054-3.5-2.031,11.541-3.471,6.778s-.068-10.4-2.118-10.7c-1.6-.227-3.161,13.735-4.746,14.148s.332-12.654-1.076-14.148-1.453,12.815-6.544,7.273c-1.227-1.335,1.439-8.681-4.118-9.131s-3.087,12.217-5.366,16.006-1.538-10.088-3.293-10.23.665,9.5-2.445,8.645c-.8-.22-1.522-12.1-2.88-12.563s-1.663,9.716-3.092,10.7-1.535-8.2-3.628-6.778.941,8.694-2.422,10.23c-3.853-2.142-.929-6.419-3.523-10.23-.678-1-1.577,2.885-3.164,3.355-1.066-1.165.392-8.222-2.58-7.273s-.909,11.227-3.751,12.563c-.262-.363-1.954-10.6-1.715-10.914s-4.163,11.915-3.79,12.5S1042.965-80.7,1043-80.453s-2.4,9.678-3.255,9.131-2.353-9.056-2.392-9.131c-.186.423-2.743,22.7-3.363,22.256s-.416-27.848-5.905-28.26,0,28.26,0,28.26-5.887-18.36-7.449-18.749,2.259,12.024-1.11,10.914-.649-16.065-2.421-14.421-2.657,20.389-4.466,22.256c-.4.409-3.009-23.3-6.865-24.069s4.6,15.916-2.275,16.235c-3.371.156,1.085-12.563-1.82-12.563S998.62-60.5,996.91-62.46c-1.2-1.378.277-14.812-1.322-16.135s-2.164,9.356-3.889,7.273c-2.818-3.4-2.313-9.236-3.995-9.131s-1.368,19.7-3.447,20.169.238-15.552-1.2-18.311-4.182,14.022-4.886,12.563c-.816-1.693-.271-6.785-1.41-9.158-.689-1.437-2.642,8.334-3.58,6.378s-.595-3.627-1.753-6.378c-.542-1.285-1.241,10.009-2.678,9.158s-1.673-11.241-3.069-12.563-1.693,13.471-2.532,9.783c-.237-1.044-.843-3-2.124-9.783-.464-2.455-1.817,10.772-2.459,7.273-1.24-6.754-.167-4.729-1.275-15.383-1.4-13.477-2.4,21.729-4.789,22.839s-.173-15-2.737-16.587-.834,14.651-3.046,12.9c-2.873-2.279.047-14.715-1.428-12.9S942.6-60.43,940.818-60.284s-.324-13.469-2.022-14.906-.489,9.837-3.566,9.158c-.914-.2.88-13.1,0-14.421s-3.522,9.131-3.522,9.131.431-13.857-.955-13.23-2.87,19.2-4.532,20.686,1.152-12.865-1.494-14.729-3.886,7.273-3.886,7.273-1.384,6.646-3.363,8.862.228-12.865-5.3-5.1-3.491-9.56-3.491-9.56-7.544,13.751-10.315,13.251c-.945-.086-1.058-7.475,2.045-14.729,2.064-7.627-5.893,7.191-8.373,7.273s1.127-5.982-3.761-9.131c0,0-1.576,12.462-7.336,9.131-2.77-1.6,3.518-9.673,0-9.131s-5.183,17.623-9.41,17.993,3.758-11.68,3.758-17.993c0-6.086-4.449,13.909-18.342,14.742s0-14.742,0-14.742S848.865-69.762,846.169-69.3s1.449-8.791,0-9.3-4.15,8.372-5.8,7.273c-.645-.431-4.749,8.218-5.708,7.456-1.221-.967,4.152-12.811,2.733-14.729-.562-.759-6.645,13.966-7.493,12.884-.71-.908-1.686-11.479-2.587-12.884-.632-.983-2.973,6.359-3.833,5.057-.545-.826,1.742-5.459,1.144-6.915-.62-1.5-6.846,15.99-8.077,12.659-.746-2.018-.2-8.533-2.112-8.533-1.85,0-2.246,8.617-3.525,8.533s-1.42-7.651-3.087-8.533-1.932,5.572-3.582,5.005-1.129-9.137-3.019-7.273S799-63.865,796.58-63.865s-1.826-9.673-1.826-9.673-4.78,9.091-6.373,7.827,2.778-10.545,0-12.884c-.811-.682-3.941,17.044-5.193,16.135-.886-.644,1.246-15.071,0-16.135-2.181-1.859-4.07,14.941-6.994,12.884-1.3-.916-.738-10.616-3.019-10.616s.119,11.173-3.188,10.616-.76-6.924-2.917-10.616c-1.249-2.137-5.419,20.259-7.29,17.661-2.281-3.169,4.284-12.462,2.331-19.928-.581-2.222-5.522,20.522-6.735,18.072-1.315-2.66,2.229-12.017,1.116-18.072-.54-2.936-4.338,19.206-5.373,16.135-2.492-7.411,2.652-17.017-1.918-16.135s-1.96,10.234-3.974,10.8-2.026-7.991-4.083-8.533S739.12-69.395,737-69.961s-2.25-8.633-4.349-8.633-2.629,9.749-4.047,8.633-2.046-14.97-3.951-13.1-.836,17.663-3.67,20.6-.968-13.054-3.3-13.867,7.051,16.229-6.026,10.616c-1.517-.651,4.184-15.943,2.8-17.345s-7.042,16.23-9.808,17.345,2.244-9.553,0-10.616c-1.532-.726-.982,6.366-3.586,6.366s-.746-9.064-2.589-10.154c-1.259-.744-3.9,15.266-5.617,14.4-2.194-1.1-2.024-22.329-4.938-12.884-1.1-.862-2.35,13.891-3.754,12.884-1.708-1.228,5.615-23.5-2.02-12.884-1-1-6.036,21.144-7.291,19.928-1.494-1.447,1.458-14.058,0-17.661-.866-2.136-7.413,12.806-8.665,10.616-1.379-2.417,3.567-9.352,3.128-14.4-.146-1.669-7.96,16.3-8.6,14.4-1.594-4.787-.765-1.926-2.308-12.884S655-54.013,652.337-52.754s.469-20.334-2.091-23.573-2.456,11.183-4.734,10.616-2.4-11.842-4.381-12.884-1.2,21.281-3.246,19.928-3.5-18.544-5.575-17.661,1.3,13.871-.868,14.3-4.2-19.483-8.219-19.483S621.189-61.3,619.634-62.03c-2.447-1.15-.722-14.7-4.1-18.086-1.627-1.633-2.282,27.538-4.411,26-2.3-1.662.652-17.3-1.965-22.214-1.334-2.5-1.158,16.558-3.048,14.3-2.41-2.887.562-17.386-2.2-23.849-1.113-2.605.135,19.113-2.923,17.139s2.085-16.7-1.962-17.139S593.3-69.569,589.2-68.74c-5.955,1.2-3.008-11.376-8.527-11.376s-8.291,20.966-13.726,14.4,11.5-13.151,2.818-20.167c-1.858-1.5-5.742,1.084-9.275,0-3.708,3.252,2.066,22.842-2.445,22.215-1.425-.2-1.247-20.479-3.324-22.215-1.6-1.332.83,15.285-1.286,14.221-1.209-.609-2.446-12.813-4.132-14.221-.88-.733-2.957,33.124-2.957,33.124s-6.934,14.53-13.586-1.359,3.4-29.4,0-27.4c-.626.369-1.941,5.146-5.582,5.186-.506.006-.417,11.862,0,17.661a37.5,37.5,0,0,0,5.582,13.612c3.551,3.23-4.9.022-5.582,0-1.64-.052-4.018-6.039-5.115-13.612-1-6.872,1.082-22.737,0-22.846-3-.3-3.643,16.961-5.895,17.849s-.946-12.3-3.114-14.295-3.486,6.3-5.56,6.3-1.141-8.707-2.733-6.3.343,14.295-2.776,14.295-4.036-9.387-9.7-14.295-1.091,10.9-4.407,10.9-7.011-12.16-8.859-10.9-.465,16.195-2.538,17.77-2.12-18.15-6.837-17.77-5.447,24.016-9.6,23.845,7.063-31.093,4.344-31.765-6.926,29.916-8.846,27.212,2.116-16.044,0-19.292c-.62-.949-3.034,9.325-5.005,8.786s.465-6.9-.931-8.786c-1.27-1.711-4.259,16.291-5.834,14.295-2.172-2.754,2.152-6.424,0-12.664-1.107-3.209-5.617,12.993-6.7,12.664s6.463-25.737,0-17.849c-2.742-2.027-.9,20.842-8.8,22.846s3.659-19.292,3.659-19.292-5.954,9.409-7.162,6.3,11.427-19.227,3.5-17.794c-8.932-.415-10.771,17.194-10.771,17.194s-3.938,10.908-5.25,8.594,3.813-17.042,0-17.849c-1.453-.308-6.874,9.2-11.381,9.855s0-6.3,0-6.3-11.981,15.03-15.3,14.295-.612-12.213-3.284-10.454S386.407-59.131,381-58.666s-5.575-1.209-13.386-12.991-.778,7.373-3.447,7.994-5.481-5.509-5.481-5.509-3.134-14.179-5-12.34,4.474,17.3,3.229,17.849-3.092-11.222-8.207-15.671c-1.989-1.73,3.9,11.907,2.887,13.211s-2.476-4.414-6.922-8c-1.072-.863,2.049,9.945-6.8,12.179-8,2.019-9.616-11.735-10-12.179-7.494-8.73-4.716,16.712-11.766,6.62s-8.524-8.577-8.524-8.577,5.015,9.952,3.068,9.952-5.711-8-5.711-8,2.95,11.5,0,10.454-2.707-10.454-4.522-10.454.98,11.389-1.489,10.454-.88-10.108-2.474-10.454-6.438,15.941-10.474,15.451,7.089-24.066,5.34-25.93-7.307,13.786-10.175,15.424,1.384-8.248-1.3-8.869-4.781,12.519-9.919,11.919c-4.74-.86,1.72-12.534-2.155-11.919s-.755,16.944-8.491,16.1c-2.46-.268-2.156-10.789-4.451-12.179s-1.8,7.11-4.727,6.62-1.986-4.769-4.5-8.577c-.81-1.226-1.585,8.577-3.978,8.577s-5.593-8.577-5.593-8.577-1.382,25.75-6.008,30.215-7.571.891-7.873,0,6.666-3.564,6.666-3.564-6.968.3-6.666-1.361,7.873-5.277,7.873-5.277-7.873,2.515-7.873,0,7.873-13.11,7.873-13.11-7.873,10.947-7.873,3.05a10.172,10.172,0,0,1,6.666-9.952H220.1s-.968,4.224-1.614,20.012,6.245,16.542,6.259,16.761-9.278-1.072-10.633-3.979,1.523-10.968,1.491-18.659-2.514-13.648-3.773-12.179S211.17-53.7,210.4-54.234s-.461-21.385-1.656-22.036-.36,16.317-1.926,17.6-1.356-11.206-2.867-12.455-.657,10.162-1.995,7.832-3.357-15.285-4.825-17.15-1.691,10.771-3.256,9.317.183-13.962-2.265-13.475-1.425,15.851-2.644,15.424S188.66-80.279,186-87.96c-2.51-7.244-4.018,27.591-6.442,27.591s1.41-18.812-6.032-20.07-4.52,19.794-11.8,20.07c-2.648.1-5.23-4.824-7.634-12.049-1.435-4.31-4.549,11.392-5.727,6.3-1.686-7.291.3-11.39-3.236-9.952s2.623,33.619-2.325,21.84c-1.262-3-6.072-13.583-8.432-19.883-6.284-16.775-7.142,1.7-7.142,1.7s2.916,18.907-1.346,8.618.963-15.111-1.354-16.639-4.094,12.987-5.773,12.83.2-11.557-1.435-10.605-2.462,16.177-5.319,16.177-2.552-16.177-6.107-16.177.984,15.294-8.111,16.177c-2.483-1.5,2.195-9.093-1.724-14.037-.929-1.172.538,15.589-6.335,9.952s2.529-9.777-1.312-9.952-6.566,11.128-9.563,9.952,4.473-5.042-4.28-9.952c-1.882-1.056-3.2,12.6-9.414,8.466-2.56-1.7-.914-6.259-4.189-8.466-3.889-2.619-7.351,11.54-11.872,8.466-5.865-3.987.229-8.837-3.09-8.466s-7.829,10.487-13.64,9.952-4.675-10.518-9.6-12.092-4.339,7.206-10.108,5.8S-.312-83.854-.312-83.854v55.839Z" transform="translate(0.312 89.773)" fill="#00a651"/>
</svg>
