<svg xmlns="http://www.w3.org/2000/svg" xmlns:xlink="http://www.w3.org/1999/xlink" width="62" height="65" viewBox="0 0 62 65">
  <defs>
    <clipPath id="clip-oopkp">
      <rect width="62" height="65"/>
    </clipPath>
  </defs>
  <g id="oopkp" clip-path="url(#clip-oopkp)">
    <g id="Group_270" data-name="Group 270" transform="translate(-444 -4371.273)">
      <path id="Path_50" data-name="Path 50" d="M-1335.724,214.729s-2.526,10.932-2.205,12.882,1.278,4.488,3.5,4.329,2.553-1.155,3.175-2.759-1.111-14.452-1.111-14.452,1.16,12.594,2.667,13.967,1.936,2.8,4.584,2.109,1.771-2.549,2.305-4.265-7.289-13.928-7.289-13.928,7.551,12.141,7.972,12.7,1.509.667,3.009.466,2.017-.107,2.994-1.269a4.707,4.707,0,0,0,.914-3.379,2.415,2.415,0,0,0,0-.675c-.236-1.061-13.287-9.713-13.287-9.713s11.689,7.578,13.736,8.015,3.55-.216,4.105-1.9-.812-3.627-1.883-4.821-14.224-3.74-14.224-3.74,12.631,2.94,14.224,2.44,3.328-.6,3.73-2,.593-1.829,0-3-3.73-2.588-3.73-2.588l-12.576,2.094s13.808-2.48,15.282-4.121a3.524,3.524,0,0,0,0-4.51,12.112,12.112,0,0,0-2.168-1.49s-2.173-.028-2.76,0c-1.066.051-14.472,9.08-14.472,9.08s14.378-9.1,14.952-10.706a5.1,5.1,0,0,0-.48-4.525c-.786-.975-3.037-1.134-4.356-.89s-11.61,13.953-11.61,13.953,11.284-13.469,11-15.074-.394-2.591-1.672-3.314a5.21,5.21,0,0,0-4.63,0c-1.279.723-2.843,3.771-2.843,3.771l-3.49,13.7,3.134-14.162-.467-2.7s-.371-2.85-2.158-3-3.886-.357-4.988,2.389.466,12.965.466,12.965-1.263-12.783-2.34-13.525a3.6,3.6,0,0,0-3.913-.545c-1.594.771-1.973,2.12-2.464,3.63s5.569,12.107,5.569,12.107-5.217-10.076-6.339-10.862-1.887-.711-3.234-.877-2.532.845-3.126,2.431.749,3.911.749,3.911l10.44,9.152-10.44-8.539s-4.651.622-5.575,1.627-1.74,2.1-.816,4.02a5.665,5.665,0,0,0,1.857,1.98c3.984,2.028,14.974,4.121,14.974,4.121s-14.753-3.836-16.428-3.208-3.017,2.088-2.828,3.208-.285,1.422.786,2.537a10.737,10.737,0,0,0,3.5,1.924l14.974-1.406s-11.086,1.118-13.611,2.01a5.1,5.1,0,0,0-3.219,2.668c-.6.984-1.008,4.259.4,4.732.282.095,4.114.448,5.239,0,3.943-1.569,11.189-6.313,11.189-6.313a112.989,112.989,0,0,0-10.44,6.753c-3.284,2.633-2.695,3.779-2.695,3.779s-.225,2,.83,2.578a12.905,12.905,0,0,0,3.618.8l2.906-.8,7.29-9.783s-5.027,6.034-6.563,9.783a5.038,5.038,0,0,0,.387,5.185,3.8,3.8,0,0,0,4.28,1.107,8.465,8.465,0,0,0,2.7-2.83C-1337.843,226.278-1335.724,214.729-1335.724,214.729Z" transform="translate(1809.213 4196.091)" fill="#fff" stroke="#000" stroke-width="1"/>
      <g id="Ellipse_4" data-name="Ellipse 4" transform="translate(466.877 4394.618)" fill="#fff100" stroke="#000" stroke-width="1">
        <circle cx="7.86" cy="7.86" r="7.86" stroke="none"/>
        <circle cx="7.86" cy="7.86" r="7.36" fill="none"/>
      </g>
    </g>
  </g>
</svg>
