<svg xmlns="http://www.w3.org/2000/svg" xmlns:xlink="http://www.w3.org/1999/xlink" width="40" height="50" viewBox="0 0 40 50">
  <defs>
    <clipPath id="clip-WC-icon-velka_2">
      <rect width="40" height="50"/>
    </clipPath>
  </defs>
  <g id="WC-icon-velka_2" data-name="WC-icon-velka – 2" clip-path="url(#clip-WC-icon-velka_2)">
    <g id="Group_283" data-name="Group 283" transform="translate(1 1.438)">
      <g id="Path_332" data-name="Path 332" transform="translate(0 0)" fill="#ee2f4e">
        <path d="M 18.34408950805664 45.79467391967773 C 16.11412048339844 45.79467391967773 13.87716007232666 44.8358154296875 11.69536018371582 42.94472503662109 C 9.711939811706543 41.2255744934082 7.778260231018066 38.71120452880859 6.10338020324707 35.67343521118164 C 3.05088996887207 30.1370735168457 1 23.0954532623291 1 18.15124320983887 C 1 13.57865333557129 2.866529941558838 9.277273178100586 6.255740165710449 6.039453506469727 C 9.657440185546875 2.789713621139526 14.18344020843506 1.000003695487976 19 1.000003695487976 C 23.81657028198242 1.000003695487976 28.34255981445312 2.789713621139526 31.74426078796387 6.039453506469727 C 35.13348007202148 9.277263641357422 37 13.57865333557129 37 18.15124320983887 C 37 23.13898277282715 34.92129135131836 29.91441345214844 31.70425033569336 35.4124641418457 C 29.97620964050293 38.3657341003418 27.96862983703613 40.85273361206055 25.89852905273438 42.60459518432617 C 23.62062072753906 44.53231430053711 21.27466011047363 45.59833526611328 18.92583084106445 45.77303314208984 C 18.7327709197998 45.78739547729492 18.53705024719238 45.79467391967773 18.34408950805664 45.79467391967773 Z" stroke="none"/>
        <path d="M 19 2.000003814697266 C 14.44195938110352 2.000003814697266 10.16127967834473 3.691364288330078 6.94651985168457 6.762523651123047 C 3.756710052490234 9.809844970703125 2 13.85443496704102 2 18.15124320983887 C 2 22.94148445129395 4.000938415527344 29.78908348083496 6.979089736938477 35.19060516357422 C 8.59766960144043 38.12626266479492 10.45502090454102 40.54628372192383 12.3503303527832 42.18906402587891 C 14.34506988525391 43.91802215576172 16.36166000366211 44.79467391967773 18.34408950805664 44.79467391967773 C 18.51247024536133 44.79467391967773 18.68322944641113 44.78832244873047 18.85165023803711 44.77579498291016 C 20.98557090759277 44.61707305908203 23.13912963867188 43.62974548339844 25.25252914428711 41.84124374389648 C 27.23715019226074 40.16172409057617 29.16965866088867 37.76405334472656 30.84114074707031 34.90743255615234 C 32.40689849853516 32.23149490356445 33.72122955322266 29.20670318603516 34.64204025268555 26.16005325317383 C 35.53041839599609 23.22067451477051 36 20.45127296447754 36 18.15124320983887 C 36 13.85443496704102 34.24328994750977 9.809844970703125 31.05348968505859 6.762523651123047 C 27.83872032165527 3.691364288330078 23.55804061889648 2.000003814697266 19 2.000003814697266 M 19 3.814697265625e-06 C 29.4934196472168 3.814697265625e-06 38 8.126594543457031 38 18.15124320983887 C 38 28.1759033203125 29.84626960754395 45.96353530883789 19 46.77028274536133 C 18.78087615966797 46.78658294677734 18.56097030639648 46.794677734375 18.34408950805664 46.794677734375 C 7.82573127746582 46.794677734375 0 27.97337913513184 0 18.15124320983887 C 0 8.126594543457031 8.506589889526367 3.814697265625e-06 19 3.814697265625e-06 Z" stroke="none" fill="#fff"/>
      </g>
    </g>
    <text id="WC" transform="translate(20 24.559)" fill="#fff" font-size="13" font-family="Avenir-BlackOblique, Avenir" font-weight="800" font-style="oblique"><tspan x="-10.953" y="0">WC</tspan></text>
  </g>
</svg>
