<svg xmlns="http://www.w3.org/2000/svg" xmlns:xlink="http://www.w3.org/1999/xlink" width="21" height="28" viewBox="0 0 21 28">
  <defs>
    <clipPath id="clip-wc">
      <rect width="21" height="28"/>
    </clipPath>
  </defs>
  <g id="wc" clip-path="url(#clip-wc)">
    <g id="Group_280" data-name="Group 280" transform="translate(0 0.022)">
      <g id="Path_332" data-name="Path 332" transform="translate(0 0)" fill="#ee2f4e">
        <path d="M 10.19032764434814 26.70970344543457 C 8.942117691040039 26.70970344543457 7.69008731842041 26.14799308776855 6.469017505645752 25.04015350341797 C 5.360977649688721 24.03488349914551 4.281197547912598 22.56546211242676 3.346397399902344 20.79076385498047 C 1.643877506256104 17.55856323242188 0.4999974966049194 13.44489288330078 0.4999974966049194 10.55440330505371 C 0.4999974966049194 5.010393142700195 5.010517597198486 0.5000030398368835 10.5546875 0.5000030398368835 C 16.09885787963867 0.5000030398368835 20.60937690734863 5.010393142700195 20.60937690734863 10.55440330505371 C 20.60937690734863 13.47124290466309 19.44973754882812 17.43045234680176 17.65504837036133 20.64097213745117 C 16.69076728820801 22.36596298217773 15.57010746002197 23.81896209716797 14.41420745849609 24.84288215637207 C 13.14071750640869 25.97096252441406 11.82912731170654 26.59478378295898 10.51587772369385 26.6970329284668 C 10.40783786773682 26.70544242858887 10.29830741882324 26.70970344543457 10.19032764434814 26.70970344543457 Z" stroke="none"/>
        <path d="M 10.5546875 1.000003814697266 C 5.28621768951416 1.000003814697266 0.9999980926513672 5.286092758178711 0.9999980926513672 10.55440330505371 C 0.9999980926513672 13.37094306945801 2.1207275390625 17.39097213745117 3.788778305053711 20.55774307250977 C 4.696687698364258 22.28139305114746 5.739677429199219 23.70334243774414 6.804977416992188 24.66984367370605 C 7.931197166442871 25.69162368774414 9.070187568664551 26.20970344543457 10.19032764434814 26.20970344543457 C 10.28547763824463 26.20970344543457 10.38194751739502 26.20594215393066 10.4770679473877 26.19854354858398 C 11.67936706542969 26.10493278503418 12.8924674987793 25.52290344238281 14.08266735076904 24.46860313415527 C 15.19701766967773 23.48149299621582 16.28141784667969 22.07355308532715 17.21860694885254 20.39700317382812 C 18.97468757629395 17.25555419921875 20.10937690734863 13.39210319519043 20.10937690734863 10.55440330505371 C 20.10937690734863 5.286092758178711 15.82315731048584 1.000003814697266 10.5546875 1.000003814697266 M 10.5546875 3.814697265625e-06 C 16.38388824462891 3.814697265625e-06 21.10937690734863 4.725372314453125 21.10937690734863 10.55440330505371 C 21.10937690734863 16.38344192504883 16.57989692687988 26.7264232635498 10.5546875 27.19552230834961 C 10.43296241760254 27.20499992370605 10.31080436706543 27.20970726013184 10.19032573699951 27.20970726013184 C 4.347269058227539 27.20970726013184 -1.9073486328125e-06 16.26568222045898 -1.9073486328125e-06 10.55440330505371 C -1.9073486328125e-06 4.725372314453125 4.725498199462891 3.814697265625e-06 10.5546875 3.814697265625e-06 Z" stroke="none" fill="#fff"/>
      </g>
    </g>
    <text id="WC-2" data-name="WC" transform="translate(10.001 13.908)" fill="#fff" font-size="8" font-family="Avenir-BlackOblique, Avenir" font-weight="800" font-style="oblique"><tspan x="-6.74" y="0">WC</tspan></text>
  </g>
</svg>
